<?xml version="1.0" encoding="UTF-8" standalone="no"?>
<svg
   xmlns:dc="http://purl.org/dc/elements/1.1/"
   xmlns:cc="http://creativecommons.org/ns#"
   xmlns:rdf="http://www.w3.org/1999/02/22-rdf-syntax-ns#"
   xmlns:svg="http://www.w3.org/2000/svg"
   xmlns="http://www.w3.org/2000/svg"
   xmlns:sodipodi="http://sodipodi.sourceforge.net/DTD/sodipodi-0.dtd"
   xmlns:inkscape="http://www.inkscape.org/namespaces/inkscape"
   sodipodi:docname="item.svg"
   inkscape:version="1.0 (4035a4fb49, 2020-05-01)"
   id="svg5256"
   version="1.1"
   viewBox="0 0 150 150"
   height="150"
   width="150">
  <defs
     id="defs5250">
    <inkscape:perspective
       id="perspective5044"
       inkscape:persp3d-origin="75 : 50 : 1"
       inkscape:vp_z="150 : 75 : 1"
       inkscape:vp_y="0 : 1000 : 0"
       inkscape:vp_x="0 : 75 : 1"
       sodipodi:type="inkscape:persp3d" />
    <pattern
       id="EMFhbasepattern"
       patternUnits="userSpaceOnUse"
       width="6"
       height="6"
       x="0"
       y="0" />
  </defs>
  <sodipodi:namedview
     inkscape:document-rotation="0"
     inkscape:snap-global="false"
     inkscape:window-maximized="1"
     inkscape:window-y="-11"
     inkscape:window-x="2869"
     inkscape:window-height="2066"
     inkscape:window-width="3840"
     units="px"
     inkscape:pagecheckerboard="true"
     showgrid="false"
     inkscape:current-layer="layer1"
     inkscape:document-units="px"
     inkscape:cy="63.61303"
     inkscape:cx="-6.0683006"
     inkscape:zoom="2.8"
     inkscape:pageshadow="2"
     inkscape:pageopacity="0.0"
     borderopacity="1.0"
     bordercolor="#666666"
     pagecolor="#ffffff"
     id="base">
    <sodipodi:guide
       inkscape:locked="false"
       id="guide4518"
       orientation="35.02264,-60.62899"
       position="135.62899,39.97733" />
    <sodipodi:guide
       inkscape:locked="false"
       id="guide4520"
       orientation="-35.02264,-60.628989"
       position="75,4.95469" />
    <sodipodi:guide
       inkscape:locked="false"
       id="guide4522"
       orientation="-70.045324,0"
       position="14.371011,39.97733" />
    <sodipodi:guide
       inkscape:locked="false"
       id="guide4524"
       orientation="-35.022659,60.628989"
       position="14.371011,110.02265" />
    <sodipodi:guide
       inkscape:locked="false"
       id="guide4526"
       orientation="35.022659,60.62899"
       position="75,145.04531" />
    <sodipodi:guide
       inkscape:locked="false"
       id="guide4528"
       orientation="70.045324,0"
       position="135.62899,110.02265" />
  </sodipodi:namedview>
  <metadata
     id="metadata5253">
    <rdf:RDF>
      <cc:Work
         rdf:about="">
        <dc:format>image/svg+xml</dc:format>
        <dc:type
           rdf:resource="http://purl.org/dc/dcmitype/StillImage" />
        <dc:title />
      </cc:Work>
    </rdf:RDF>
  </metadata>
  <g
     id="layer1"
     inkscape:groupmode="layer"
     inkscape:label="Layer 1">
    <path
       inkscape:connector-curvature="0"
       style="fill:#000000;fill-opacity:1;fill-rule:nonzero;stroke:none"
       d="M 135.99955,110.03974 75.039999,144.99948 14.000451,110.03974 V 39.960263 L 75.039999,5.000522 135.99955,40.040262 Z"
       id="path823" />
    <g
       transform="matrix(0.16226872,0,0,0.16226872,33.453044,33.201328)"
       class=""
       style="font-variation-settings:normal;display:inline;opacity:1;vector-effect:none;fill:#ffffff;fill-opacity:1;stroke:none;stroke-width:1.1137;stroke-linecap:butt;stroke-linejoin:miter;stroke-miterlimit:4;stroke-dasharray:none;stroke-dashoffset:0;stroke-opacity:1;stop-color:#000000;stop-opacity:1"
       id="g6">
      <path
         d="m 241.406,21 -15.22,34.75 c -7.864,0.478 -15.703,1.472 -23.467,2.97 l -23.282,-30.064 -25.094,8.532 -0.125,38.25 c -10.63,5.464 -20.817,12.07 -30.44,19.78 L 88.313,79.25 70.156,98.563 88.312,133 c -5.852,8.346 -10.925,17.072 -15.218,26.094 l -38.938,1.062 -7.906,25.28 31.438,23.158 c -1.505,9.38 -2.24,18.858 -2.282,28.344 l -34.906,17.687 3.656,26.25 38.313,7.5 c 2.284,7.982 5.107,15.826 8.5,23.5 l -25.249,31.345 14.093,22.436 39.25,-9.187 c 2.47,2.895 5.037,5.757 7.718,8.53 5.643,5.835 11.565,11.206 17.72,16.125 l -7.625,39.313 22.938,13.25 29.968,-26.094 c 8.606,3.462 17.435,6.23 26.407,8.312 l 9.782,38.406 26.405,2.157 15.875,-36.22 c 10.97,-0.66 21.904,-2.3 32.656,-4.938 l 25.22,29.22 24.593,-9.844 -0.72,-14.813 -57.406,-43.53 c -16.712,4.225 -34.042,5.356 -51.063,3.436 -31.754,-3.58 -62.27,-17.92 -86.218,-42.686 -54.738,-56.614 -53.173,-146.67 3.438,-201.406 27.42,-26.513 62.69,-39.963 98,-40.344 37.59,-0.406 75.214,13.996 103.438,43.187 45.935,47.512 52.196,118.985 19.562,173.095 l 31.97,24.25 c 3.997,-6.28 7.594,-12.75 10.75,-19.375 l 38.655,-1.063 7.906,-25.28 -31.217,-23 c 1.513,-9.457 2.262,-19.035 2.28,-28.594 l 34.688,-17.625 -3.655,-26.25 -38.28,-7.5 c -3.196,-10.993 -7.444,-21.762 -12.75,-32.125 l 22.81,-31.594 -15.25,-21.657 -37.56,10.906 c -0.472,-0.5 -0.93,-1.007 -1.408,-1.5 -5.998,-6.205 -12.33,-11.89 -18.937,-17.064 L 356.941,57.029 334,43.78 305.5,68.594 c -9.226,-3.713 -18.702,-6.603 -28.313,-8.75 L 267.844,23.156 Z M 183.25,174.5 c -10.344,0.118 -20.597,2.658 -30,7.28 l 45.22,34.314 c 13.676,10.376 17.555,30.095 7.06,43.937 -10.498,13.85 -30.656,15.932 -44.53,5.408 l -45.188,-34.282 c -4.627,24.793 4.135,51.063 25.594,67.344 19.245,14.597 43.944,17.33 65.22,9.688 l 4.78,-1.72 4.03,3.063 135.19,102.564 4.03,3.062 -0.344,5.063 c -1.637,22.55 7.59,45.61 26.844,60.217 21.46,16.28 49.145,17.63 71.78,6.5 l -45.186,-34.28 c -13.874,-10.526 -17.282,-30.506 -6.78,-44.344 10.5,-13.84 30.537,-15.405 44.217,-5.032 l 45.188,34.283 c 4.616,-24.784 -4.11,-51.067 -25.563,-67.344 -19.313,-14.658 -43.817,-17.562 -64.968,-10.033 l -4.75,1.688 -4.03,-3.063 -135.19,-102.562 -4.03,-3.063 0.344,-5.03 c 1.55,-22.387 -7.85,-45.194 -27.157,-59.845 -12.544,-9.516 -27.222,-13.978 -41.78,-13.812 z M 226.813,264.75 390.688,389.094 379.406,404 215.5,279.625 Z"
         fill="#fff"
         fill-opacity="1"
         id="path4"
         style="font-variation-settings:normal;vector-effect:none;fill:#ffffff;fill-opacity:1;stroke:none;stroke-width:1.1137;stroke-linecap:butt;stroke-linejoin:miter;stroke-miterlimit:4;stroke-dasharray:none;stroke-dashoffset:0;stroke-opacity:1;stop-color:#000000;stop-opacity:1" />
    </g>
  </g>
</svg>
