<?xml version="1.0" encoding="UTF-8" standalone="no"?>
<svg
   xmlns:dc="http://purl.org/dc/elements/1.1/"
   xmlns:cc="http://creativecommons.org/ns#"
   xmlns:rdf="http://www.w3.org/1999/02/22-rdf-syntax-ns#"
   xmlns:svg="http://www.w3.org/2000/svg"
   xmlns="http://www.w3.org/2000/svg"
   xmlns:sodipodi="http://sodipodi.sourceforge.net/DTD/sodipodi-0.dtd"
   xmlns:inkscape="http://www.inkscape.org/namespaces/inkscape"
   width="150"
   height="150"
   viewBox="0 0 39.6875 39.687502"
   version="1.1"
   id="svg4565"
   inkscape:version="1.0.1 (3bc2e813f5, 2020-09-07)"
   sodipodi:docname="kennel.svg">
  <defs
     id="defs4559" />
  <sodipodi:namedview
     inkscape:snap-bbox-edge-midpoints="true"
     inkscape:bbox-nodes="true"
     inkscape:bbox-paths="true"
     inkscape:snap-bbox="true"
     id="base"
     pagecolor="#ffffff"
     bordercolor="#666666"
     borderopacity="1.0"
     inkscape:pageopacity="0.0"
     inkscape:pageshadow="2"
     inkscape:zoom="3.959798"
     inkscape:cx="-8.1619632"
     inkscape:cy="70.159771"
     inkscape:document-units="mm"
     inkscape:current-layer="layer1"
     showgrid="false"
     inkscape:window-width="1920"
     inkscape:window-height="1017"
     inkscape:window-x="1672"
     inkscape:window-y="134"
     inkscape:window-maximized="1"
     inkscape:document-rotation="0"
     units="px"
     inkscape:snap-object-midpoints="true"
     inkscape:snap-page="true" />
  <metadata
     id="metadata4562">
    <rdf:RDF>
      <cc:Work
         rdf:about="">
        <dc:format>image/svg+xml</dc:format>
        <dc:type
           rdf:resource="http://purl.org/dc/dcmitype/StillImage" />
        <dc:title />
      </cc:Work>
    </rdf:RDF>
  </metadata>
  <g
     inkscape:label="Layer 1"
     inkscape:groupmode="layer"
     id="layer1">
    <path
       inkscape:connector-curvature="0"
       style="fill:#000000;fill-opacity:1;fill-rule:nonzero;stroke:none;stroke-width:0.264583"
       d="M 35.983204,29.114682 19.854324,38.364446 3.7042739,29.114682 V 10.572819 L 19.854324,1.3230541 35.983204,10.593986 Z"
       id="path823" />
    <path
       fill="#ffffff"
       d="M 19.844101,11.273008 9.5089955,21.607751 H 11.06338 l 8.780813,-8.780449 8.780085,8.780449 h 1.554204 z m 9.3e-5,3.251392 -7.308182,7.307819 v 6.582273 h 3.451242 v -4.293616 a 3.8564813,3.8564813 0 0 1 0,-0.03606 3.8564813,3.8564813 0 0 1 3.82233,-3.856486 3.8564813,3.8564813 0 0 1 0.03415,0 3.8564813,3.8564813 0 0 1 3.85676,3.856486 3.8564813,3.8564813 0 0 1 -4.58e-4,0.03606 h 4.58e-4 v 0.0057 c -1.94e-4,-0.0019 -2.82e-4,-0.0038 -4.58e-4,-0.0057 l -0.937755,-0.937573 -0.0071,9.1e-4 c 0.465366,1.058363 0.384951,2.068562 0.136534,2.962971 l 0.808761,-0.852455 v 3.119763 h 3.45088 v -6.582454 z m 0.319398,6.992419 c 0.19406,0.590458 0.158849,1.152958 0.08094,1.686741 0.02412,-0.0083 0.04794,-0.01677 0.07131,-0.02562 0.21548,-0.32847 0.299901,-0.748528 0.362548,-1.209915 -0.03686,-0.04379 -0.07594,-0.08564 -0.116458,-0.125997 -0.109527,-0.109055 -0.24098,-0.217814 -0.39834,-0.325212 z m 0.773514,0.270434 c -0.06757,0.561502 -0.14128,1.111796 -0.446939,1.553841 l -0.01981,0.02907 -0.03298,0.01299 c -0.347665,0.137808 -0.679904,0.188807 -0.90051,0.456115 -0.10455,0.130524 -0.151744,0.346309 -0.215203,0.56267 -0.03181,0.108328 -0.06883,0.216964 -0.130721,0.314584 -0.06023,0.09499 -0.148504,0.178899 -0.2678,0.224923 l -0.741083,0.406424 0.0018,0.0018 c 0.05798,0.05909 0.100855,0.130277 0.128632,0.203938 0.06357,0.168379 0.0692,0.353701 0.05759,0.503897 -0.01218,0.158649 -0.125276,0.276917 -0.253901,0.321669 -0.02118,0.0072 -0.04294,0.01318 -0.06495,0.01717 0.220017,0.209783 0.473909,0.402232 0.686215,0.495266 0.89196,-0.237855 1.554634,-0.354974 2.111062,-0.288603 0.115344,0.01378 0.225598,0.03597 0.331934,0.06668 0.02698,-0.0021 0.05392,-0.0042 0.08085,-0.0071 0.197542,-0.01939 0.43236,-0.06298 0.542777,-0.120637 0.05978,-0.03119 0.169874,-0.13735 0.251721,-0.23328 0.08183,-0.09595 0.141712,-0.180138 0.141712,-0.180138 l 0.190495,0.134717 c 0,0 -0.06516,0.09207 -0.154431,0.196762 -0.08929,0.1047 -0.196457,0.223508 -0.321487,0.288785 -0.08939,0.04666 -0.196215,0.07832 -0.307135,0.100834 0.117987,0.0674 0.231595,0.147988 0.342109,0.242001 l 0.594374,-0.594284 c 0.315008,-0.916778 0.496232,-1.952424 0.0724,-3.05136 -0.113373,0.02935 -0.23089,0.06725 -0.352827,0.114279 l -0.09602,0.03725 -0.04896,-0.09075 C 21.81543,22.946738 21.436754,22.196015 20.937101,21.78723 Z m 1.676749,1.658762 c 0,0 9.3e-5,0 9.3e-5,0 l -2.81e-4,-4.57e-4 c 4.6e-5,1.4e-4 1.39e-4,2.82e-4 1.93e-4,4.57e-4 z m -2.270488,0.658146 c -0.0034,0.193045 -0.09157,0.373599 -0.254991,0.495539 -0.142321,0.02586 -0.257108,0.01737 -0.37245,-0.12427 0.145461,-0.129163 0.291171,-0.25503 0.469377,-0.325939 0.04988,-0.01984 0.102392,-0.03512 0.158064,-0.04533 z m -1.414308,0.833015 -0.01645,0.0075 c 0.0038,-8.56e-4 0.0067,-0.0028 0.01026,-0.0037 z m -0.923492,0.534602 c -0.130105,0.01558 -0.394519,0.05766 -0.432497,0.213931 -0.04715,0.193995 0.251178,0.422897 0.355282,0.482457 -0.158591,-0.21887 -0.316785,-0.416109 0.07721,-0.696388 z"
       id="path13"
       style="stroke-width:0.0465107" />
  </g>
</svg>
