<?xml version="1.0" encoding="UTF-8" standalone="no"?>
<svg
   xmlns:dc="http://purl.org/dc/elements/1.1/"
   xmlns:cc="http://creativecommons.org/ns#"
   xmlns:rdf="http://www.w3.org/1999/02/22-rdf-syntax-ns#"
   xmlns:svg="http://www.w3.org/2000/svg"
   xmlns="http://www.w3.org/2000/svg"
   xmlns:sodipodi="http://sodipodi.sourceforge.net/DTD/sodipodi-0.dtd"
   xmlns:inkscape="http://www.inkscape.org/namespaces/inkscape"
   width="150"
   height="150"
   viewBox="0 0 150 150"
   version="1.1"
   id="svg5256"
   inkscape:version="1.0 (4035a4fb49, 2020-05-01)"
   sodipodi:docname="safe.svg">
  <defs
     id="defs5250">
    <inkscape:perspective
       sodipodi:type="inkscape:persp3d"
       inkscape:vp_x="0 : 75 : 1"
       inkscape:vp_y="0 : 1000 : 0"
       inkscape:vp_z="150 : 75 : 1"
       inkscape:persp3d-origin="75 : 50 : 1"
       id="perspective5044" />
    <pattern
       y="0"
       x="0"
       height="6"
       width="6"
       patternUnits="userSpaceOnUse"
       id="EMFhbasepattern" />
  </defs>
  <sodipodi:namedview
     id="base"
     pagecolor="#ffffff"
     bordercolor="#666666"
     borderopacity="1.0"
     inkscape:pageopacity="0.0"
     inkscape:pageshadow="2"
     inkscape:zoom="1.979899"
     inkscape:cx="-270.56095"
     inkscape:cy="134.55587"
     inkscape:document-units="px"
     inkscape:current-layer="layer1"
     showgrid="false"
     inkscape:pagecheckerboard="true"
     units="px"
     inkscape:window-width="3840"
     inkscape:window-height="2066"
     inkscape:window-x="2869"
     inkscape:window-y="-11"
     inkscape:window-maximized="1"
     inkscape:snap-global="false"
     inkscape:document-rotation="0">
    <sodipodi:guide
       position="135.62899,39.97733"
       orientation="35.02264,-60.62899"
       id="guide4518"
       inkscape:locked="false" />
    <sodipodi:guide
       position="75,4.95469"
       orientation="-35.02264,-60.628989"
       id="guide4520"
       inkscape:locked="false" />
    <sodipodi:guide
       position="14.371011,39.97733"
       orientation="-70.045324,0"
       id="guide4522"
       inkscape:locked="false" />
    <sodipodi:guide
       position="14.371011,110.02265"
       orientation="-35.022659,60.628989"
       id="guide4524"
       inkscape:locked="false" />
    <sodipodi:guide
       position="75,145.04531"
       orientation="35.022659,60.62899"
       id="guide4526"
       inkscape:locked="false" />
    <sodipodi:guide
       position="135.62899,110.02265"
       orientation="70.045324,0"
       id="guide4528"
       inkscape:locked="false" />
  </sodipodi:namedview>
  <metadata
     id="metadata5253">
    <rdf:RDF>
      <cc:Work
         rdf:about="">
        <dc:format>image/svg+xml</dc:format>
        <dc:type
           rdf:resource="http://purl.org/dc/dcmitype/StillImage" />
        <dc:title />
      </cc:Work>
    </rdf:RDF>
  </metadata>
  <g
     inkscape:label="Layer 1"
     inkscape:groupmode="layer"
     id="layer1">
    <path
       id="path823"
       d="M 135.99955,110.03974 75.039999,144.99948 14.000451,110.03974 V 39.960263 L 75.039999,5.000522 135.99955,40.040262 Z"
       style="fill:#000000;fill-opacity:1;fill-rule:nonzero;stroke:none"
       inkscape:connector-curvature="0" />
    <g
       class=""
       id="g17"
       transform="matrix(0.13130612,0,0,0.13135743,41.385633,50.717566)"
       style="font-variation-settings:normal;opacity:1;vector-effect:none;fill:#ffffff;fill-opacity:1;stroke:none;stroke-width:287.809;stroke-linecap:butt;stroke-linejoin:miter;stroke-miterlimit:4;stroke-dasharray:none;stroke-dashoffset:0;stroke-opacity:1;stop-color:#000000;stop-opacity:1">
      <path
         style="font-variation-settings:normal;vector-effect:none;fill:#ffffff;fill-opacity:1;stroke:none;stroke-width:287.809;stroke-linecap:butt;stroke-linejoin:miter;stroke-miterlimit:4;stroke-dasharray:none;stroke-dashoffset:0;stroke-opacity:1;stop-color:#000000;stop-opacity:1"
         inkscape:connector-curvature="0"
         d="M 25.000001,-117.28457 25,439 h 462 v -556.28457 z m 30,29.999996 H 457 v 32 h 16 v 66 H 457 V 311 h 16 v 66 h -16 v 32 H 55 Z m 18,18 L 73,391 h 366 v -14 h -32 v -66 h 32 V 10.715426 h -32 v -66 h 32 v -14 z m 351.999999,32 v 30.0000002 h 30 V -37.284574 Z M 208,55.953015 c 21.3,0 40.8,7.5 56.1,20.1 l 17.5,-17.5 12.8,12.8 -17.5,17.5 c 12.6,15.299995 20.1,34.799995 20.1,56.099995 0,21.3 -7.5,40.8 -20.1,56.1 l 17.5,17.5 -12.8,12.8 -17.5,-17.5 c -15.3,12.6 -34.8,20.1 -56.1,20.1 -21.3,0 -40.8,-7.5 -56.1,-20.1 l -17.5,17.5 -12.8,-12.8 17.5,-17.5 c -12.6,-15.3 -20.1,-34.8 -20.1,-56.1 0,-21.3 7.5,-40.8 20.1,-56.099995 l -17.5,-17.5 12.8,-12.8 17.5,17.5 c 15.3,-12.6 34.8,-20.1 56.1,-20.1 z m 0,18 c -16.4,0 -31.4,5.5 -43.4,14.8 l 21.6,21.599995 c 6.3,-4.1 13.8,-6.4 21.8,-6.4 8,0 15.5,2.3 21.8,6.4 l 21.6,-21.599995 c -12,-9.3 -27,-14.8 -43.4,-14.8 z m 152,14 c 18.1,0 33,14.899995 33,32.999995 0,7 -2.2,13.5 -6,18.9 v 53.1 c 0,19.4 -12.7,33 -27,33 -14.3,0 -27,-13.6 -27,-33 v -53.1 c -3.8,-5.4 -6,-11.9 -6,-18.9 0,-18.1 14.9,-32.999995 33,-32.999995 z M 151.8,101.55301 c -9.3,12 -14.8,27 -14.8,43.4 0,16.4 5.5,31.4 14.8,43.4 l 21.6,-21.6 c -4.1,-6.3 -6.4,-13.8 -6.4,-21.8 0,-8 2.3,-15.5 6.4,-21.8 z m 112.4,0 -21.6,21.6 c 4.1,6.3 6.4,13.8 6.4,21.8 0,8 -2.3,15.5 -6.4,21.8 l 21.6,21.6 c 9.3,-12 14.8,-27 14.8,-43.4 0,-16.4 -5.5,-31.4 -14.8,-43.4 z m 95.8,4.4 c -8.4,0 -15,6.6 -15,15 0,8.4 6.6,15 15,15 8.4,0 15,-6.6 15,-15 0,-8.4 -6.6,-15 -15,-15 z m -152,16 c -12.8,0 -23,10.2 -23,23 0,12.8 10.2,23 23,23 12.8,0 23,-10.2 23,-23 0,-12.8 -10.2,-23 -23,-23 z m 143,30.7 v 40.3 c 0,12.6 5.3,15 9,15 3.7,0 9,-2.4 9,-15 v -40.3 c -2.9,0.8 -5.9,1.3 -9,1.3 -3.1,0 -6.1,-0.5 -9,-1.3 z m -164.8,26.9 -21.6,21.6 c 12,9.3 27,14.8 43.4,14.8 16.4,0 31.4,-5.5 43.4,-14.8 l -21.6,-21.6 c -6.3,4.1 -13.8,6.4 -21.8,6.4 -8,0 -15.5,-2.3 -21.8,-6.4 z M 425,329 v 30 h 30 V 329 Z M 73,457 v 30 h 34.2 l 20,-30 z m 311.8,0 20,30 H 439 v -30 z"
         id="path15"
         sodipodi:nodetypes="ccccccccccccccccccccccccccccccccccccsccccsccccsccccsccccssccsccssscssscsscsccsccccsccscsssssssssscssscscccsccscccccccccccccccc" />
    </g>
  </g>
</svg>
