<?xml version="1.0" encoding="UTF-8" standalone="no"?>
<!-- Created with Inkscape (http://www.inkscape.org/) -->

<svg
   xmlns:dc="http://purl.org/dc/elements/1.1/"
   xmlns:cc="http://creativecommons.org/ns#"
   xmlns:rdf="http://www.w3.org/1999/02/22-rdf-syntax-ns#"
   xmlns:svg="http://www.w3.org/2000/svg"
   xmlns="http://www.w3.org/2000/svg"
   xmlns:sodipodi="http://sodipodi.sourceforge.net/DTD/sodipodi-0.dtd"
   xmlns:inkscape="http://www.inkscape.org/namespaces/inkscape"
   width="150"
   height="150"
   viewBox="0 0 150 150"
   version="1.1"
   id="svg5256"
   inkscape:version="0.92.4 (5da689c313, 2019-01-14)"
   sodipodi:docname="security-2guarddog.svg">
  <defs
     id="defs5250">
    <inkscape:perspective
       sodipodi:type="inkscape:persp3d"
       inkscape:vp_x="0 : 75 : 1"
       inkscape:vp_y="0 : 1000 : 0"
       inkscape:vp_z="150 : 75 : 1"
       inkscape:persp3d-origin="75 : 50 : 1"
       id="perspective5044" />
  </defs>
  <sodipodi:namedview
     id="base"
     pagecolor="#ffffff"
     bordercolor="#666666"
     borderopacity="1.0"
     inkscape:pageopacity="0.0"
     inkscape:pageshadow="2"
     inkscape:zoom="3.959798"
     inkscape:cx="17.856804"
     inkscape:cy="60.897794"
     inkscape:document-units="px"
     inkscape:current-layer="layer1"
     showgrid="false"
     inkscape:pagecheckerboard="true"
     units="px"
     inkscape:window-width="2880"
     inkscape:window-height="1526"
     inkscape:window-x="-11"
     inkscape:window-y="1609"
     inkscape:window-maximized="1"
     inkscape:snap-global="false">
    <sodipodi:guide
       position="135.62899,39.97733"
       orientation="35.02264,-60.62899"
       id="guide4518"
       inkscape:locked="false" />
    <sodipodi:guide
       position="75,4.95469"
       orientation="-35.02264,-60.628989"
       id="guide4520"
       inkscape:locked="false" />
    <sodipodi:guide
       position="14.371011,39.97733"
       orientation="-70.045324,0"
       id="guide4522"
       inkscape:locked="false" />
    <sodipodi:guide
       position="14.371011,110.02265"
       orientation="-35.022659,60.628989"
       id="guide4524"
       inkscape:locked="false" />
    <sodipodi:guide
       position="75,145.04531"
       orientation="35.022659,60.62899"
       id="guide4526"
       inkscape:locked="false" />
    <sodipodi:guide
       position="135.62899,110.02265"
       orientation="70.045324,0"
       id="guide4528"
       inkscape:locked="false" />
  </sodipodi:namedview>
  <metadata
     id="metadata5253">
    <rdf:RDF>
      <cc:Work
         rdf:about="">
        <dc:format>image/svg+xml</dc:format>
        <dc:type
           rdf:resource="http://purl.org/dc/dcmitype/StillImage" />
        <dc:title></dc:title>
      </cc:Work>
    </rdf:RDF>
  </metadata>
  <g
     inkscape:label="Layer 1"
     inkscape:groupmode="layer"
     id="layer1">
    <path
       id="path823"
       d="M 135.99955,110.03974 75.039999,144.99948 14.00045,110.03974 V 39.960261 L 75.039999,5.0005195 135.99955,40.04026 Z"
       style="fill:#000000;fill-opacity:1;fill-rule:nonzero;stroke:none"
       inkscape:connector-curvature="0" />
    <path
       inkscape:connector-curvature="0"
       d="m 77.596309,83.103256 c 0.35628,3.68137 0.61625,7.35542 0.47111,11.10068 l -8.14618,8.146204 c 2.35879,-8.495324 3.12189,-18.090214 -1.29685,-28.142794 l 0.0684,-0.009 z m -10.3155,-6.41364 c 4.02653,10.43957 2.30603,20.27736 -0.6854,28.986344 l -5.64447,5.64447 c -1.0494,-0.89304 -2.12751,-1.65837 -3.24782,-2.29854 1.05324,-0.21385 2.06753,-0.51422 2.91625,-0.95742 1.18718,-0.62006 2.20461,-1.74826 3.05243,-2.74271 0.84774,-0.99442 1.46648,-1.8693 1.46648,-1.8693 l -1.80911,-1.27969 c 0,0 -0.56835,0.80019 -1.34522,1.71152 -0.77725,0.91116 -1.82278,1.9196 -2.39045,2.21585 -1.04845,0.54765 -3.27781,0.96171 -5.15352,1.14591 -0.25558,0.0258 -0.51177,0.0465 -0.76783,0.0663 -1.00973,-0.29173 -2.05655,-0.50227 -3.15178,-0.63313 -5.28342,-0.6306 -11.57579,0.48179 -20.04516,2.74104 -2.0159,-0.88356 -4.42635,-2.71143 -6.51548,-4.70401 0.20911,-0.0387 0.41608,-0.0938 0.6171,-0.16307 1.2213,-0.42512 2.2945,-1.54849 2.41012,-3.05535 0.10972,-1.42668 0.0572,-3.186814 -0.54602,-4.786124 -0.26377,-0.69958 -0.67154,-1.37616 -1.22186,-1.93749 l -0.0172,-0.0172 7.03667,-3.86063 c 1.13284,-0.43733 1.9708,-1.23472 2.54268,-2.13685 0.58759,-0.92711 0.93878,-1.95909 1.2408,-2.98801 0.6026,-2.05505 1.05052,-4.10382 2.0433,-5.34358 2.09472,-2.53894 5.25007,-3.02334 8.55124,-4.33229 l 0.31281,-0.12393 0.18846,-0.27623 c 2.90231,-4.19865 3.60228,-9.42549 4.24391,-14.75877 4.74433,3.88274 8.33917,11.013 11.19355,16.33226 l 0.46509,0.8624 0.9115,-0.35368 c 1.15813,-0.44676 2.27475,-0.80686 3.35151,-1.08567 z m -35.04512,14.20398 c -0.0344,0.009 -0.0628,0.0258 -0.0968,0.0344 l 0.15533,-0.0701 z m 15.56326,-29.4346 c 0.38467,0.38338 0.75612,0.78048 1.1062,1.1963 -0.59482,4.38238 -1.39668,8.37178 -3.44274,11.49168 -0.22202,0.0834 -0.44843,0.16437 -0.67756,0.24354 0.73982,-5.07 1.07484,-10.41229 -0.76778,-16.02062 1.49418,1.02011 2.74203,2.05312 3.78201,3.08897 z m -24.27346,34.47552 c -3.74113,2.66217 -2.23882,4.535734 -0.73298,6.614624 -0.98877,-0.56531 -3.82133,-2.739624 -3.37359,-4.582254 0.36058,-1.48424 2.8712,-1.88439 4.10657,-2.03237 z m 20.69733,-12.55898 c -1.69209,0.67347 -3.07599,1.86869 -4.45719,3.09549 1.0951,1.34531 2.18508,1.42603 3.53646,1.18034 1.55169,-1.15826 2.38914,-2.87299 2.42116,-4.70658 -0.5286,0.0964 -1.02708,0.24224 -1.50064,0.43078 z"
       style="display:inline;opacity:1;vector-effect:none;fill:#ffffff;fill-opacity:1;stroke:none;stroke-width:0.75896198;stroke-linecap:butt;stroke-linejoin:miter;stroke-miterlimit:4;stroke-dasharray:none;stroke-dashoffset:0;stroke-opacity:1"
       id="path25834" />
    <path
       id="path825"
       style="display:inline;opacity:1;vector-effect:none;fill:#ffffff;fill-opacity:1;stroke:none;stroke-width:0.75896198;stroke-linecap:butt;stroke-linejoin:miter;stroke-miterlimit:4;stroke-dasharray:none;stroke-dashoffset:0;stroke-opacity:1"
       d="m 120.27525,43.959845 c 0.35628,3.68137 0.61625,7.35542 0.47111,11.10068 l -8.14618,8.146204 c 2.35879,-8.495324 3.12189,-18.090214 -1.29685,-28.142794 l 0.0684,-0.009 z m -10.3155,-6.41364 c 4.02653,10.43957 2.30603,20.27736 -0.6854,28.986344 l -5.64447,5.64447 c -1.0494,-0.89304 -2.12751,-1.65837 -3.24782,-2.29854 1.05324,-0.21385 2.06753,-0.51422 2.91625,-0.95742 1.18718,-0.62006 2.20461,-1.74826 3.05243,-2.74271 0.84774,-0.99442 1.46648,-1.8693 1.46648,-1.8693 l -1.80911,-1.27969 c 0,0 -0.56835,0.80019 -1.34522,1.71152 -0.77725,0.91116 -1.82278,1.9196 -2.39045,2.21585 -1.04845,0.54765 -3.277806,0.96171 -5.153516,1.14591 -0.25558,0.0258 -0.51177,0.0465 -0.76783,0.0663 -1.00973,-0.29173 -2.05655,-0.50227 -3.15178,-0.63313 -5.28342,-0.6306 -11.57579,0.48179 -20.04516,2.74104 -2.0159,-0.88356 -4.42635,-2.71143 -6.51548,-4.70401 0.20911,-0.0387 0.41608,-0.0938 0.6171,-0.16307 1.2213,-0.42512 2.2945,-1.54849 2.41012,-3.05535 0.10972,-1.42668 0.0572,-3.186814 -0.54602,-4.786124 -0.26377,-0.69958 -0.67154,-1.37616 -1.22186,-1.93749 l -0.0172,-0.0172 7.03667,-3.86063 c 1.13284,-0.43733 1.9708,-1.23472 2.54268,-2.13685 0.58759,-0.92711 0.93878,-1.95909 1.2408,-2.98801 0.6026,-2.05505 1.05052,-4.10382 2.0433,-5.34358 2.09472,-2.53894 5.25007,-3.02334 8.55124,-4.33229 l 0.31281,-0.12393 0.18846,-0.27623 c 2.90231,-4.19865 3.60228,-9.42549 4.24391,-14.75877 4.74433,3.88274 8.339166,11.013 11.193546,16.33226 l 0.46509,0.8624 0.9115,-0.35368 c 1.15813,-0.44676 2.27475,-0.80686 3.35151,-1.08567 z m -35.045116,14.20398 c -0.0344,0.009 -0.0628,0.0258 -0.0968,0.0344 l 0.15533,-0.0701 z m 15.56326,-29.4346 c 0.38467,0.38338 0.75612,0.78048 1.1062,1.1963 -0.59482,4.38238 -1.39668,8.37178 -3.44274,11.49168 -0.22202,0.0834 -0.44843,0.16437 -0.67756,0.24354 0.73982,-5.07 1.07484,-10.41229 -0.76778,-16.02062 1.49418,1.02011 2.74203,2.05312 3.78201,3.08897 z m -24.27346,34.47552 c -3.74113,2.66217 -2.23882,4.535734 -0.73298,6.614624 -0.98877,-0.56531 -3.82133,-2.739624 -3.37359,-4.582254 0.36058,-1.48424 2.8712,-1.88439 4.10657,-2.03237 z m 20.69733,-12.55898 c -1.69209,0.67347 -3.07599,1.86869 -4.45719,3.09549 1.0951,1.34531 2.18508,1.42603 3.53646,1.18034 1.55169,-1.15826 2.38914,-2.87299 2.42116,-4.70658 -0.5286,0.0964 -1.02708,0.24224 -1.50064,0.43078 z"
       inkscape:connector-curvature="0" />
  </g>
</svg>
