<?xml version="1.0" encoding="UTF-8" standalone="no"?>
<svg
   xmlns:dc="http://purl.org/dc/elements/1.1/"
   xmlns:cc="http://creativecommons.org/ns#"
   xmlns:rdf="http://www.w3.org/1999/02/22-rdf-syntax-ns#"
   xmlns:svg="http://www.w3.org/2000/svg"
   xmlns="http://www.w3.org/2000/svg"
   xmlns:sodipodi="http://sodipodi.sourceforge.net/DTD/sodipodi-0.dtd"
   xmlns:inkscape="http://www.inkscape.org/namespaces/inkscape"
   sodipodi:docname="security-lock-2x.svg"
   inkscape:version="1.0 (4035a4fb49, 2020-05-01)"
   id="svg5256"
   version="1.1"
   viewBox="0 0 150 150"
   height="150"
   width="150">
  <defs
     id="defs5250">
    <inkscape:perspective
       id="perspective5044"
       inkscape:persp3d-origin="75 : 50 : 1"
       inkscape:vp_z="150 : 75 : 1"
       inkscape:vp_y="0 : 1000 : 0"
       inkscape:vp_x="0 : 75 : 1"
       sodipodi:type="inkscape:persp3d" />
    <pattern
       id="EMFhbasepattern"
       patternUnits="userSpaceOnUse"
       width="6"
       height="6"
       x="0"
       y="0" />
  </defs>
  <sodipodi:namedview
     inkscape:document-rotation="0"
     inkscape:window-maximized="1"
     inkscape:window-y="-8"
     inkscape:window-x="-8"
     inkscape:window-height="1017"
     inkscape:window-width="1920"
     units="px"
     inkscape:pagecheckerboard="true"
     showgrid="false"
     inkscape:current-layer="layer1"
     inkscape:document-units="px"
     inkscape:cy="61.106818"
     inkscape:cx="157.82247"
     inkscape:zoom="2.8"
     inkscape:pageshadow="2"
     inkscape:pageopacity="0.0"
     borderopacity="1.0"
     bordercolor="#666666"
     pagecolor="#ffffff"
     id="base">
    <sodipodi:guide
       inkscape:locked="false"
       id="guide4518"
       orientation="35.02264,-60.62899"
       position="135.62899,39.97733" />
    <sodipodi:guide
       inkscape:locked="false"
       id="guide4520"
       orientation="-35.02264,-60.628989"
       position="75,4.95469" />
    <sodipodi:guide
       inkscape:locked="false"
       id="guide4522"
       orientation="-70.045324,0"
       position="14.371011,39.97733" />
    <sodipodi:guide
       inkscape:locked="false"
       id="guide4524"
       orientation="-35.022659,60.628989"
       position="14.371011,110.02265" />
    <sodipodi:guide
       inkscape:locked="false"
       id="guide4526"
       orientation="35.022659,60.62899"
       position="75,145.04531" />
    <sodipodi:guide
       inkscape:locked="false"
       id="guide4528"
       orientation="70.045324,0"
       position="135.62899,110.02265" />
  </sodipodi:namedview>
  <metadata
     id="metadata5253">
    <rdf:RDF>
      <cc:Work
         rdf:about="">
        <dc:format>image/svg+xml</dc:format>
        <dc:type
           rdf:resource="http://purl.org/dc/dcmitype/StillImage" />
        <dc:title />
      </cc:Work>
    </rdf:RDF>
  </metadata>
  <g
     id="layer1"
     inkscape:groupmode="layer"
     inkscape:label="Layer 1">
    <path
       inkscape:connector-curvature="0"
       style="fill:#000000;fill-opacity:1;fill-rule:nonzero;stroke:none"
       d="M 135.99955,110.03974 75.039998,144.99948 14.000449,110.03974 V 39.960262 L 75.039998,5.0005205 135.99955,40.040261 Z"
       id="path823" />
    <path
       d="m 75.001448,43.345158 c -3.866876,0 -6.990693,0.466779 -9.366414,1.401915 -2.350442,0.909832 -4.180232,2.188472 -5.49447,3.831322 -1.288944,1.617509 -2.150682,3.537396 -2.580325,5.761494 -0.429687,2.22407 -0.644368,4.626159 -0.644368,7.204047 v 6.138823 c -0.70766,0 -1.376697,0.140123 -2.008537,0.417962 -0.63184,0.277918 -1.20122,0.657602 -1.706684,1.137787 -0.480199,0.454961 -0.872215,0.996475 -1.17551,1.628311 -0.277845,0.606611 -0.415067,1.253627 -0.415067,1.935978 v 28.546253 c 0,0.73294 0.137225,1.41438 0.415067,2.04627 0.278016,0.63184 0.657594,1.18876 1.137779,1.66895 0.480199,0.50527 1.037096,0.8973 1.668951,1.17551 0.657119,0.27784 1.351063,0.41506 2.084001,0.41506 h 36.281452 c 0.707675,0 1.376697,-0.13722 2.008552,-0.41506 0.631841,-0.27806 1.188751,-0.67009 1.668937,-1.17551 0.4802,-0.48019 0.847305,-1.03711 1.100065,-1.66895 0.27784,-0.63189 0.41505,-1.31333 0.41505,-2.04627 V 72.802796 c 0,-0.68235 -0.14949,-1.329367 -0.452781,-1.935978 -0.27804,-0.631836 -0.670067,-1.17335 -1.175529,-1.628311 -0.4802,-0.480264 -1.049566,-0.859948 -1.706684,-1.137787 -0.657118,-0.277837 -1.338609,-0.417962 -2.046269,-0.417962 v -6.138822 c 0,-2.577888 -0.214725,-4.979976 -0.644353,-7.204047 -0.404409,-2.224099 -1.250737,-4.143985 -2.53971,-5.761494 -1.263681,-1.64285 -3.083916,-2.921488 -5.459637,-3.831322 -2.350442,-0.935136 -5.471361,-1.401915 -9.363516,-1.401915 z m -0.003,7.848404 c 2.476819,0 4.412078,0.177313 5.802135,0.531161 1.390058,0.353817 2.413735,0.932742 3.070853,1.74151 0.682367,0.808729 1.099334,1.885106 1.250989,3.224696 0.151656,1.314197 0.226391,2.932238 0.226391,4.853007 v 5.950159 H 64.65108 v -5.950159 c 0,-1.920769 0.07475,-3.538809 0.226391,-4.853006 0.176934,-1.33959 0.606354,-2.415968 1.288721,-3.224696 0.682397,-0.808729 1.706074,-1.387654 3.070868,-1.74151 1.390057,-0.353848 3.309935,-0.531161 5.761491,-0.531161 z M 66.04426,76.43965 c 4.250614,0 6.907993,2.125297 6.907993,5.36385 0,3.860347 -3.93647,5.751423 -7.639431,8.394078 h 7.848405 v 4.379897 H 58.297473 v -1.245179 c 0,-1.943141 1.044542,-3.316671 2.504876,-4.612099 4.068063,-3.601258 6.989252,-5.049785 6.989252,-6.733838 0,-0.984525 -0.652927,-1.892442 -2.243636,-1.892442 -1.616805,0 -2.531002,1.036155 -2.531002,2.435212 v 0.519551 h -4.641129 c -0.02608,-0.207274 -0.02613,-0.390429 -0.02613,-0.571796 0,-3.653073 2.557365,-6.037234 7.694579,-6.037234 z m 9.021018,4.458265 h 6.101091 l 2.191401,3.625243 h 0.104487 l 2.1914,-3.625243 h 5.73538 l -4.850102,6.553882 5.163563,7.125678 h -6.048841 l -2.609363,-4.301529 h -0.104487 l -2.632575,4.301529 h -5.764404 l 5.29419,-7.256291 z"
       style="font-style:normal;font-weight:normal;font-size:medium;line-height:125%;font-family:sans-serif;font-variation-settings:normal;letter-spacing:0px;word-spacing:0px;display:inline;opacity:1;vector-effect:none;fill:#ffffff;fill-opacity:1;stroke:none;stroke-width:0.65552;stroke-linecap:round;stroke-linejoin:round;stroke-miterlimit:4;stroke-dasharray:none;stroke-dashoffset:0;stroke-opacity:1;stop-color:#000000;stop-opacity:1"
       id="path4889" />
    <g
       style="font-style:normal;font-variant:normal;font-weight:normal;font-stretch:normal;font-size:17.4907px;line-height:1.25;font-family:'Archivo Black';-inkscape-font-specification:'Archivo Black, ';font-variation-settings:normal;letter-spacing:0px;word-spacing:0px;display:inline;opacity:1;vector-effect:none;fill:#ff0000;fill-opacity:1;stroke:none;stroke-width:0.655519;stroke-linecap:round;stroke-linejoin:round;stroke-miterlimit:4;stroke-dasharray:none;stroke-dashoffset:0;stroke-opacity:1;stop-color:#000000;stop-opacity:1"
       id="text359"
       transform="matrix(1.0032545,0,0,0.99675605,-0.53905812,-118.16309)"
       aria-label="2x" />
  </g>
</svg>
