<?xml version="1.0" encoding="UTF-8" standalone="no"?>
<svg
   xmlns:dc="http://purl.org/dc/elements/1.1/"
   xmlns:cc="http://creativecommons.org/ns#"
   xmlns:rdf="http://www.w3.org/1999/02/22-rdf-syntax-ns#"
   xmlns:svg="http://www.w3.org/2000/svg"
   xmlns="http://www.w3.org/2000/svg"
   xmlns:sodipodi="http://sodipodi.sourceforge.net/DTD/sodipodi-0.dtd"
   xmlns:inkscape="http://www.inkscape.org/namespaces/inkscape"
   width="150"
   height="150"
   viewBox="0 0 150 150"
   version="1.1"
   id="svg5256"
   inkscape:version="1.0 (4035a4fb49, 2020-05-01)"
   sodipodi:docname="security-guard-2k.svg">
  <defs
     id="defs5250">
    <inkscape:perspective
       sodipodi:type="inkscape:persp3d"
       inkscape:vp_x="0 : 75 : 1"
       inkscape:vp_y="0 : 1000 : 0"
       inkscape:vp_z="150 : 75 : 1"
       inkscape:persp3d-origin="75 : 50 : 1"
       id="perspective5044" />
  </defs>
  <sodipodi:namedview
     id="base"
     pagecolor="#ffffff"
     bordercolor="#666666"
     borderopacity="1.0"
     inkscape:pageopacity="0.0"
     inkscape:pageshadow="2"
     inkscape:zoom="3.959798"
     inkscape:cx="60.030672"
     inkscape:cy="60.897794"
     inkscape:document-units="px"
     inkscape:current-layer="layer1"
     showgrid="false"
     inkscape:pagecheckerboard="true"
     units="px"
     inkscape:window-width="3840"
     inkscape:window-height="2066"
     inkscape:window-x="2869"
     inkscape:window-y="-11"
     inkscape:window-maximized="1"
     inkscape:snap-global="false"
     inkscape:document-rotation="0">
    <sodipodi:guide
       position="135.62899,39.97733"
       orientation="35.02264,-60.62899"
       id="guide4518"
       inkscape:locked="false" />
    <sodipodi:guide
       position="75,4.95469"
       orientation="-35.02264,-60.628989"
       id="guide4520"
       inkscape:locked="false" />
    <sodipodi:guide
       position="14.371011,39.97733"
       orientation="-70.045324,0"
       id="guide4522"
       inkscape:locked="false" />
    <sodipodi:guide
       position="14.371011,110.02265"
       orientation="-35.022659,60.628989"
       id="guide4524"
       inkscape:locked="false" />
    <sodipodi:guide
       position="75,145.04531"
       orientation="35.022659,60.62899"
       id="guide4526"
       inkscape:locked="false" />
    <sodipodi:guide
       position="135.62899,110.02265"
       orientation="70.045324,0"
       id="guide4528"
       inkscape:locked="false" />
  </sodipodi:namedview>
  <metadata
     id="metadata5253">
    <rdf:RDF>
      <cc:Work
         rdf:about="">
        <dc:format>image/svg+xml</dc:format>
        <dc:type
           rdf:resource="http://purl.org/dc/dcmitype/StillImage" />
        <dc:title />
      </cc:Work>
    </rdf:RDF>
  </metadata>
  <g
     inkscape:label="Layer 1"
     inkscape:groupmode="layer"
     id="layer1">
    <path
       id="path823"
       d="M 135.99955,110.03974 75.039999,144.99948 14.00045,110.03974 V 39.960261 L 75.039999,5.0005195 135.99955,40.04026 Z"
       style="fill:#000000;fill-opacity:1;fill-rule:nonzero;stroke:none"
       inkscape:connector-curvature="0" />
    <path
       id="path7011"
       d="m 48.234821,37.509951 c 2.225848,0 3.702971,1.111 5.68441,2.211644 1.877836,1.043324 4.238624,1.938029 7.567856,1.258203 1.579909,1.579224 3.185069,3.158773 4.896855,4.228715 1.40079,0.875491 2.974879,1.39687 4.544924,1.150521 -0.450467,3.544317 -2.602724,7.011332 -4.852717,8.826189 -5.933462,-1.966348 -11.881771,-2.949965 -17.830079,-2.949965 -5.95381,0 -11.907502,0.985437 -17.846381,2.955304 -2.252337,-1.813238 -4.408199,-5.283692 -4.85899,-8.831528 1.569724,0.246754 3.144136,-0.27507 4.54497,-1.150399 1.711739,-1.069942 3.316697,-2.649411 4.896803,-4.228635 3.328919,0.679747 5.690029,-0.215202 7.567864,-1.258203 1.981643,-1.10117 3.458648,-2.211846 5.684485,-2.211846 z m 0.01209,2.070953 c -2.10024,0 -5.635616,2.838237 -5.635616,2.838237 0,0 2.24918,8.514994 5.635616,8.514994 3.386683,0 5.635862,-8.514994 5.635862,-8.514994 0,0 -3.535622,-2.838237 -5.635862,-2.838237 z m 0,14.554926 c 5.595374,0 11.191143,0.914769 16.80027,2.727683 0.230975,1.427735 -0.160191,2.488656 -1.00142,3.469765 -0.939121,1.095184 -2.51543,2.024799 -4.383848,2.724973 -3.737305,1.401118 -8.583601,1.896932 -11.415077,1.896932 -2.8314,0 -7.677493,-0.495814 -11.414638,-1.896851 -1.868664,-0.700134 -3.444766,-1.629667 -4.38385,-2.725054 -0.841592,-0.981109 -1.232918,-2.041788 -1.00162,-3.469644 5.609126,-1.813035 11.204778,-2.727804 16.800108,-2.727804 z m 18.360797,6.057123 c 1.04086,0.252416 2.854583,0.824036 3.180421,1.801303 0.890534,2.670606 -1.793409,6.761747 -3.823149,9.343198 0.559206,-2.332351 0.860652,-4.81324 0.860652,-7.38567 0,-1.277943 -0.07479,-2.533152 -0.21804,-3.758831 z m -36.721115,0 a 32.420975,32.420975 0 0 0 -0.218026,3.75871 c 0,2.57243 0.301358,5.053319 0.860686,7.38567 -2.029773,-2.581451 -4.713817,-6.672592 -3.823153,-9.343198 0.325632,-0.977267 2.139562,-1.548845 3.18029,-1.801264 z m 34.980693,2.031998 c 0.03236,0.570043 0.05052,1.145424 0.05052,1.726632 0,6.293197 -1.921637,11.972704 -4.971356,16.037268 -3.049599,4.064443 -7.176015,6.49873 -11.699461,6.49873 -4.523126,0 -8.649617,-2.434287 -11.699129,-6.49873 -3.049598,-4.064565 -4.971037,-9.743951 -4.971037,-16.037188 0,-0.58141 0.01616,-1.156791 0.0502,-1.726834 0.869141,0.81162 1.930793,1.469885 3.098702,2.017033 -0.452567,1.92913 0.02836,4.32863 1.282311,5.582261 2.307885,2.306747 7.48357,2.306747 9.791561,0 0.714818,-0.714776 1.021442,-1.853567 0.980954,-2.99624 0.522991,0.02428 1.017556,0.03237 1.466645,0.03237 0.449175,0 0.943858,-0.01213 1.466934,-0.03237 -0.04046,1.142553 0.266168,2.281464 0.981072,2.99624 2.307958,2.306747 7.483483,2.306747 9.791357,0 1.254122,-1.253631 1.734876,-3.652767 1.282312,-5.581776 1.16804,-0.547187 2.229851,-1.205898 3.09879,-2.017396 z M 48.246958,74.717822 c -2.447802,3.914893 -7.343363,4.404195 -9.791154,4.404195 2.447673,1.957648 9.791036,1.957648 9.791036,0 0,1.957648 7.343716,1.957648 9.791593,0 -2.447877,0 -7.343673,-0.489302 -9.791593,-4.404195 z"
       style="display:inline;opacity:1;vector-effect:none;fill:#ffffff;fill-opacity:1;stroke:none;stroke-width:0.655519;stroke-linecap:round;stroke-linejoin:round;stroke-miterlimit:4;stroke-dasharray:none;stroke-dashoffset:0;stroke-opacity:1"
       inkscape:connector-curvature="0" />
    <g
       style="font-style:normal;font-variant:normal;font-weight:normal;font-stretch:normal;font-size:35.55px;line-height:1.25;font-family:'Archivo Narrow';-inkscape-font-specification:'Archivo Narrow';font-variation-settings:normal;letter-spacing:0px;word-spacing:0px;opacity:1;vector-effect:none;fill:#ffffff;fill-opacity:1;stroke:none;stroke-width:0.655518;stroke-linecap:round;stroke-linejoin:round;stroke-miterlimit:4;stroke-dasharray:none;stroke-dashoffset:0;stroke-opacity:1;stop-color:#000000;stop-opacity:1"
       id="text25"
       aria-label="$2k">
      <path
         id="path18"
         style="stroke-width:0.655518"
         d="m 81.977142,81.232028 h -1.74195 v 3.80385 c -3.02175,0.39105 -4.87035,2.31075 -4.87035,5.261399 0,3.4839 2.4885,4.4793 4.87035,5.29695 v 6.363453 c -1.38645,-0.31995 -2.3463,-1.3509 -2.3463,-3.341703 v -0.3555 h -2.9151 c 0,0.0711 -0.03555,0.2844 -0.03555,0.7821 0,2.595153 1.4931,5.119203 5.29695,5.439153 v 4.1949 h 1.74195 v -4.1949 c 3.09285,-0.24885 5.29695,-2.02635 5.29695,-5.723553 0,-3.80385 -2.80845,-4.79925 -5.29695,-5.6169 v -5.616899 c 1.52865,0.3555 2.02635,1.6353 2.02635,2.915099 v 0.31995 h 2.87955 c 0,-0.0711 0.03555,-0.4266 0.03555,-0.67545 0,-2.595149 -1.74195,-4.834799 -4.94145,-5.083649 z m 0,15.002099 c 1.3509,0.60435 2.38185,1.38645 2.38185,2.95065 0,1.670853 -1.03095,2.595153 -2.38185,2.808453 z m -1.74195,-3.7683 c -1.1376,-0.4977 -1.95525,-1.1376 -1.95525,-2.38185 0,-0.924299 0.3555,-2.239649 1.95525,-2.559599 z" />
      <path
         id="path20"
         style="stroke-width:0.655518"
         d="m 97.408618,82.120778 c -3.519449,0 -6.576749,2.16855 -6.576749,7.394399 0,0.8532 0.10665,1.422 0.10665,1.422 h 3.02175 v -1.45755 c 0,-2.524049 0.888749,-4.657049 3.412799,-4.657049 2.59515,0 3.306152,1.95525 3.306152,3.59055 0,4.976999 -5.439152,8.496449 -8.354251,12.762452 -1.10205,1.59975 -1.7064,3.37725 -1.7064,5.29695 v 0.46215 h 13.260151 v -2.9862 h -9.669602 c 0.1422,-0.39105 0.3555,-0.81765 0.6399,-1.24425 2.73735,-4.194903 8.923052,-8.140953 8.923052,-14.255552 0,-4.4793 -2.844,-6.3279 -6.363452,-6.3279 z" />
      <path
         id="path22"
         style="stroke-width:0.655518"
         d="m 110.45824,81.232028 h -2.9151 v 25.702652 h 2.9151 v -6.36345 l 1.9908,-2.168553 4.266,8.532003 h 3.30615 l -5.79465,-11.020503 5.51025,-7.678799 h -3.23505 l -6.0435,8.674199 z" />
    </g>
  </g>
</svg>
