<?xml version="1.0" encoding="UTF-8" standalone="no"?>
<svg
   xmlns:dc="http://purl.org/dc/elements/1.1/"
   xmlns:cc="http://creativecommons.org/ns#"
   xmlns:rdf="http://www.w3.org/1999/02/22-rdf-syntax-ns#"
   xmlns:svg="http://www.w3.org/2000/svg"
   xmlns="http://www.w3.org/2000/svg"
   xmlns:sodipodi="http://sodipodi.sourceforge.net/DTD/sodipodi-0.dtd"
   xmlns:inkscape="http://www.inkscape.org/namespaces/inkscape"
   sodipodi:docname="security-camera-2x.svg"
   inkscape:version="1.0 (4035a4fb49, 2020-05-01)"
   id="svg5256"
   version="1.1"
   viewBox="0 0 150 150"
   height="150"
   width="150">
  <defs
     id="defs5250">
    <inkscape:perspective
       id="perspective5044"
       inkscape:persp3d-origin="75 : 50 : 1"
       inkscape:vp_z="150 : 75 : 1"
       inkscape:vp_y="0 : 1000 : 0"
       inkscape:vp_x="0 : 75 : 1"
       sodipodi:type="inkscape:persp3d" />
    <pattern
       id="EMFhbasepattern"
       patternUnits="userSpaceOnUse"
       width="6"
       height="6"
       x="0"
       y="0" />
  </defs>
  <sodipodi:namedview
     inkscape:document-rotation="0"
     inkscape:window-maximized="1"
     inkscape:window-y="-8"
     inkscape:window-x="-8"
     inkscape:window-height="1017"
     inkscape:window-width="1920"
     units="px"
     inkscape:pagecheckerboard="true"
     showgrid="false"
     inkscape:current-layer="layer1"
     inkscape:document-units="px"
     inkscape:cy="102.87589"
     inkscape:cx="123.60807"
     inkscape:zoom="5.6"
     inkscape:pageshadow="2"
     inkscape:pageopacity="0.0"
     borderopacity="1.0"
     bordercolor="#666666"
     pagecolor="#ffffff"
     id="base">
    <sodipodi:guide
       inkscape:locked="false"
       id="guide4518"
       orientation="35.02264,-60.62899"
       position="135.62899,39.97733" />
    <sodipodi:guide
       inkscape:locked="false"
       id="guide4520"
       orientation="-35.02264,-60.628989"
       position="75,4.95469" />
    <sodipodi:guide
       inkscape:locked="false"
       id="guide4522"
       orientation="-70.045324,0"
       position="14.371011,39.97733" />
    <sodipodi:guide
       inkscape:locked="false"
       id="guide4526"
       orientation="35.022659,60.62899"
       position="75,145.04531" />
    <sodipodi:guide
       inkscape:locked="false"
       id="guide4528"
       orientation="70.045324,0"
       position="135.62899,110.02265" />
  </sodipodi:namedview>
  <metadata
     id="metadata5253">
    <rdf:RDF>
      <cc:Work
         rdf:about="">
        <dc:format>image/svg+xml</dc:format>
        <dc:type
           rdf:resource="http://purl.org/dc/dcmitype/StillImage" />
        <dc:title />
      </cc:Work>
    </rdf:RDF>
  </metadata>
  <g
     id="layer1"
     inkscape:groupmode="layer"
     inkscape:label="Layer 1">
    <path
       inkscape:connector-curvature="0"
       style="fill:#000000;fill-opacity:1;fill-rule:nonzero;stroke:none"
       d="M 135.99955,110.03974 75.039997,144.99948 14.000448,110.03974 V 39.960262 L 75.039997,5.000521 135.99955,40.040261 Z"
       id="path823" />
    <path
       inkscape:connector-curvature="0"
       style="font-variation-settings:normal;display:inline;vector-effect:none;fill:#ffffff;fill-opacity:1;stroke:none;stroke-width:0.655519;stroke-linecap:round;stroke-linejoin:round;stroke-miterlimit:4;stroke-dasharray:none;stroke-dashoffset:0;stroke-opacity:1;stop-color:#000000"
       d="m 54.390259,43.822334 c -2.035013,-7.37e-4 -4.176347,0.294177 -6.429464,0.951899 a 1.3045083,1.3045083 0 0 0 -0.02101,0.02099 1.3045083,1.3045083 0 0 0 -0.06828,0.02099 1.3045083,1.3045083 0 0 0 -0.05411,0.02099 1.3045083,1.3045083 0 0 0 -0.06461,0.03155 1.3045083,1.3045083 0 0 0 -0.05254,0.02627 1.3045083,1.3045083 0 0 0 -0.06356,0.03683 1.3045083,1.3045083 0 0 0 -0.04728,0.03155 1.3045083,1.3045083 0 0 0 -0.05936,0.04197 1.3045083,1.3045083 0 0 0 -0.04203,0.03683 1.3045083,1.3045083 0 0 0 -0.05464,0.04725 1.3045083,1.3045083 0 0 0 -0.04203,0.03683 1.3045083,1.3045083 0 0 0 -0.05254,0.05462 1.3045083,1.3045083 0 0 0 -0.03677,0.04197 1.3045083,1.3045083 0 0 0 -0.04728,0.06199 1.3045083,1.3045083 0 0 0 -0.03152,0.04197 1.3045083,1.3045083 0 0 0 -0.03678,0.06518 1.3045083,1.3045083 0 0 0 -0.02627,0.04725 1.3045083,1.3045083 0 0 0 -0.03152,0.0688 1.3045083,1.3045083 0 0 0 -0.02102,0.05254 1.3045083,1.3045083 0 0 0 -0.02627,0.0688 1.3045083,1.3045083 0 0 0 -0.01576,0.05309 1.3045083,1.3045083 0 0 0 -0.02101,0.09562 L 43.969809,61.1524 a 1.3045083,1.3045083 0 0 0 0.772402,1.45739 l 11.26317,4.748084 4.34192,22.26364 -16.00206,3.475851 a 1.3045083,1.3045083 0 0 0 -1.02985,1.257097 l -0.146034,10.500808 a 1.3045083,1.3045083 0 0 0 1.699293,1.26119 l 20.11248,-6.428048 3.312491,-0.64228 c 0.02627,0 0.04728,0 0.0725,0 1.367147,0 2.654604,-0.651051 3.553761,-1.712735 0.898474,-1.060488 1.368512,-2.442867 1.367146,-3.866692 v 0 c 7.88e-4,-0.902573 -0.188583,-1.789955 -0.555505,-2.588983 l -3.470399,-17.929498 17.270869,7.280444 a 1.3045083,1.3045083 0 0 0 0.02102,0.02099 1.3045083,1.3045083 0 0 0 0.07459,0.02627 1.3045083,1.3045083 0 0 0 0.04728,0.02099 1.3045083,1.3045083 0 0 0 0.07459,0.02099 1.3045083,1.3045083 0 0 0 0.05726,0.02099 1.3045083,1.3045083 0 0 0 0.06618,0.02099 1.3045083,1.3045083 0 0 0 0.06619,0.02099 1.3045083,1.3045083 0 0 0 0.05883,0 1.3045083,1.3045083 0 0 0 0.07406,0 1.3045083,1.3045083 0 0 0 0.05252,0 l 11.453066,-0.725116 a 1.3045083,1.3045083 0 0 0 1.09441,-0.746659 l 6.937481,-14.686656 h 0.001 a 1.3045083,1.3045083 0 0 0 0.003,-0.02099 1.3045083,1.3045083 0 0 0 -0.75628,-1.80509 c -1.06877,-0.598862 -2.16938,-1.009439 -3.28905,-1.268731 L 60.291723,44.724601 a 1.3045083,1.3045083 0 0 0 -0.110312,-0.03683 c -1.828675,-0.528076 -3.757576,-0.825506 -5.792746,-0.826715 z m -3.6179,1.88452 a 1.3045083,1.3045083 0 0 1 0.506389,0.09882 L 91.203606,61.80737 a 1.3056069,1.3056069 0 0 1 0.79231,1.481615 1.3045083,1.3045083 0 0 0 -0.09718,0.200139 l -0.115038,0.284184 A 1.3056069,1.3056069 0 0 1 90.23338,64.231363 L 50.308677,48.225677 a 1.3045083,1.3045083 0 0 1 0.463839,-2.519226 z m 49.064344,17.626968 c 0.604197,0 1.201517,0.0688 1.794477,0.192259 l 2.02403,0.785435 -3.25029,6.881583 c 0.12502,-0.557235 0.18911,-1.11012 0.18333,-1.628105 -0.0158,-1.198793 -0.40395,-2.190303 -1.077232,-2.686232 -0.67354,-0.496415 -1.604949,-0.478027 -2.523228,0.03683 -0.226403,0.127172 -0.453859,0.283656 -0.673644,0.463309 0.08457,-0.112995 0.163368,-0.236387 0.231657,-0.369285 0.194361,-0.378208 0.308877,-0.817055 0.304674,-1.205506 -0.0043,-0.389257 -0.129743,-0.71982 -0.351951,-0.888438 -0.110841,-0.08506 -0.239011,-0.127172 -0.377691,-0.123975 -0.13868,0 -0.288915,0.04197 -0.433372,0.127172 -0.289441,0.16599 -0.560233,0.483267 -0.755225,0.862434 -0.19436,0.379792 -0.308876,0.816735 -0.304673,1.205881 0.0042,0.389243 0.129743,0.720029 0.351951,0.888646 0.222202,0.16809 0.521623,0.157068 0.810959,-0.02099 -0.469093,0.489048 -0.898841,1.084797 -1.248482,1.746521 -0.632724,1.196681 -0.992239,2.581214 -0.978371,3.780216 0.01576,1.199154 0.411835,2.194541 1.085637,2.69079 0.673383,0.496415 1.596178,0.473302 2.514245,-0.03683 0.57368,-0.320432 1.138378,-0.826395 1.63547,-1.453082 l -1.154821,2.444272 -8.616655,0.549257 5.115477,-12.686889 c 2.009588,-1.063421 3.882178,-1.580892 5.693571,-1.565507 z m -40.93107,5.237925 2.199012,0.927159 4.082684,19.163371 c -0.412886,-0.124949 -0.843526,-0.193844 -1.282835,-0.193844 -0.374014,0 -0.741513,0.05254 -1.096879,0.143406 L 58.905633,68.57233 Z m 5.129188,2.162561 2.336745,0.984936 3.158262,16.317347 c -0.375064,-0.103961 -0.764049,-0.159166 -1.159915,-0.159166 -0.225354,0 -0.448606,0.02099 -0.668025,0.04725 L 64.034978,70.72702 Z m 4.334934,19.761731 c 0.530501,0 1.133966,0.271578 1.575323,0.792886 0.441252,0.521099 0.746031,1.35807 0.744823,2.168704 0.0014,0.810912 -0.303624,1.647717 -0.744666,2.168913 -0.209594,0.247423 -0.455435,0.436526 -0.712411,0.568646 l -0.843528,0.162836 c 0.288915,-0.724074 0.43705,-1.51076 0.436525,-2.310428 v 0 c 5.25e-4,-0.518472 -0.06199,-1.031482 -0.184381,-1.525465 a 1.3045083,1.3045083 0 0 0 -0.02627,-0.308882 l -0.364558,-1.710594 c 0.04203,0 0.08038,-0.02099 0.119764,-0.02099 z m -4.465261,0.590606 c 0.530606,0 1.134281,0.271578 1.575743,0.79283 0.441252,0.521099 0.745611,1.358001 0.744508,2.168704 0.0011,0.811065 -0.303624,1.647912 -0.744666,2.168955 -0.441252,0.521099 -1.044979,0.793149 -1.57569,0.793149 -0.5305,0 -1.130551,-0.272092 -1.571856,-0.793149 -0.441251,-0.521099 -0.749498,-1.35789 -0.748394,-2.168955 -0.0011,-0.810703 0.306774,-1.647508 0.748394,-2.168704 0.441252,-0.521099 1.041407,-0.79283 1.571856,-0.79283 z m -4.736841,1.454179 c -0.119764,0.489063 -0.180703,0.995707 -0.180178,1.507355 v 0 c -0.0014,1.424186 0.468043,2.806413 1.366672,3.866998 0.115039,0.134539 0.236386,0.265268 0.363509,0.386617 L 45.80717,103.06736 45.914856,95.416062 59.16781,92.536988 Z"
       id="path4881-4" />
    <g
       style="font-style:normal;font-variant:normal;font-weight:normal;font-stretch:normal;font-size:24.3096px;line-height:1.25;font-family:'Archivo Black';-inkscape-font-specification:'Archivo Black, ';font-variation-settings:normal;letter-spacing:0px;word-spacing:0px;display:inline;vector-effect:none;fill:#ffffff;fill-opacity:1;stroke:none;stroke-width:0.655519;stroke-linecap:round;stroke-linejoin:round;stroke-miterlimit:4;stroke-dasharray:none;stroke-dashoffset:0;stroke-opacity:1;stop-color:#000000"
       id="text367"
       transform="scale(1.0032545,0.99675606)"
       aria-label="2x">
      <path
         id="path60"
         style="font-style:normal;font-variant:normal;font-weight:normal;font-stretch:normal;font-family:'Archivo Black';-inkscape-font-specification:'Archivo Black, ';font-variation-settings:normal;vector-effect:none;fill:#ffffff;fill-opacity:1;stroke:none;stroke-width:0.655519;stroke-linecap:round;stroke-linejoin:round;stroke-miterlimit:4;stroke-dasharray:none;stroke-dashoffset:0;stroke-opacity:1;stop-color:#000000;stop-opacity:1"
         d="m 82.564374,84.741626 c -4.788992,0 -7.171333,2.236483 -7.171333,5.664137 0,0.170167 0,0.340334 0.02431,0.534811 h 4.327109 v -0.486192 c 0,-1.312718 0.850836,-2.285102 2.358031,-2.285102 1.482886,0 2.090626,0.850836 2.090626,1.774601 0,1.580124 -2.722676,2.941461 -6.514973,6.320496 -1.361338,1.21548 -2.333722,2.503889 -2.333722,4.327113 v 1.16686 h 13.856473 v -4.108326 h -7.31719 c 3.451963,-2.479579 7.122713,-4.25418 7.122713,-7.876311 0,-3.0387 -2.47958,-5.032087 -6.442044,-5.032087 z" />
      <path
         id="path62"
         style="font-style:normal;font-variant:normal;font-weight:normal;font-stretch:normal;font-family:'Archivo Black';-inkscape-font-specification:'Archivo Black, ';font-variation-settings:normal;vector-effect:none;fill:#ffffff;fill-opacity:1;stroke:none;stroke-width:0.655519;stroke-linecap:round;stroke-linejoin:round;stroke-miterlimit:4;stroke-dasharray:none;stroke-dashoffset:0;stroke-opacity:1;stop-color:#000000;stop-opacity:1"
         d="m 101.67096,95.073206 4.52159,-6.150329 h -5.34812 l -2.042002,3.403344 h -0.09724 l -2.042006,-3.403344 h -5.688447 l 4.448657,6.028781 -4.934849,6.806692 h 5.372422 l 2.45527,-4.035397 h 0.09724 l 2.430956,4.035397 h 5.63983 z" />
    </g>
  </g>
</svg>
