<?xml version="1.0" encoding="UTF-8" standalone="no"?>
<svg
   xmlns:dc="http://purl.org/dc/elements/1.1/"
   xmlns:cc="http://creativecommons.org/ns#"
   xmlns:rdf="http://www.w3.org/1999/02/22-rdf-syntax-ns#"
   xmlns:svg="http://www.w3.org/2000/svg"
   xmlns="http://www.w3.org/2000/svg"
   xmlns:sodipodi="http://sodipodi.sourceforge.net/DTD/sodipodi-0.dtd"
   xmlns:inkscape="http://www.inkscape.org/namespaces/inkscape"
   sodipodi:docname="security-guard2x.svg"
   inkscape:version="1.0 (4035a4fb49, 2020-05-01)"
   id="svg5256"
   version="1.1"
   viewBox="0 0 150 150"
   height="150"
   width="150">
  <defs
     id="defs5250">
    <inkscape:perspective
       id="perspective5044"
       inkscape:persp3d-origin="75 : 50 : 1"
       inkscape:vp_z="150 : 75 : 1"
       inkscape:vp_y="0 : 1000 : 0"
       inkscape:vp_x="0 : 75 : 1"
       sodipodi:type="inkscape:persp3d" />
    <pattern
       id="EMFhbasepattern"
       patternUnits="userSpaceOnUse"
       width="6"
       height="6"
       x="0"
       y="0" />
  </defs>
  <sodipodi:namedview
     inkscape:document-rotation="0"
     inkscape:window-maximized="1"
     inkscape:window-y="-8"
     inkscape:window-x="-8"
     inkscape:window-height="1017"
     inkscape:window-width="1920"
     units="px"
     inkscape:pagecheckerboard="true"
     showgrid="false"
     inkscape:current-layer="g376"
     inkscape:document-units="px"
     inkscape:cy="41.052719"
     inkscape:cx="-42.203685"
     inkscape:zoom="2.8"
     inkscape:pageshadow="2"
     inkscape:pageopacity="0.0"
     borderopacity="1.0"
     bordercolor="#666666"
     pagecolor="#ffffff"
     id="base">
    <sodipodi:guide
       inkscape:locked="false"
       id="guide4518"
       orientation="35.02264,-60.62899"
       position="135.62899,39.97733" />
    <sodipodi:guide
       inkscape:locked="false"
       id="guide4520"
       orientation="-35.02264,-60.628989"
       position="75,4.95469" />
    <sodipodi:guide
       inkscape:locked="false"
       id="guide4522"
       orientation="-70.045324,0"
       position="14.371011,39.97733" />
    <sodipodi:guide
       inkscape:locked="false"
       id="guide4524"
       orientation="-35.022659,60.628989"
       position="14.371011,110.02265" />
    <sodipodi:guide
       inkscape:locked="false"
       id="guide4526"
       orientation="35.022659,60.62899"
       position="75,145.04531" />
    <sodipodi:guide
       inkscape:locked="false"
       id="guide4528"
       orientation="70.045324,0"
       position="135.62899,110.02265" />
  </sodipodi:namedview>
  <metadata
     id="metadata5253">
    <rdf:RDF>
      <cc:Work
         rdf:about="">
        <dc:format>image/svg+xml</dc:format>
        <dc:type
           rdf:resource="http://purl.org/dc/dcmitype/StillImage" />
        <dc:title />
      </cc:Work>
    </rdf:RDF>
  </metadata>
  <g
     id="layer1"
     inkscape:groupmode="layer"
     inkscape:label="Layer 1">
    <path
       inkscape:connector-curvature="0"
       style="fill:#000000;fill-opacity:1;fill-rule:nonzero;stroke:none"
       d="M 135.99955,110.03974 75.039997,144.99948 14.000448,110.03974 V 39.960262 L 75.039997,5.000521 135.99955,40.040261 Z"
       id="path823" />
    <g
       style="font-variation-settings:normal;display:inline;opacity:1;vector-effect:none;fill:#ffffff;fill-opacity:1;stroke:none;stroke-width:0.0998414;stroke-linecap:round;stroke-linejoin:round;stroke-miterlimit:4;stroke-dasharray:none;stroke-dashoffset:0;stroke-opacity:1;stop-color:#000000;stop-opacity:1"
       transform="matrix(6.5655852,0,0,6.5655852,-1609.8028,-1453.1837)"
       id="g376">
      <path
         id="path7041"
         d="m 256.61123,226.60358 c 0.38581,0 0.64184,0.19266 0.98528,0.38353 0.32548,0.18094 0.73468,0.3361 1.31173,0.21821 0.27385,0.27386 0.55208,0.54778 0.84878,0.73333 0.2428,0.15183 0.51564,0.24225 0.78777,0.19952 -0.0781,0.61466 -0.45113,1.21591 -0.84112,1.53063 -1.02845,-0.341 -2.05946,-0.51158 -3.09049,-0.51158 -1.03198,0 -2.06393,0.1709 -3.09333,0.51251 -0.39039,-0.31445 -0.76407,-0.9163 -0.8422,-1.53156 0.27207,0.0429 0.54497,-0.0477 0.78778,-0.1995 0.29669,-0.18555 0.57489,-0.45945 0.84877,-0.73332 0.577,0.11786 0.98625,-0.0374 1.31173,-0.2182 0.34348,-0.19096 0.5995,-0.38357 0.9853,-0.38357 z m 0.002,0.35914 c -0.36404,0 -0.97683,0.4922 -0.97683,0.4922 0,0 0.38986,1.47667 0.97683,1.47667 0.58702,0 0.97686,-1.47667 0.97686,-1.47667 0,0 -0.61283,-0.4922 -0.97686,-0.4922 z m 0,2.52409 c 0.96984,0 1.93976,0.15865 2.91199,0.47304 0.04,0.24759 -0.0277,0.43158 -0.17357,0.60172 -0.16278,0.18993 -0.43601,0.35115 -0.75986,0.47256 -0.64779,0.24299 -1.4878,0.32897 -1.97857,0.32897 -0.49078,0 -1.33075,-0.0859 -1.97852,-0.32895 -0.32388,-0.12142 -0.59708,-0.28261 -0.75984,-0.47258 -0.14588,-0.17014 -0.21371,-0.35408 -0.17361,-0.6017 0.97223,-0.31441 1.94213,-0.47306 2.91197,-0.47306 z m 3.18248,1.05043 c 0.18042,0.0438 0.49479,0.14291 0.55126,0.31238 0.15436,0.46313 -0.31085,1.17261 -0.66266,1.62029 0.0969,-0.40448 0.14918,-0.83471 0.14918,-1.28082 0,-0.22162 -0.013,-0.43929 -0.0378,-0.65185 z m -6.36488,0 a 5.6195403,5.6224108 0 0 0 -0.0377,0.65183 c 0,0.44611 0.0523,0.87634 0.14919,1.28081 -0.35183,-0.44766 -0.81706,-1.15715 -0.66267,-1.62028 0.0564,-0.16948 0.37085,-0.2686 0.55124,-0.31237 z m 6.06322,0.35238 c 0.006,0.0988 0.008,0.19864 0.008,0.29944 0,1.09136 -0.33308,2.07629 -0.86169,2.78117 -0.52859,0.70484 -1.24382,1.127 -2.02787,1.127 -0.78399,0 -1.49924,-0.42216 -2.02782,-1.127 -0.52858,-0.70488 -0.86163,-1.68979 -0.86163,-2.78116 0,-0.10083 0.002,-0.20061 0.008,-0.29946 0.15065,0.14075 0.33466,0.2549 0.53709,0.34979 -0.0785,0.33454 0.005,0.75066 0.22228,0.96807 0.40001,0.40003 1.29712,0.40003 1.69717,0 0.1239,-0.12396 0.17704,-0.32144 0.17003,-0.51961 0.0906,0.005 0.17636,0.006 0.25421,0.006 0.0779,0 0.1636,-0.002 0.25426,-0.006 -0.007,0.19814 0.0461,0.39565 0.17005,0.51961 0.40004,0.40003 1.29712,0.40003 1.69714,0 0.21738,-0.21741 0.30071,-0.63347 0.22226,-0.96799 0.20246,-0.0949 0.3865,-0.20912 0.53712,-0.34986 z m -2.88082,2.1665 c -0.42428,0.67893 -1.27283,0.76377 -1.6971,0.76377 0.42426,0.3395 1.69709,0.3395 1.69709,0 0,0.3395 1.27288,0.3395 1.69717,0 -0.42429,0 -1.27287,-0.0849 -1.69717,-0.76377 z"
         style="font-variation-settings:normal;vector-effect:none;fill:#ffffff;fill-opacity:1;stroke:none;stroke-width:0.0998414;stroke-linecap:round;stroke-linejoin:round;stroke-miterlimit:4;stroke-dasharray:none;stroke-dashoffset:0;stroke-opacity:1;stop-color:#000000;stop-opacity:1"
         inkscape:connector-curvature="0" />
      <g
         style="font-style:normal;font-variant:normal;font-weight:normal;font-stretch:normal;font-size:4.62776px;line-height:1.25;font-family:'Archivo Black';-inkscape-font-specification:'Archivo Black, ';font-variation-settings:normal;letter-spacing:0px;word-spacing:0px;opacity:1;vector-effect:none;fill:#ffffff;fill-opacity:1;stroke:none;stroke-width:0.0998414;stroke-linecap:round;stroke-linejoin:round;stroke-miterlimit:4;stroke-dasharray:none;stroke-dashoffset:0;stroke-opacity:1;stop-color:#000000;stop-opacity:1"
         id="text371"
         transform="scale(1.0032545,0.99675606)"
         aria-label="2x">
        <g
           id="g60">
          <path
             d="m 254.18922,236.44785 c -0.91167,0 -1.36519,0.42576 -1.36519,1.07827 0,0.0324 0,0.0648 0.005,0.10181 h 0.82374 v -0.0925 c 0,-0.2499 0.16197,-0.43501 0.44889,-0.43501 0.28229,0 0.39799,0.16197 0.39799,0.33783 0,0.3008 -0.51831,0.55995 -1.24024,1.20321 -0.25916,0.23139 -0.44427,0.47666 -0.44427,0.82374 v 0.22214 h 2.63783 v -0.7821 h -1.39296 c 0.65714,-0.47203 1.35593,-0.80985 1.35593,-1.49939 0,-0.57847 -0.47203,-0.95795 -1.22635,-0.95795 z"
             style="font-style:normal;font-variant:normal;font-weight:normal;font-stretch:normal;font-family:'Archivo Black';-inkscape-font-specification:'Archivo Black, ';font-variation-settings:normal;vector-effect:none;fill:#ffffff;fill-opacity:1;stroke:none;stroke-width:0.0998414;stroke-linecap:round;stroke-linejoin:round;stroke-miterlimit:4;stroke-dasharray:none;stroke-dashoffset:0;stroke-opacity:1;stop-color:#000000;stop-opacity:1"
             id="path53" />
          <path
             d="m 257.82649,238.41465 0.86077,-1.17082 h -1.01811 l -0.38873,0.64789 h -0.0185 l -0.38874,-0.64789 h -1.08289 l 0.84688,1.14768 -0.93944,1.29578 h 1.02274 l 0.4674,-0.76821 h 0.0185 l 0.46278,0.76821 h 1.07364 z"
             style="font-style:normal;font-variant:normal;font-weight:normal;font-stretch:normal;font-family:'Archivo Black';-inkscape-font-specification:'Archivo Black, ';font-variation-settings:normal;vector-effect:none;fill:#ffffff;fill-opacity:1;stroke:none;stroke-width:0.0998414;stroke-linecap:round;stroke-linejoin:round;stroke-miterlimit:4;stroke-dasharray:none;stroke-dashoffset:0;stroke-opacity:1;stop-color:#000000;stop-opacity:1"
             id="path55" />
        </g>
      </g>
    </g>
  </g>
</svg>
