<?xml version="1.0" encoding="UTF-8" standalone="no"?>
<svg
   xmlns:dc="http://purl.org/dc/elements/1.1/"
   xmlns:cc="http://creativecommons.org/ns#"
   xmlns:rdf="http://www.w3.org/1999/02/22-rdf-syntax-ns#"
   xmlns:svg="http://www.w3.org/2000/svg"
   xmlns="http://www.w3.org/2000/svg"
   xmlns:sodipodi="http://sodipodi.sourceforge.net/DTD/sodipodi-0.dtd"
   xmlns:inkscape="http://www.inkscape.org/namespaces/inkscape"
   sodipodi:docname="camera.svg"
   inkscape:version="1.0 (4035a4fb49, 2020-05-01)"
   version="1.1"
   id="svg2"
   viewBox="0 0 67.500001 67.500002"
   height="0.75in"
   width="0.75in">
  <defs
     id="defs4" />
  <sodipodi:namedview
     inkscape:document-rotation="0"
     inkscape:window-maximized="1"
     inkscape:window-y="-8"
     inkscape:window-x="-8"
     inkscape:window-height="1017"
     inkscape:window-width="1920"
     units="in"
     showgrid="false"
     inkscape:current-layer="layer1"
     inkscape:document-units="px"
     inkscape:cy="-10.375746"
     inkscape:cx="66.053718"
     inkscape:zoom="3.959798"
     inkscape:pageshadow="2"
     inkscape:pageopacity="0.0"
     borderopacity="1.0"
     bordercolor="#666666"
     pagecolor="#ffffff"
     id="base" />
  <metadata
     id="metadata7">
    <rdf:RDF>
      <cc:Work
         rdf:about="">
        <dc:format>image/svg+xml</dc:format>
        <dc:type
           rdf:resource="http://purl.org/dc/dcmitype/StillImage" />
        <dc:title />
      </cc:Work>
    </rdf:RDF>
  </metadata>
  <g
     transform="translate(0,-984.86215)"
     id="layer1"
     inkscape:groupmode="layer"
     inkscape:label="Layer 1">
    <path
       id="path6"
       d="m 12.766598,986.8051 c -2.076048,-7.2e-4 -4.260522,0.30038 -6.5590263,0.97109 a 1.3308011,1.3308011 0 0 0 -0.020322,0.0198 1.3308011,1.3308011 0 0 0 -0.069491,0.0235 1.3308011,1.3308011 0 0 0 -0.054627,0.0198 1.3308011,1.3308011 0 0 0 -0.065827,0.0324 1.3308011,1.3308011 0 0 0 -0.053801,0.0271 1.3308011,1.3308011 0 0 0 -0.06487,0.0378 1.3308011,1.3308011 0 0 0 -0.047907,0.0325 1.3308011,1.3308011 0 0 0 -0.060945,0.0433 1.3308011,1.3308011 0 0 0 -0.045363,0.0361 1.3308011,1.3308011 0 0 0 -0.055606,0.0504 1.3308011,1.3308011 0 0 0 -0.041612,0.0397 1.3308011,1.3308011 0 0 0 -0.051833,0.0559 1.3308011,1.3308011 0 0 0 -0.03462,0.0414 1.3308011,1.3308011 0 0 0 -0.047907,0.0631 1.3308011,1.3308011 0 0 0 -0.030108,0.0433 1.3308011,1.3308011 0 0 0 -0.039486,0.0668 1.3308011,1.3308011 0 0 0 -0.027027,0.0487 1.3308011,1.3308011 0 0 0 -0.032634,0.0703 1.3308011,1.3308011 0 0 0 -0.021852,0.0523 1.3308011,1.3308011 0 0 0 -0.024936,0.0703 1.3308011,1.3308011 0 0 0 -0.017129,0.054 1.3308011,1.3308011 0 0 0 -0.023818,0.0974 l -3.1367684,15.68421 a 1.3308011,1.3308011 0 0 0 0.7879748,1.4867 l 11.4901339,4.8439 4.429466,22.7124 -16.3245864,3.5458 a 1.3308011,1.3308011 0 0 0 -1.05063,1.2825 l -0.1487643,10.7125 a 1.3308011,1.3308011 0 0 0 1.7335447,1.2866 l 20.517871,-6.5577 3.379255,-0.6552 c 0.02479,0 0.04945,0 0.07424,0 1.394681,0 2.708111,-0.6641 3.625382,-1.7472 0.916572,-1.0818 1.39608,-2.4922 1.394679,-3.9446 v 0 c 8.42e-4,-0.9207 -0.192195,-1.8261 -0.56664,-2.6412 l -3.54035,-18.2909 17.618964,7.4272 a 1.3308011,1.3308011 0 0 0 0.0217,0.02 1.3308011,1.3308011 0 0 0 0.07634,0.027 1.3308011,1.3308011 0 0 0 0.04903,0.019 1.3308011,1.3308011 0 0 0 0.07607,0.02 1.3308011,1.3308011 0 0 0 0.05827,0.02 1.3308011,1.3308011 0 0 0 0.06766,0.02 1.3308011,1.3308011 0 0 0 0.06752,0.02 1.3308011,1.3308011 0 0 0 0.06022,0 1.3308011,1.3308011 0 0 0 0.07563,0 1.3308011,1.3308011 0 0 0 0.05084,0 l 11.683873,-0.7397 a 1.3308011,1.3308011 0 0 0 1.116472,-0.7618 l 7.07734,-14.9827 h 0.0011 a 1.3308011,1.3308011 0 0 0 0.0029,-0.019 1.3308011,1.3308011 0 0 0 -0.771864,-1.8403 c -1.090837,-0.5981 -2.213612,-1.0169 -3.355859,-1.2814 l -43.12842,-16.73439 a 1.3308011,1.3308011 0 0 0 -0.112344,-0.0378 c -1.865504,-0.53836 -3.833267,-0.84181 -5.909456,-0.84307 z m -3.6907997,1.92252 a 1.3308011,1.3308011 0 0 1 0.5164901,0.10101 l 40.7295156,16.32417 a 1.3319218,1.3319218 0 0 1 0.808288,1.5114 1.3308011,1.3308011 0 0 0 -0.09903,0.2045 l -0.117104,0.2899 a 1.3319218,1.3319218 0 0 1 -1.581552,0.4673 L 8.6030229,991.2976 a 1.3308011,1.3308011 0 0 1 0.4729265,-2.56998 z m 50.0532497,17.98218 c 0.616372,0 1.225737,0.071 1.830622,0.196 l 2.064842,0.8012 -3.315796,7.0203 c 0.12776,-0.5684 0.193033,-1.1324 0.187015,-1.6609 -0.01406,-1.2229 -0.411849,-2.2344 -1.098963,-2.7403 -0.687112,-0.5063 -1.637304,-0.4876 -2.574049,0.034 -0.231139,0.1298 -0.462978,0.2892 -0.687253,0.473 0.08602,-0.1155 0.166704,-0.2411 0.236322,-0.3767 0.198491,-0.386 0.31491,-0.8335 0.310987,-1.2299 -0.0043,-0.3969 -0.132394,-0.7343 -0.359036,-0.9063 -0.113191,-0.087 -0.243745,-0.1298 -0.385231,-0.1262 -0.141481,0 -0.294459,0.045 -0.442109,0.1298 -0.295155,0.1694 -0.571542,0.4931 -0.770462,0.8799 -0.198492,0.3872 -0.315187,0.8331 -0.310564,1.2301 0.0041,0.3971 0.132393,0.7346 0.358895,0.9066 0.226515,0.1713 0.532038,0.1605 0.827334,-0.02 -0.478525,0.499 -0.91699,1.1067 -1.273645,1.7818 -0.645507,1.2208 -1.012248,2.6332 -0.998101,3.8564 0.01406,1.2233 0.420253,2.2387 1.10751,2.745 0.686974,0.5064 1.628339,0.4831 2.564941,-0.038 0.585274,-0.3266 1.161299,-0.8431 1.668407,-1.4823 l -1.178113,2.4934 -8.790289,0.5605 5.218561,-12.9426 c 2.050134,-1.0849 3.960464,-1.6128 5.808316,-1.597 z m -41.756056,5.3436 2.243309,0.9457 4.164987,19.5497 c -0.420954,-0.1281 -0.860537,-0.198 -1.308667,-0.198 -0.381589,0 -0.756456,0.052 -1.118992,0.146 l -3.980637,-20.4433 z m 5.232569,2.2061 2.383815,1.0048 3.221938,16.6462 c -0.382709,-0.1065 -0.779428,-0.1623 -1.18329,-0.1623 -0.230158,0 -0.457514,0.02 -0.68151,0.054 l -3.740811,-17.5441 z m 4.422323,20.1601 c 0.541144,0 1.156815,0.2772 1.607047,0.8088 0.45037,0.5313 0.761076,1.3854 0.759818,2.2124 0.0014,0.8272 -0.309588,1.681 -0.759679,2.2126 -0.213628,0.2522 -0.46452,0.445 -0.726758,0.5803 l -0.860536,0.1658 c 0.295015,-0.7387 0.44603,-1.5412 0.445187,-2.357 v 0 c 5.59e-4,-0.5286 -0.0633,-1.0523 -0.187995,-1.5562 a 1.3308011,1.3308011 0 0 0 -0.02703,-0.3147 l -0.372062,-1.7452 c 0.04062,0 0.08168,-0.02 0.121863,-0.02 z m -4.555263,0.6023 c 0.541288,0 1.157098,0.2772 1.607469,0.8089 0.450231,0.5317 0.760655,1.3853 0.759534,2.2124 0.0011,0.8274 -0.309585,1.6811 -0.759675,2.2126 -0.450372,0.5317 -1.06604,0.8092 -1.607468,0.8092 -0.541146,0 -1.153315,-0.2776 -1.603546,-0.8092 -0.45023,-0.5313 -0.764581,-1.3852 -0.763459,-2.2126 -0.0011,-0.8271 0.313229,-1.6807 0.763459,-2.2124 0.450231,-0.5317 1.0624,-0.8089 1.603546,-0.8089 z m -4.832347,1.4836 c -0.121863,0.4986 -0.184355,1.0158 -0.183796,1.5377 v 0 c -0.0014,1.4529 0.477687,2.863 1.394257,3.9449 0.117393,0.1371 0.241366,0.2703 0.370944,0.3947 l -15.2110534,4.8615 0.1095494,-7.8054 13.520099,-2.9371 z"
       style="fill:#000000;stroke-width:1;stroke-linecap:round;stroke-linejoin:round"
       inkscape:connector-curvature="0" />
  </g>
</svg>
