<?xml version="1.0" encoding="UTF-8" standalone="no"?>
<!-- Created with Inkscape (http://www.inkscape.org/) -->

<svg
   xmlns:dc="http://purl.org/dc/elements/1.1/"
   xmlns:cc="http://creativecommons.org/ns#"
   xmlns:rdf="http://www.w3.org/1999/02/22-rdf-syntax-ns#"
   xmlns:svg="http://www.w3.org/2000/svg"
   xmlns="http://www.w3.org/2000/svg"
   xmlns:sodipodi="http://sodipodi.sourceforge.net/DTD/sodipodi-0.dtd"
   xmlns:inkscape="http://www.inkscape.org/namespaces/inkscape"
   width="150"
   height="150"
   viewBox="0 0 150 150"
   version="1.1"
   id="svg5256"
   inkscape:version="0.92.4 (5da689c313, 2019-01-14)"
   sodipodi:docname="security-guardlock.svg">
  <defs
     id="defs5250">
    <inkscape:perspective
       sodipodi:type="inkscape:persp3d"
       inkscape:vp_x="0 : 75 : 1"
       inkscape:vp_y="0 : 1000 : 0"
       inkscape:vp_z="150 : 75 : 1"
       inkscape:persp3d-origin="75 : 50 : 1"
       id="perspective5044" />
  </defs>
  <sodipodi:namedview
     id="base"
     pagecolor="#ffffff"
     bordercolor="#666666"
     borderopacity="1.0"
     inkscape:pageopacity="0.0"
     inkscape:pageshadow="2"
     inkscape:zoom="3.959798"
     inkscape:cx="17.856804"
     inkscape:cy="60.897794"
     inkscape:document-units="px"
     inkscape:current-layer="layer1"
     showgrid="false"
     inkscape:pagecheckerboard="true"
     units="px"
     inkscape:window-width="2880"
     inkscape:window-height="1526"
     inkscape:window-x="-11"
     inkscape:window-y="1609"
     inkscape:window-maximized="1"
     inkscape:snap-global="false">
    <sodipodi:guide
       position="135.62899,39.97733"
       orientation="35.02264,-60.62899"
       id="guide4518"
       inkscape:locked="false" />
    <sodipodi:guide
       position="75,4.95469"
       orientation="-35.02264,-60.628989"
       id="guide4520"
       inkscape:locked="false" />
    <sodipodi:guide
       position="14.371011,39.97733"
       orientation="-70.045324,0"
       id="guide4522"
       inkscape:locked="false" />
    <sodipodi:guide
       position="14.371011,110.02265"
       orientation="-35.022659,60.628989"
       id="guide4524"
       inkscape:locked="false" />
    <sodipodi:guide
       position="75,145.04531"
       orientation="35.022659,60.62899"
       id="guide4526"
       inkscape:locked="false" />
    <sodipodi:guide
       position="135.62899,110.02265"
       orientation="70.045324,0"
       id="guide4528"
       inkscape:locked="false" />
  </sodipodi:namedview>
  <metadata
     id="metadata5253">
    <rdf:RDF>
      <cc:Work
         rdf:about="">
        <dc:format>image/svg+xml</dc:format>
        <dc:type
           rdf:resource="http://purl.org/dc/dcmitype/StillImage" />
        <dc:title />
      </cc:Work>
    </rdf:RDF>
  </metadata>
  <g
     inkscape:label="Layer 1"
     inkscape:groupmode="layer"
     id="layer1">
    <path
       id="path823"
       d="M 135.99955,110.03974 75.039999,144.99948 14.00045,110.03974 V 39.960261 L 75.039999,5.0005195 135.99955,40.04026 Z"
       style="fill:#000000;fill-opacity:1;fill-rule:nonzero;stroke:none"
       inkscape:connector-curvature="0" />
    <path
       inkscape:connector-curvature="0"
       style="display:inline;opacity:1;vector-effect:none;fill:#ffffff;fill-opacity:1;stroke:none;stroke-width:0.65551883;stroke-linecap:round;stroke-linejoin:round;stroke-miterlimit:4;stroke-dasharray:none;stroke-dashoffset:0;stroke-opacity:1"
       d="m 99.247533,33.71292 c 2.696457,0 4.485887,1.345899 6.886267,2.679253 2.27487,1.263914 5.1348,2.347788 9.16793,1.524225 1.91396,1.913121 3.8585,3.826635 5.9322,5.122795 1.69696,1.060597 3.60387,1.692212 5.50587,1.393777 -0.54571,4.293694 -3.15302,8.493742 -5.87874,10.692315 -7.18797,-2.382094 -14.39394,-3.573678 -21.5999,-3.573678 -7.212628,0 -14.425113,1.193789 -21.619653,3.580146 -2.72855,-2.196612 -5.340227,-6.400826 -5.886329,-10.698783 1.901612,0.298925 3.808903,-0.333228 5.505916,-1.393629 2.073653,-1.29616 4.017948,-3.209577 5.932137,-5.122698 4.032755,0.823466 6.893075,-0.260702 9.167943,-1.524225 2.400622,-1.333991 4.189912,-2.679498 6.886359,-2.679498 z m 0.01465,2.508816 c -2.544295,0 -6.827158,3.438327 -6.827158,3.438327 0,0 2.724725,10.315324 6.827158,10.315324 4.102727,0 6.827457,-10.315324 6.827457,-10.315324 0,0 -4.28316,-3.438327 -6.827457,-3.438327 z m 0,17.632283 c 6.778407,0 13.557297,1.108179 20.352357,3.304399 0.27982,1.729601 -0.19405,3.014833 -1.21314,4.203379 -1.13769,1.326739 -3.04728,2.452904 -5.31073,3.301116 -4.52749,1.697357 -10.39844,2.298001 -13.828578,2.298001 -3.430045,0 -9.30075,-0.600644 -13.828042,-2.297903 -2.263757,-0.848164 -4.173096,-1.974229 -5.310731,-3.301214 -1.01953,-1.188546 -1.493594,-2.473484 -1.213393,-4.203233 6.795067,-2.196366 13.573811,-3.304545 20.352166,-3.304545 z m 22.242837,7.337784 c 1.26092,0.305785 3.45813,0.998263 3.85286,2.182154 1.07882,3.235254 -2.1726,8.191387 -4.63149,11.318636 0.67744,-2.825482 1.04262,-5.830906 1.04262,-8.947227 0,-1.548139 -0.0906,-3.068738 -0.26414,-4.553563 z m -44.485089,0 a 39.275762,39.275762 0 0 0 -0.264124,4.553416 c 0,3.116321 0.365075,6.121746 1.042662,8.947227 -2.458929,-3.127248 -5.710463,-8.083382 -4.631485,-11.318636 0.394481,-1.183891 2.591931,-1.876318 3.852701,-2.182106 z m 42.376689,2.461625 c 0.0392,0.690567 0.0612,1.387602 0.0612,2.091694 0,7.623772 -2.32794,14.504101 -6.02246,19.428039 -3.69438,4.92379 -8.69324,7.872757 -14.173084,7.872757 -5.479453,0 -10.478411,-2.948967 -14.172684,-7.872757 -3.694376,-4.923939 -6.022066,-11.804121 -6.022066,-19.427942 0,-0.704337 0.01958,-1.401372 0.06081,-2.091939 1.052904,0.983221 2.339022,1.780664 3.753863,2.443495 -0.548254,2.337008 0.03436,5.243836 1.553431,6.762523 2.795842,2.794463 9.065826,2.794463 11.861797,0 0.865952,-0.865902 1.237406,-2.245468 1.188357,-3.629737 0.633568,0.02941 1.232699,0.03921 1.776739,0.03921 0.544144,0 1.143417,-0.0147 1.777087,-0.03921 -0.049,1.384123 0.32245,2.763835 1.1885,3.629737 2.79593,2.794463 9.06572,2.794463 11.86155,0 1.51928,-1.518687 2.10169,-4.425074 1.55343,-6.761935 1.415,-0.662879 2.70131,-1.460862 3.75397,-2.443935 z M 99.262236,78.787674 c -2.965343,4.742622 -8.895975,5.335377 -11.861304,5.335377 2.965186,2.371555 11.861161,2.371555 11.861161,0 0,2.371555 8.896407,2.371555 11.861837,0 -2.96543,0 -8.89635,-0.592755 -11.861837,-5.335377 z"
       id="path7011" />
    <path
       d="m 60.918664,78.984163 q 0.851902,0 1.642954,0.33407 0.791051,0.33394 1.369114,0.91095 0.608491,0.54665 0.943185,1.30587 0.365122,0.72886 0.365122,1.54877 V 105.9513 q 0,0.8807 -0.33447,1.63994 -0.304268,0.75921 -0.882331,1.33621 -0.578063,0.60731 -1.338687,0.94143 -0.760625,0.33385 -1.61253,0.33385 H 31.9543 q -0.882337,0 -1.673391,-0.33385 -0.760613,-0.3343 -1.338682,-0.94143 -0.578066,-0.577 -0.912762,-1.33621 -0.334467,-0.75924 -0.334467,-1.63994 V 83.083823 q 0,-0.81991 0.334467,-1.54877 0.365132,-0.75922 0.943185,-1.30587 0.608494,-0.57699 1.369121,-0.91095 0.760626,-0.33407 1.612527,-0.33407 v -4.91972 q 0,-3.09755 0.517254,-5.769971 0.517208,-2.672422 2.068886,-4.615977 1.582104,-1.974032 4.411605,-3.067266 2.859936,-1.123636 7.514984,-1.123636 4.68545,0 7.514961,1.123636 2.859938,1.093234 4.381187,3.067266 1.551673,1.943555 2.038502,4.615977 0.51721,2.672421 0.51721,5.769971 z m -22.757889,-4.91972 v 4.76785 h 16.612039 v -4.76785 q 0,-2.30799 -0.182559,-3.88711 -0.18256,-1.6096 -1.003987,-2.581377 -0.791052,-0.971779 -2.464441,-1.396907 -1.673377,-0.425137 -4.655026,-0.425137 -2.951234,0 -4.624611,0.425137 -1.642965,0.425139 -2.464441,1.396907 -0.821428,0.971777 -1.034414,2.581377 -0.182559,1.57912 -0.18256,3.88711 z"
       id="path6948"
       inkscape:connector-curvature="0"
       style="font-style:normal;font-weight:normal;font-size:medium;line-height:125%;font-family:sans-serif;letter-spacing:0px;word-spacing:0px;display:inline;opacity:1;vector-effect:none;fill:#ffffff;fill-opacity:1;stroke:none;stroke-width:0.65551883;stroke-linecap:round;stroke-linejoin:round;stroke-miterlimit:4;stroke-dasharray:none;stroke-dashoffset:0;stroke-opacity:1"
       inkscape:transform-center-x="-0.19781458"
       inkscape:transform-center-y="-9.0994787" />
  </g>
</svg>
