<?xml version="1.0" encoding="UTF-8" standalone="no"?>
<svg
   xmlns:dc="http://purl.org/dc/elements/1.1/"
   xmlns:cc="http://creativecommons.org/ns#"
   xmlns:rdf="http://www.w3.org/1999/02/22-rdf-syntax-ns#"
   xmlns:svg="http://www.w3.org/2000/svg"
   xmlns="http://www.w3.org/2000/svg"
   xmlns:sodipodi="http://sodipodi.sourceforge.net/DTD/sodipodi-0.dtd"
   xmlns:inkscape="http://www.inkscape.org/namespaces/inkscape"
   width="163.93814"
   height="223.65196"
   viewBox="0 0 43.375299 59.174583"
   version="1.1"
   id="svg8"
   inkscape:version="1.0 (4035a4fb49, 2020-05-01)"
   sodipodi:docname="security_bag.svg">
  <defs
     id="defs2" />
  <sodipodi:namedview
     fit-margin-bottom="0"
     fit-margin-right="0"
     fit-margin-left="0"
     fit-margin-top="0"
     id="base"
     pagecolor="#ffffff"
     bordercolor="#666666"
     borderopacity="1.0"
     inkscape:pageopacity="0.0"
     inkscape:pageshadow="2"
     inkscape:zoom="1.979899"
     inkscape:cx="275.54151"
     inkscape:cy="96.451018"
     inkscape:document-units="mm"
     inkscape:current-layer="layer1"
     inkscape:document-rotation="0"
     showgrid="false"
     units="px" />
  <metadata
     id="metadata5">
    <rdf:RDF>
      <cc:Work
         rdf:about="">
        <dc:format>image/svg+xml</dc:format>
        <dc:type
           rdf:resource="http://purl.org/dc/dcmitype/StillImage" />
        <dc:title></dc:title>
      </cc:Work>
    </rdf:RDF>
  </metadata>
  <g
     transform="translate(-17.999935,-10.100056)"
     inkscape:label="Layer 1"
     inkscape:groupmode="layer"
     id="layer1">
    <text
       xml:space="preserve"
       style="font-style:normal;font-variant:normal;font-weight:normal;font-stretch:normal;font-size:6.35px;line-height:1.25;font-family:'Archivo Narrow';-inkscape-font-specification:'Archivo Narrow';letter-spacing:0px;word-spacing:0px;fill:#000000;fill-opacity:1;stroke:none;stroke-width:0.264583"
       x="19.654762"
       y="105.83333"
       id="text12"><tspan
         sodipodi:role="line"
         id="tspan10"
         x="19.654762"
         y="105.83333"
         style="stroke-width:0.264583" /></text>
    <path
       id="path32"
       style="fill:#000000;stroke-width:3.77953"
       d="m 158.80078,38.177734 c -1.97709,0.04268 -4.23241,0.404507 -7.05859,1.113282 -5.65994,1.419477 -8.84102,1.866742 -11.58594,0.447265 -5.16634,-2.671595 -8.29143,-1.985927 -15.74609,3.460938 -8.60405,6.286639 -13.03251,7.755327 -18.71485,6.205078 -5.01656,-1.368643 -6.111108,-0.404296 -7.111326,6.265625 -1.49563,9.973568 2.736576,19.835948 12.855466,29.957031 9.3327,9.334677 13.95929,12.320768 21.69141,13.998047 8.83148,1.91573 25.45527,1.90059 33.95117,-0.0332 v 0.002 c 11.44223,-2.602469 25.68348,-14.469805 31.10547,-25.919922 3.11274,-6.573505 3.87,-16.258926 1.74609,-22.351562 -1.23707,-3.54875 -1.29895,-5.345808 -9.81836,-2.896485 l -7.30859,0.416016 -5.81055,-3.193359 C 168.16,40.792519 164.73204,38.049687 158.80078,38.177734 Z m 16.65039,65.562496 c -0.91125,0.0926 -1.93976,0.46466 -3.55078,1.06446 -3.0105,1.12082 -8.87781,1.76321 -18.86914,2.0664 -12.16057,0.36926 -15.71005,0.12463 -22,-1.51757 -7.28317,-1.90167 -7.60404,-1.9065 -11.07227,-0.14063 -16.53324,8.41844 -33.828244,34.1245 -44.380855,65.96094 -5.507138,16.61461 -7.546875,26.06566 -7.546875,34.97461 0,22.24059 15.894954,40.48996 43.5,49.94336 14.37168,4.92162 22.83399,6.08731 41,5.64843 13.11309,-0.31672 17.80432,-0.85243 26,-2.97656 45.70212,-11.84485 63.44997,-44.27069 47.94922,-87.60547 -3.51285,-9.82076 -11.6049,-32.383 -18.23438,-42.41406 -6.77718,-10.2545 -20.76054,-19.46156 -27.06445,-22.89258 -3.01865,-1.64296 -4.21172,-2.26565 -5.73047,-2.11133 z m -25.51172,38.87891 c 0.0262,0.0121 0.0432,0.0238 0.0606,0.0352 0.0262,-0.0121 0.0432,-0.0238 0.0606,-0.0352 v 0.0684 c 13.88577,8.63006 38.01928,9.76074 40.15625,10.64648 -2.64438,58.9707 -15.50807,67.34371 -40.15625,80.75586 v 0.0625 c -0.0262,-0.0113 -0.0432,-0.0226 -0.0606,-0.0332 -0.0262,0.0113 -0.0432,0.0226 -0.0606,0.0332 v -0.0625 c -24.6483,-13.41215 -37.51187,-21.78516 -40.15625,-80.75586 2.13697,-0.88574 26.27048,-2.01653 40.15625,-10.64648 z"
       transform="scale(0.26458333)" />
  </g>
</svg>
