<?xml version="1.0" encoding="UTF-8" standalone="no"?>
<!-- Created with Inkscape (http://www.inkscape.org/) -->

<svg
   xmlns:dc="http://purl.org/dc/elements/1.1/"
   xmlns:cc="http://creativecommons.org/ns#"
   xmlns:rdf="http://www.w3.org/1999/02/22-rdf-syntax-ns#"
   xmlns:svg="http://www.w3.org/2000/svg"
   xmlns="http://www.w3.org/2000/svg"
   xmlns:sodipodi="http://sodipodi.sourceforge.net/DTD/sodipodi-0.dtd"
   xmlns:inkscape="http://www.inkscape.org/namespaces/inkscape"
   width="150"
   height="150"
   viewBox="0 0 150 150"
   version="1.1"
   id="svg5256"
   inkscape:version="0.92.4 (5da689c313, 2019-01-14)"
   sodipodi:docname="security-cameradog.svg">
  <defs
     id="defs5250">
    <inkscape:perspective
       sodipodi:type="inkscape:persp3d"
       inkscape:vp_x="0 : 75 : 1"
       inkscape:vp_y="0 : 1000 : 0"
       inkscape:vp_z="150 : 75 : 1"
       inkscape:persp3d-origin="75 : 50 : 1"
       id="perspective5044" />
  </defs>
  <sodipodi:namedview
     id="base"
     pagecolor="#ffffff"
     bordercolor="#666666"
     borderopacity="1.0"
     inkscape:pageopacity="0.0"
     inkscape:pageshadow="2"
     inkscape:zoom="3.959798"
     inkscape:cx="17.856804"
     inkscape:cy="60.897794"
     inkscape:document-units="px"
     inkscape:current-layer="layer1"
     showgrid="false"
     inkscape:pagecheckerboard="true"
     units="px"
     inkscape:window-width="2880"
     inkscape:window-height="1526"
     inkscape:window-x="-11"
     inkscape:window-y="1609"
     inkscape:window-maximized="1"
     inkscape:snap-global="false">
    <sodipodi:guide
       position="135.62899,39.97733"
       orientation="35.02264,-60.62899"
       id="guide4518"
       inkscape:locked="false" />
    <sodipodi:guide
       position="75,4.95469"
       orientation="-35.02264,-60.628989"
       id="guide4520"
       inkscape:locked="false" />
    <sodipodi:guide
       position="14.371011,39.97733"
       orientation="-70.045324,0"
       id="guide4522"
       inkscape:locked="false" />
    <sodipodi:guide
       position="14.371011,110.02265"
       orientation="-35.022659,60.628989"
       id="guide4524"
       inkscape:locked="false" />
    <sodipodi:guide
       position="75,145.04531"
       orientation="35.022659,60.62899"
       id="guide4526"
       inkscape:locked="false" />
    <sodipodi:guide
       position="135.62899,110.02265"
       orientation="70.045324,0"
       id="guide4528"
       inkscape:locked="false" />
  </sodipodi:namedview>
  <metadata
     id="metadata5253">
    <rdf:RDF>
      <cc:Work
         rdf:about="">
        <dc:format>image/svg+xml</dc:format>
        <dc:type
           rdf:resource="http://purl.org/dc/dcmitype/StillImage" />
        <dc:title />
      </cc:Work>
    </rdf:RDF>
  </metadata>
  <g
     inkscape:label="Layer 1"
     inkscape:groupmode="layer"
     id="layer1">
    <path
       id="path823"
       d="M 135.99955,110.03974 75.039999,144.99948 14.00045,110.03974 V 39.960261 L 75.039999,5.0005195 135.99955,40.04026 Z"
       style="fill:#000000;fill-opacity:1;fill-rule:nonzero;stroke:none"
       inkscape:connector-curvature="0" />
    <path
       inkscape:connector-curvature="0"
       style="display:inline;fill:#ffffff;stroke:none;stroke-width:0.79475981;stroke-linecap:round;stroke-linejoin:round;stroke-miterlimit:4;stroke-dasharray:none;stroke-opacity:1"
       d="m 86.00119,24.16222 c -1.760523,-6.08e-4 -3.61303,0.254718 -5.562184,0.823506 a 1.1285512,1.1285512 0 0 0 -0.01816,0.01681 1.1285512,1.1285512 0 0 0 -0.05904,0.02 1.1285512,1.1285512 0 0 0 -0.04677,0.01636 1.1285512,1.1285512 0 0 0 -0.05591,0.02772 1.1285512,1.1285512 0 0 0 -0.04545,0.02273 1.1285512,1.1285512 0 0 0 -0.05495,0.03182 1.1285512,1.1285512 0 0 0 -0.04088,0.02772 1.1285512,1.1285512 0 0 0 -0.05134,0.0368 1.1285512,1.1285512 0 0 0 -0.04088,0.03044 1.1285512,1.1285512 0 0 0 -0.04725,0.04272 1.1285512,1.1285512 0 0 0 -0.03631,0.03363 1.1285512,1.1285512 0 0 0 -0.04545,0.04712 1.1285512,1.1285512 0 0 0 -0.03186,0.03545 1.1285512,1.1285512 0 0 0 -0.04088,0.05363 1.1285512,1.1285512 0 0 0 -0.02729,0.0368 1.1285512,1.1285512 0 0 0 -0.03174,0.05659 1.1285512,1.1285512 0 0 0 -0.02273,0.0409 1.1285512,1.1285512 0 0 0 -0.02729,0.05963 1.1285512,1.1285512 0 0 0 -0.01816,0.04454 1.1285512,1.1285512 0 0 0 -0.02272,0.05963 1.1285512,1.1285512 0 0 0 -0.01359,0.04608 1.1285512,1.1285512 0 0 0 -0.01816,0.08257 l -2.660102,13.300548 a 1.1285512,1.1285512 0 0 0 0.668215,1.260799 l 9.743955,4.107656 3.756271,19.260661 -13.843652,3.00701 a 1.1285512,1.1285512 0 0 0 -0.890933,1.08754 l -0.126335,9.08442 a 1.1285512,1.1285512 0 0 0 1.470087,1.09107 l 17.399628,-5.56101 2.865686,-0.55564 c 0.02272,0 0.04088,0 0.06312,0 1.182745,0 2.296544,-0.56324 3.074424,-1.48172 0.77728,-0.91744 1.18392,-2.11336 1.18274,-3.34514 v 0 c 6.7e-4,-0.78083 -0.16316,-1.54851 -0.48059,-2.23977 l -3.002289,-15.511157 14.941309,6.298466 a 1.1285512,1.1285512 0 0 0 0.0182,0.01816 1.1285512,1.1285512 0 0 0 0.0646,0.02273 1.1285512,1.1285512 0 0 0 0.0409,0.01816 1.1285512,1.1285512 0 0 0 0.0646,0.01816 1.1285512,1.1285512 0 0 0 0.0495,0.01816 1.1285512,1.1285512 0 0 0 0.0572,0.01816 1.1285512,1.1285512 0 0 0 0.0572,0.01816 1.1285512,1.1285512 0 0 0 0.0509,0 1.1285512,1.1285512 0 0 0 0.0641,0 1.1285512,1.1285512 0 0 0 0.0455,0 l 9.90822,-0.627333 a 1.1285512,1.1285512 0 0 0 0.9468,-0.645947 l 6.00171,-12.705675 h 9.6e-4 a 1.1285512,1.1285512 0 0 0 0.002,-0.01683 1.1285512,1.1285512 0 0 0 -0.65427,-1.561601 c -0.92461,-0.518108 -1.87672,-0.873293 -2.84537,-1.097587 L 91.102619,24.945463 a 1.1285512,1.1285512 0 0 0 -0.09547,-0.03182 c -1.582017,-0.456822 -3.250703,-0.714139 -5.011358,-0.715212 z m -3.129898,1.630352 a 1.1285512,1.1285512 0 0 1 0.438078,0.08557 l 34.53965,13.843332 a 1.1295016,1.1295016 0 0 1 0.68543,1.281745 1.1285512,1.1285512 0 0 0 -0.084,0.173372 l -0.0996,0.245852 a 1.1295016,1.1295016 0 0 1 -1.3412,0.396271 L 82.470151,27.971929 a 1.1285512,1.1285512 0 0 1 0.401273,-2.179399 z m 42.446358,15.249377 c 0.5227,0 1.03945,0.05964 1.55242,0.166194 l 1.75103,0.679469 -2.81188,5.953381 c 0.10809,-0.482073 0.1636,-0.960359 0.15859,-1.408501 -0.0136,-1.037107 -0.34946,-1.894866 -0.93192,-2.32389 -0.58269,-0.42936 -1.38847,-0.413405 -2.18284,0.02958 -0.19587,0.110138 -0.39264,0.245263 -0.58283,0.401044 0.0731,-0.09787 0.14134,-0.204358 0.20041,-0.319426 0.16815,-0.327338 0.26722,-0.706836 0.26358,-1.042915 -0.004,-0.336692 -0.1123,-0.62274 -0.30448,-0.768614 -0.0958,-0.07335 -0.20676,-0.110139 -0.32674,-0.107133 -0.12,0 -0.24995,0.0386 -0.37493,0.110139 -0.25039,0.143697 -0.48465,0.418178 -0.65335,0.746129 -0.16814,0.328433 -0.26721,0.706547 -0.26357,1.043228 0.004,0.336704 0.11218,0.622909 0.30448,0.76877 0.19222,0.145249 0.45125,0.13611 0.70156,-0.01683 -0.40581,0.423096 -0.77759,0.938487 -1.08008,1.510944 -0.54737,1.035267 -0.85839,2.233062 -0.8464,3.270313 0.0136,1.037408 0.35629,1.898534 0.9392,2.32787 0.58256,0.429361 1.38089,0.409594 2.17511,-0.03186 0.49635,-0.27703 0.98484,-0.714952 1.41487,-1.25712 l -0.99905,2.114627 -7.4544,0.475159 4.42548,-10.975633 c 1.73857,-0.919982 3.35858,-1.367667 4.92559,-1.354369 z m -35.410132,4.531425 1.902394,0.802089 3.532001,16.578557 c -0.356737,-0.10822 -0.729753,-0.1677 -1.109756,-0.1677 -0.323562,0 -0.641497,0.0455 -0.948972,0.12406 L 89.907518,45.573843 Z m 4.437339,1.870843 2.021562,0.852108 2.732262,14.116405 c -0.32448,-0.0899 -0.660993,-0.1377 -1.003469,-0.1377 -0.195412,0 -0.388095,0.0182 -0.577916,0.0409 L 94.344989,47.437905 Z m 3.75027,17.096213 c 0.458894,0 0.980964,0.23495 1.362784,0.68594 0.38219,0.45081 0.645409,1.17489 0.644359,1.87618 10e-4,0.70154 -0.262669,1.42547 -0.644209,1.87636 -0.18134,0.21405 -0.39401,0.37765 -0.61632,0.49194 l -0.729756,0.14088 c 0.250397,-0.62641 0.378106,-1.30698 0.377646,-1.99879 v 0 c 4.6e-4,-0.44854 -0.05363,-0.89235 -0.159509,-1.3197 a 1.1285512,1.1285512 0 0 0 -0.02272,-0.26722 l -0.315386,-1.47986 c 0.03631,0 0.06902,-0.0182 0.103645,-0.0182 z m -3.863018,0.51093 c 0.459084,0 0.981281,0.23496 1.363195,0.68591 0.381746,0.45081 0.645045,1.17483 0.644095,1.87618 9.5e-4,0.70166 -0.262674,1.42563 -0.644227,1.8764 -0.381734,0.45081 -0.904027,0.68616 -1.363159,0.68616 -0.458939,0 -0.978058,-0.2354 -1.359828,-0.68616 -0.381734,-0.45082 -0.648411,-1.17474 -0.64745,-1.8764 -9.61e-4,-0.70135 0.265391,-1.42529 0.64745,-1.87618 0.381734,-0.45081 0.900937,-0.68591 1.359828,-0.68591 z m -4.097916,1.25805 c -0.103646,0.42308 -0.156335,0.8614 -0.155878,1.30404 v 0 c -0.0012,1.23208 0.404916,2.42787 1.18238,3.3454 0.09956,0.11639 0.204502,0.22949 0.314472,0.33447 l -12.899344,4.12277 0.0927,-6.61926 11.465341,-2.49074 z"
       id="path6899" />
    <path
       inkscape:connector-curvature="0"
       d="m 80.1217,84.365945 c 0.35628,3.681372 0.61625,7.355423 0.47111,11.100682 l -8.14618,8.146203 c 2.35878,-8.495323 3.12188,-18.090215 -1.29686,-28.142791 l 0.0684,-0.0091 z M 69.80619,77.952311 c 4.02654,10.439567 2.30603,20.277356 -0.6854,28.986339 l -5.64446,5.64447 c -1.04941,-0.89304 -2.12751,-1.65837 -3.24783,-2.29854 1.05324,-0.21385 2.06753,-0.51422 2.91625,-0.95742 1.18718,-0.62006 2.20462,-1.74826 3.05244,-2.74271 0.84773,-0.99442 1.46647,-1.8693 1.46647,-1.8693 l -1.8091,-1.27969 c 0,0 -0.56836,0.80019 -1.34522,1.71152 -0.77726,0.91116 -1.82279,1.9196 -2.39045,2.21585 -1.04846,0.54765 -3.27782,0.96171 -5.15352,1.14591 -0.25559,0.0258 -0.51178,0.0464 -0.76784,0.0663 -1.00973,-0.29173 -2.05655,-0.50227 -3.151782,-0.63313 -5.28342,-0.6306 -11.57579,0.48179 -20.04516,2.74104 -2.01589,-0.88356 -4.42635,-2.71143 -6.51548,-4.70401 0.20912,-0.0387 0.41608,-0.0938 0.61711,-0.16307 1.2213,-0.42512 2.2945,-1.54849 2.41011,-3.05535 0.10972,-1.42668 0.0572,-3.186813 -0.54602,-4.786123 -0.26376,-0.69958 -0.67154,-1.37616 -1.22186,-1.93749 l -0.0172,-0.0172 7.03667,-3.860633 c 1.13284,-0.437332 1.97081,-1.234721 2.54269,-2.136846 0.58758,-0.927113 0.93878,-1.959089 1.24079,-2.988014 0.6026,-2.055049 1.05052,-4.103813 2.0433,-5.343578 2.09472,-2.538944 5.25008,-3.02334 8.55124,-4.332287 l 0.31281,-0.123931 0.18846,-0.276232 c 2.90231,-4.198646 3.60229,-9.425487 4.24392,-14.758774 4.744332,3.88274 8.339172,11.013001 11.193542,16.332262 l 0.46509,0.862404 0.9115,-0.35368 c 1.15813,-0.446759 2.27475,-0.80686 3.35151,-1.085676 z M 34.761068,92.156287 c -0.0344,0.0091 -0.0628,0.02584 -0.0968,0.03438 l 0.15533,-0.07013 z m 15.56326,-29.4346 c 0.38467,0.383382 0.75613,0.780482 1.1062,1.196298 -0.59481,4.382379 -1.39668,8.371779 -3.44274,11.491682 -0.22202,0.08345 -0.44843,0.164368 -0.67755,0.243536 0.73981,-5.069999 1.07483,-10.41229 -0.76779,-16.020613 1.49418,1.020102 2.74203,2.053114 3.78201,3.088971 z m -24.27345,34.47552 c -3.74114,2.66217 -2.23882,4.535733 -0.73298,6.614623 -0.98878,-0.56531 -3.82134,-2.73962 -3.37359,-4.582253 0.36057,-1.48424 2.8712,-1.88439 4.10657,-2.03237 z m 20.69733,-12.55898 c -1.6921,0.673468 -3.076,1.868685 -4.45719,3.095494 1.0951,1.34531 2.18508,1.426025 3.53645,1.180338 1.5517,-1.158263 2.38915,-2.872997 2.42116,-4.706585 -0.5286,0.09643 -1.02707,0.242238 -1.50064,0.430787 z"
       style="display:inline;opacity:1;vector-effect:none;fill:#ffffff;fill-opacity:1;stroke:none;stroke-width:0.75896198;stroke-linecap:butt;stroke-linejoin:miter;stroke-miterlimit:4;stroke-dasharray:none;stroke-dashoffset:0;stroke-opacity:1"
       id="path25834" />
  </g>
</svg>
