<?xml version="1.0" encoding="UTF-8" standalone="no"?>
<!-- Created with Inkscape (http://www.inkscape.org/) -->

<svg
   xmlns:dc="http://purl.org/dc/elements/1.1/"
   xmlns:cc="http://creativecommons.org/ns#"
   xmlns:rdf="http://www.w3.org/1999/02/22-rdf-syntax-ns#"
   xmlns:svg="http://www.w3.org/2000/svg"
   xmlns="http://www.w3.org/2000/svg"
   xmlns:sodipodi="http://sodipodi.sourceforge.net/DTD/sodipodi-0.dtd"
   xmlns:inkscape="http://www.inkscape.org/namespaces/inkscape"
   width="150"
   height="150"
   viewBox="0 0 150 150"
   version="1.1"
   id="svg5256"
   inkscape:version="0.92.4 (5da689c313, 2019-01-14)"
   sodipodi:docname="security-lockdog.svg">
  <defs
     id="defs5250">
    <inkscape:perspective
       sodipodi:type="inkscape:persp3d"
       inkscape:vp_x="0 : 75 : 1"
       inkscape:vp_y="0 : 1000 : 0"
       inkscape:vp_z="150 : 75 : 1"
       inkscape:persp3d-origin="75 : 50 : 1"
       id="perspective5044" />
  </defs>
  <sodipodi:namedview
     id="base"
     pagecolor="#ffffff"
     bordercolor="#666666"
     borderopacity="1.0"
     inkscape:pageopacity="0.0"
     inkscape:pageshadow="2"
     inkscape:zoom="3.959798"
     inkscape:cx="-24.317064"
     inkscape:cy="60.897794"
     inkscape:document-units="px"
     inkscape:current-layer="layer1"
     showgrid="false"
     inkscape:pagecheckerboard="true"
     units="px"
     inkscape:window-width="2880"
     inkscape:window-height="1526"
     inkscape:window-x="-11"
     inkscape:window-y="1609"
     inkscape:window-maximized="1"
     inkscape:snap-global="false">
    <sodipodi:guide
       position="135.62899,39.97733"
       orientation="35.02264,-60.62899"
       id="guide4518"
       inkscape:locked="false" />
    <sodipodi:guide
       position="75,4.95469"
       orientation="-35.02264,-60.628989"
       id="guide4520"
       inkscape:locked="false" />
    <sodipodi:guide
       position="14.371011,39.97733"
       orientation="-70.045324,0"
       id="guide4522"
       inkscape:locked="false" />
    <sodipodi:guide
       position="14.371011,110.02265"
       orientation="-35.022659,60.628989"
       id="guide4524"
       inkscape:locked="false" />
    <sodipodi:guide
       position="75,145.04531"
       orientation="35.022659,60.62899"
       id="guide4526"
       inkscape:locked="false" />
    <sodipodi:guide
       position="135.62899,110.02265"
       orientation="70.045324,0"
       id="guide4528"
       inkscape:locked="false" />
  </sodipodi:namedview>
  <metadata
     id="metadata5253">
    <rdf:RDF>
      <cc:Work
         rdf:about="">
        <dc:format>image/svg+xml</dc:format>
        <dc:type
           rdf:resource="http://purl.org/dc/dcmitype/StillImage" />
        <dc:title />
      </cc:Work>
    </rdf:RDF>
  </metadata>
  <g
     inkscape:label="Layer 1"
     inkscape:groupmode="layer"
     id="layer1">
    <path
       id="path823"
       d="M 135.99955,110.03974 75.039999,144.99948 14.00045,110.03974 V 39.960261 L 75.039999,5.0005195 135.99955,40.04026 Z"
       style="fill:#000000;fill-opacity:1;fill-rule:nonzero;stroke:none"
       inkscape:connector-curvature="0" />
    <path
       d="m 59.908512,76.20624 q 0.851902,0 1.642954,0.334073 0.791051,0.333937 1.369114,0.910954 0.608491,0.54665 0.943185,1.305866 0.365118,0.728862 0.365118,1.548773 v 22.867474 q 0,0.8807 -0.334467,1.63995 -0.304267,0.7592 -0.88233,1.3362 -0.578063,0.60731 -1.338687,0.94143 -0.760625,0.33385 -1.61253,0.33385 H 30.944148 q -0.882337,0 -1.673391,-0.33385 -0.760613,-0.3343 -1.338682,-0.94143 -0.578066,-0.577 -0.912762,-1.3362 -0.334467,-0.75925 -0.334467,-1.63995 V 80.305906 q 0,-0.819911 0.334467,-1.548773 0.365132,-0.759216 0.943185,-1.305866 0.608494,-0.576993 1.369121,-0.910954 0.760626,-0.334073 1.612527,-0.334073 v -4.919715 q 0,-3.097551 0.517254,-5.769973 0.517208,-2.672422 2.068886,-4.615977 1.582104,-1.974032 4.411605,-3.067266 2.859936,-1.123636 7.514984,-1.123636 4.68545,0 7.514961,1.123636 2.859938,1.093234 4.381187,3.067266 1.551673,1.943555 2.038502,4.615977 0.51721,2.672422 0.51721,5.769973 z M 37.150623,71.286525 v 4.767846 h 16.612039 v -4.767846 q 0,-2.307988 -0.182559,-3.887113 -0.18256,-1.6096 -1.003987,-2.581376 -0.791052,-0.971779 -2.464441,-1.396907 -1.673377,-0.425137 -4.655026,-0.425137 -2.951234,0 -4.624611,0.425137 -1.642965,0.425139 -2.464441,1.396907 -0.821428,0.971776 -1.034414,2.581376 -0.182559,1.579124 -0.18256,3.887113 z"
       id="path6948"
       inkscape:connector-curvature="0"
       style="font-style:normal;font-weight:normal;font-size:medium;line-height:125%;font-family:sans-serif;letter-spacing:0px;word-spacing:0px;display:inline;opacity:1;vector-effect:none;fill:#ffffff;fill-opacity:1;stroke:none;stroke-width:0.65551883;stroke-linecap:round;stroke-linejoin:round;stroke-miterlimit:4;stroke-dasharray:none;stroke-dashoffset:0;stroke-opacity:1"
       inkscape:transform-center-x="-0.19781458"
       inkscape:transform-center-y="-9.0994787" />
    <path
       inkscape:connector-curvature="0"
       d="m 124.06333,52.293605 c 0.35628,3.68137 0.61625,7.35542 0.47111,11.10068 l -8.14618,8.1462 c 2.35878,-8.49532 3.12188,-18.09021 -1.29686,-28.14279 l 0.0684,-0.009 z m -10.31551,-6.41364 c 4.02654,10.43957 2.30603,20.27736 -0.6854,28.98634 l -5.64446,5.64447 c -1.04941,-0.89304 -2.12751,-1.65837 -3.24782,-2.29854 1.05323,-0.21386 2.06752,-0.51422 2.91625,-0.95742 1.18717,-0.62006 2.20461,-1.74826 3.05243,-2.74271 0.84773,-0.99442 1.46647,-1.8693 1.46647,-1.8693 l -1.8091,-1.27969 c 0,0 -0.56836,0.80019 -1.34522,1.71152 -0.77726,0.91115 -1.82279,1.9196 -2.39045,2.21584 -1.04846,0.54766 -3.27781,0.96172 -5.15352,1.14592 -0.25559,0.0258 -0.51178,0.0464 -0.76783,0.0663 -1.009738,-0.29173 -2.056558,-0.50227 -3.151788,-0.63313 -5.28342,-0.6306 -11.57579,0.48179 -20.04516,2.74104 -2.01589,-0.88357 -4.42635,-2.71143 -6.51548,-4.70401 0.20912,-0.0387 0.41608,-0.0938 0.61711,-0.16307 1.2213,-0.42512 2.2945,-1.54849 2.41011,-3.05535 0.10972,-1.42668 0.0572,-3.18681 -0.54602,-4.78612 -0.26376,-0.69958 -0.67153,-1.37616 -1.22186,-1.93749 l -0.0172,-0.0172 7.03668,-3.86063 c 1.13283,-0.43734 1.9708,-1.23472 2.54268,-2.13685 0.58758,-0.92711 0.93878,-1.95909 1.24079,-2.98801 0.6026,-2.05505 1.05052,-4.10382 2.0433,-5.34358 2.09472,-2.53895 5.25008,-3.02334 8.55124,-4.33229 l 0.31281,-0.12393 0.18846,-0.27623 c 2.90231,-4.19865 3.60229,-9.425489 4.24392,-14.758776 4.744328,3.88274 8.339168,11.013006 11.193538,16.332266 l 0.46509,0.8624 0.9115,-0.35368 c 1.15813,-0.44676 2.27475,-0.80686 3.35152,-1.08568 z m -35.045118,14.20398 c -0.0344,0.009 -0.0628,0.0258 -0.0968,0.0344 l 0.15533,-0.0701 z m 15.56326,-29.434601 c 0.38467,0.383382 0.75613,0.780482 1.1062,1.196298 -0.59481,4.382379 -1.39668,8.371783 -3.44273,11.491683 -0.22203,0.0834 -0.44844,0.16437 -0.67756,0.24354 0.73982,-5.07 1.07483,-10.412295 -0.76779,-16.020618 1.49418,1.020102 2.74203,2.053114 3.78201,3.088971 z m -24.27345,34.475521 c -3.74114,2.66217 -2.23882,4.53573 -0.73298,6.61462 -0.98878,-0.56531 -3.82134,-2.73962 -3.37359,-4.58225 0.36057,-1.48424 2.8712,-1.88439 4.10657,-2.03237 z m 20.69733,-12.55898 c -1.6921,0.67347 -3.076,1.86868 -4.45719,3.09549 1.0951,1.34531 2.18508,1.42603 3.53645,1.18034 1.5517,-1.15826 2.38915,-2.873 2.42116,-4.70658 -0.5286,0.0964 -1.02707,0.24223 -1.50064,0.43078 z"
       style="display:inline;opacity:1;vector-effect:none;fill:#ffffff;fill-opacity:1;stroke:none;stroke-width:0.75896198;stroke-linecap:butt;stroke-linejoin:miter;stroke-miterlimit:4;stroke-dasharray:none;stroke-dashoffset:0;stroke-opacity:1"
       id="path25834" />
  </g>
</svg>
