<?xml version="1.0" encoding="UTF-8" standalone="no"?>
<svg
   xmlns:dc="http://purl.org/dc/elements/1.1/"
   xmlns:cc="http://creativecommons.org/ns#"
   xmlns:rdf="http://www.w3.org/1999/02/22-rdf-syntax-ns#"
   xmlns:svg="http://www.w3.org/2000/svg"
   xmlns="http://www.w3.org/2000/svg"
   xmlns:sodipodi="http://sodipodi.sourceforge.net/DTD/sodipodi-0.dtd"
   xmlns:inkscape="http://www.inkscape.org/namespaces/inkscape"
   width="100"
   height="400"
   viewBox="0 0 100 400"
   id="svg2"
   version="1.1"
   inkscape:version="1.0.1 (3bc2e813f5, 2020-09-07)"
   sodipodi:docname="script_kiddie.svg">
  <defs
     id="defs4" />
  <sodipodi:namedview
     id="base"
     pagecolor="#ffffff"
     bordercolor="#666666"
     borderopacity="1.0"
     inkscape:pageopacity="0.0"
     inkscape:pageshadow="2"
     inkscape:zoom="0.9899495"
     inkscape:cx="-58.457081"
     inkscape:cy="451.61889"
     inkscape:document-units="px"
     inkscape:current-layer="layer1"
     showgrid="false"
     units="px"
     inkscape:window-width="1920"
     inkscape:window-height="1017"
     inkscape:window-x="-8"
     inkscape:window-y="-8"
     inkscape:window-maximized="1"
     showguides="false"
     inkscape:guide-bbox="true"
     inkscape:document-rotation="0">
    <sodipodi:guide
       position="-825.7143,765"
       orientation="0,1"
       id="guide4688"
       inkscape:label=""
       inkscape:color="rgb(0,0,255)"
       inkscape:locked="false" />
    <sodipodi:guide
       position="94.285715,260"
       orientation="0,1"
       id="guide4690"
       inkscape:label=""
       inkscape:color="rgb(0,0,255)"
       inkscape:locked="false" />
    <sodipodi:guide
       position="75.000001,1322.8571"
       orientation="1,0"
       id="guide4692"
       inkscape:label=""
       inkscape:color="rgb(0,0,255)"
       inkscape:locked="false" />
  </sodipodi:namedview>
  <metadata
     id="metadata7">
    <rdf:RDF>
      <cc:Work
         rdf:about="">
        <dc:format>image/svg+xml</dc:format>
        <dc:type
           rdf:resource="http://purl.org/dc/dcmitype/StillImage" />
        <dc:title />
      </cc:Work>
    </rdf:RDF>
  </metadata>
  <g
     inkscape:label="Layer 1"
     inkscape:groupmode="layer"
     id="layer1"
     transform="translate(0,-652.36216)">
    <path
       style="font-variation-settings:normal;opacity:1;vector-effect:none;fill:#4d4d4d;fill-opacity:1;stroke-width:1;stroke-linecap:butt;stroke-linejoin:miter;stroke-miterlimit:4;stroke-dasharray:none;stroke-dashoffset:0;stroke-opacity:1;stop-color:#000000;stop-opacity:1"
       d="m 79.444117,997.27832 c -3.00192,-0.5 -3.49215,-0.6797 -7.81655,-2.8651 -3.76403,-1.9023 -5.00436,-2.2245 -5.58913,-2.5835 -0.25478,-0.032 -0.83019,-0.058 -0.87166,-0.177 -0.21887,0 -0.15969,1.5184 0.12125,3.111 l 0.11612,0.6582 -1.82349,0.2324 c -1.23011,0.1568 -2.8772,0.1966 -5.06159,0.1223 -2.87128,-0.097 -3.44803,-0.1716 -5.09121,-0.6541 -3.65957,-1.0746 -3.59456,-0.9629 -3.60506,-6.1949 -0.004,-2.1484 0.0303,-3.98268 0.0771,-4.07624 0.0467,-0.0936 0.11215,-0.64992 0.14545,-1.23635 0.0974,-1.71536 0.61833,-3.50305 2.62492,-9.00844 0.40099,-1.10016 1.08129,-2.25829 1.74412,-2.96906 0.22726,-0.19332 0.32002,-0.52409 0.35917,-0.81985 0.17633,-0.62909 0.47468,-4.96404 0.24429,-6.87907 -0.40411,-3.35899 -0.40839,-3.15201 0.0753,-3.63567 0.41592,-0.41589 1.36878,-0.62229 1.36878,-0.29646 0,0.0811 0.17775,0.33825 0.39501,0.57143 0.37491,0.40244 0.40139,0.40647 0.52044,0.0797 0.069,-0.18938 0.13856,-1.24789 0.1546,-2.35222 l 0.0292,-2.00796 -0.59783,0.0698 c -0.45259,0.0528 -0.72101,-0.0444 -1.10486,-0.40011 -0.27887,-0.25842 -0.46839,-0.53244 -0.42116,-0.60884 0.20192,-0.32671 0.29584,-13.63153 0.1061,-15.02954 -0.10849,-0.79939 -0.19234,-3.78346 -0.18633,-6.63125 0.01,-4.58127 0.0552,-6.23059 0.29343,-10.62814 0.0691,-1.27464 0.22783,-3.06859 0.27739,-3.13396 0.0189,-0.0249 0.0446,-0.1204 0.0571,-0.21195 0.0125,-0.0915 0.0811,-0.22497 0.15258,-0.29639 0.0714,-0.0715 0.0404,-0.29714 -0.0691,-0.50155 -0.18722,-0.34979 -0.1573,-1.29392 0.1418,-4.47497 0.12958,-1.37819 0.11213,-1.32611 0.605,-1.80646 0.45279,-0.4413 0.64128,-1.11127 0.31264,-1.11127 -0.0999,0 -0.13521,-0.0464 -0.0785,-0.10298 0.0566,-0.0567 -0.13015,-0.34164 -0.41518,-0.63319 -0.76607,-0.78372 -0.8823,-1.95467 -0.35522,-3.57862 0.0829,-0.42915 0.26414,-0.46881 0.32276,-0.83714 0.0802,-0.0496 0.12905,-0.32092 0.10856,-0.60298 -0.0205,-0.2821 -0.0439,-0.61994 -0.052,-0.75071 -0.1389,-0.22491 -0.28746,-0.11496 -0.4841,-0.35262 -0.0959,0.0959 -1.5996,-1.28281 -1.63475,-1.49886 -0.008,-0.05 -0.23215,-0.54048 -0.49784,-1.09004 -0.26568,-0.54959 -0.48436,-1.12186 -0.48594,-1.27174 -10e-4,-0.14991 -0.1246,-0.50586 -0.27333,-0.79105 -0.15096,-0.71105 -0.33257,-0.89349 -0.5792,-1.47992 -0.1113,-0.19984 -0.214,-0.44514 -0.22821,-0.54506 -0.0574,-0.40351 -0.24821,-1.1009 -0.34792,-1.27174 -0.27139,-0.51144 -0.45738,-1.12546 -0.64938,-1.5212 -0.14846,-0.28711 -0.10832,-0.51175 -0.15606,-0.63589 -0.0478,-0.12411 -0.21676,-0.3804 -0.29932,-0.47729 -0.0826,-0.0969 -0.1924,-0.18622 -0.1924,-0.41378 0,-0.22756 -0.11975,-0.58472 -0.2661,-0.79367 -0.33521,-0.61755 -0.4283,-1.19221 -0.7308,-1.76838 -0.28304,-0.42814 -0.32896,-0.88397 -0.48683,-1.24816 -0.17439,-0.33818 -0.26628,-0.72262 -0.45724,-1.02648 -0.0816,-0.0599 -0.17514,-0.23164 -0.20789,-0.38152 -0.0328,-0.14991 -0.16811,-0.5178 -0.3008,-0.81756 -0.13268,-0.29976 -0.38783,-0.95381 -0.56699,-1.45341 -0.17916,-0.49963 -0.37082,-0.94927 -0.42591,-0.99923 -0.0551,-0.05 -0.12395,-0.21347 -0.15303,-0.36335 -0.10131,-0.52224 -2.45943,-6.08704 -2.62619,-6.19739 -0.20172,-0.20182 -0.1818,-0.48849 -0.2199,-0.66098 -0.0593,-0.62516 -0.47283,-1.06151 -0.596,-1.5279 -0.0163,-0.21582 -0.095,-0.44066 -0.17492,-0.4996 -0.0799,-0.059 -0.16962,-0.22982 -0.19926,-0.3797 -0.0994,-0.50279 -0.82919,-2.18014 -0.94848,-2.18014 -0.0649,0 -0.11909,-0.10224 -0.12045,-0.22712 -0.36733,-0.90436 -0.96377,-2.44908 -1.45308,-3.04032 -0.17952,-0.40715 -0.42802,-1.0461 -0.65512,-1.50371 -0.27859,-0.0928 -0.65145,0.2609 -0.55097,0.52274 -0.32033,0.77894 -0.65236,1.62792 -0.89596,2.46002 -0.15085,0.32956 -0.12018,0.50108 -0.29125,0.88 -0.18656,0.28166 -0.24355,0.62801 -0.25775,1.04034 -0.10537,0.40332 -0.29454,0.62041 -0.46519,1.0679 -0.23593,0.19106 -0.19852,0.95718 -0.34765,1.34364 -0.12431,0.27823 -0.0636,0.70132 -0.17546,0.85002 -0.17242,0.33458 -0.1412,1.00334 -0.37893,1.51179 -0.14597,0.56894 -0.22979,1.30548 -0.258,1.57126 -0.38488,0.85104 -0.39805,1.44578 -0.48609,2.24396 -0.0937,0.7461 -0.31769,0.46475 -0.30156,1.32406 0.0161,0.85934 -0.27052,1.22319 -0.17225,1.94615 -0.08,0.90237 -0.0241,1.19345 -0.20693,2.03934 -0.0787,0.12727 -0.1269,0.30417 -0.0884,0.75165 -0.0481,0.86355 -0.74496,1.86454 -0.70383,2.47765 0.0302,0.38117 0.27857,0.54717 0.25629,0.99923 0.17428,0.7058 0.15516,1.39918 0.24469,1.72596 0.12101,0.45155 0.19377,2.52884 -0.024,2.87449 -0.0832,0.13209 -0.16549,0.60992 -0.0364,1.31716 0.1291,0.70725 -0.26844,1.29802 -0.19091,1.79274 0.0775,0.49472 0.0367,0.76377 -0.0623,0.82496 -0.1049,0.0649 -0.1412,0.82614 -0.0893,1.87318 0.0481,0.97017 0.0866,1.88657 0.0857,2.03645 -0.0106,1.62705 -0.14209,1.61298 -0.20529,1.99847 -0.0632,0.38544 -0.27413,1.28741 -0.28883,1.86217 -0.0188,1.05391 -0.23466,4.19802 -0.35859,5.22322 -0.0664,0.5496 -0.10229,1.07352 -0.0797,1.16429 0.0226,0.0908 -0.0585,0.22658 -0.18025,0.30181 -0.1304,0.0806 -0.20838,0.47931 -0.18981,0.97047 0.0178,0.46952 -0.0499,0.83367 -0.15497,0.83367 -0.10755,0 -0.18059,0.44221 -0.17252,1.04465 0.027,2.01899 1e-5,2.4072 -0.16755,2.4072 -0.45045,1.32792 -0.69046,2.71661 -0.61247,2.98199 0.2352,0.23519 -0.0565,8.29315 -0.0201,8.64821 0.0364,0.35507 -0.11034,0.82258 -0.11324,1.40524 -0.003,2.91033 0.018,3.23778 -0.18442,3.58787 -0.20243,0.35012 0.0179,1.29919 -0.11309,1.90789 -0.0904,0 -0.16317,0.69487 -0.16168,1.54415 10e-4,0.84929 0.0743,1.54422 0.16168,1.54425 0.13702,0.34713 0.0245,0.77558 0.0796,1.09017 0.0762,0 0.1492,0.71539 0.16212,1.58971 0.0129,0.87431 0.0729,2.40722 0.13334,3.40646 0.23784,3.93354 0.23932,3.9107 -0.28971,4.47924 -0.5014,0.53886 -0.52488,1.24361 -0.0415,1.24361 0.31715,0.29794 0.77051,0.24499 0.99013,0.44681 0.10658,-0.0659 0.29052,0.008 0.40878,0.16317 0.11825,0.1556 0.4194,0.31891 0.66921,0.36288 1.00589,0.17706 1.41279,0.50421 1.641,1.31931 0.12266,0.43803 0.48107,0.373 0.4174,0.79643 -0.0637,0.42347 0.0469,1.34828 0.0685,1.97034 0.0207,0.66499 0.0748,1.57692 0.12016,2.02659 0.0454,0.44964 0.17243,2.62884 0.2823,4.84265 0.19609,3.95094 0.35917,4.92935 0.98499,5.90894 0.14812,0.2319 0.52653,1.36177 0.84092,2.51088 0.72865,2.66325 1.17728,3.66487 2.15231,4.8051 0.73543,0.86006 2.03126,3.23203 2.03126,3.7181 0.4607,0.30329 0.39497,0.66967 0.55459,0.89814 0.17099,0.21804 0.51135,0.5871 0.53613,0.68635 0.0248,0.0992 0.23648,0.55726 0.48668,1.123 0.25019,0.56571 0.55817,1.62253 0.68439,2.34833 0.27877,1.3175 0.055,0.7372 0.44225,1.6037 0.0616,-0.038 0.11198,0.5155 0.11198,1.2306 0,1.29 -0.005,1.3043 -0.68198,1.8161 -0.3751,0.2837 -0.64172,0.581 -0.5925,0.6606 0.11009,0.1782 -0.51053,0.3851 -1.35985,0.4535 -0.34972,0.028 -1.53517,0.143 -2.63433,0.2552 -2.43151,0.2481 -4.47728,0.2553 -5.45033,0.019 -0.39969,-0.097 -1.54427,-0.2995 -2.54349,-0.4501 -3.21342,-0.4843 -6.54487,-1.7153 -8.37313,-3.094 -0.57777,-0.4356 -1.03601,-1.6163 -1.51419,-3.9013 -0.17785,-0.84995 -0.29612,-1.04235 -0.79139,-1.28758 -0.8251,-0.40849 -2.40801,-2.79378 -2.53738,-3.82357 -0.0548,-0.43638 -0.0497,-1.85622 0.0114,-3.15524 0.0611,-1.299 0.0859,-3.40418 0.0552,-4.67821 -0.0383,-1.58835 0.007,-2.31639 0.14267,-2.31639 0.1092,0 0.19854,-0.20966 0.19854,-0.46592 0,-0.25626 0.16122,-0.84902 0.35825,-1.31716 0.73895,-1.7558 1.23492,-3.94115 1.36831,-6.02907 0.0734,-1.14912 0.20934,-2.13735 0.30205,-2.19612 0.25101,-0.15907 0.39719,-3.77132 0.18871,-4.66327 -0.10789,-0.46161 -0.11399,-0.81443 -0.0152,-0.87552 0.0911,-0.0562 0.10508,-0.19887 0.0312,-0.31685 -0.0739,-0.11802 -0.13659,-0.33711 -0.13922,-0.48685 -0.003,-0.19052 -0.28309,-0.30632 -0.9317,-0.38565 -0.5098,-0.0623 -1.39173,-0.28728 -1.95986,-0.49984 -0.56812,-0.21256 -1.31139,-0.38649 -1.6517,-0.38649 -0.41979,0 -0.70347,-0.12091 -0.88219,-0.3761 -0.14489,-0.20683 -0.29259,-0.28822 -0.32823,-0.18083 -0.0356,0.10746 -0.0697,-0.47958 -0.0757,-1.30444 0.13646,-2.55331 -0.45483,-4.20952 -0.16055,-5.70297 0.0424,-0.21343 -0.0378,-1.27625 -0.17842,-2.36181 -0.14056,-1.08556 -0.34357,-3.60883 -0.45115,-5.60729 -0.69494,-12.90995 -0.69957,-13.08278 -0.4967,-18.53114 0.0632,-1.69867 0.12417,-3.37467 0.13541,-3.72439 0.0243,-0.75777 -0.11541,-1.71418 -0.29227,-2.00031 -0.20161,-0.32624 -0.23199,-2.95948 -0.0386,-3.34345 0.11731,-0.23288 0.0969,-0.68255 -0.0618,-1.36258 -0.26117,-1.11917 -0.2406,-1.65164 0.0936,-2.42338 0.0758,-0.17511 0.0756,-0.54299 -6.7e-4,-0.81756 -0.0761,-0.27456 -0.11942,-0.68746 -0.0962,-0.91758 0.0233,-0.23015 -0.0559,-0.53674 -0.17593,-0.6813 -0.12,-0.1446 -0.1652,-0.26289 -0.10043,-0.26289 0.0648,0 -0.021,-0.26571 -0.19058,-0.59047 -0.37191,-0.71219 -0.40314,-0.96566 -0.4197,-3.40646 -0.0191,-2.81051 0.11116,-5.45532 0.38466,-7.81212 0.13335,-1.14911 0.24263,-3.52001 0.24283,-5.26867 3.4e-4,-2.55943 -0.24123,-15.6011 -0.323,-17.44107 -0.0111,-0.2498 0.0433,-0.98561 0.12081,-1.63512 0.0982,-0.82211 0.0722,-1.34647 -0.0855,-1.72593 -0.12459,-0.29976 -0.2436,-0.60635 -0.26446,-0.6813 -0.0209,-0.0749 -0.0549,-0.15668 -0.0758,-0.18167 -0.0208,-0.0249 -0.0624,-0.20893 -0.0925,-0.40877 -0.0301,-0.19984 -0.18642,-1.14003 -0.34748,-2.0893 -0.1777,-1.04738 -0.29312,-2.77949 -0.29356,-4.40569 -6.7e-4,-1.92015 -0.0608,-2.67974 -0.21269,-2.67974 -0.11657,0 -0.16151,-0.0505 -0.0998,-0.11203 0.0617,-0.0617 -0.28107,-0.89965 -0.76163,-1.86221 -0.7909,-1.58419 -0.87915,-1.88785 -0.931,-3.2035 -0.0315,-0.79939 -0.0386,-1.78045 -0.0156,-2.18013 0.0229,-0.39968 0.0529,-1.60558 0.0667,-2.67977 0.0138,-1.07416 0.0999,-1.95302 0.19116,-1.95302 0.11696,-0.39433 0.21536,-0.92374 0.38033,-1.36924 0.0866,-0.5221 0.34309,-0.78206 0.47349,-1.17427 0,-0.19981 -0.0767,-0.36335 -0.17039,-0.36335 -0.0937,0 -0.17325,-0.14305 -0.17675,-0.31793 -0.006,-0.32152 -0.1421,-1.74251 -0.17249,-1.91832 -0.57998,0.0212 -2.9682098,-1.44164 -4.0225398,-1.9152 -0.47927,-0.20566 -0.59852,-0.46606 -0.71558,-0.48806 -0.11705,-0.0219 -0.23961,0.0165 -0.68128,-0.55518 -0.44168,-0.57163 -1.1931,-1.44241 -1.46058,-1.55421 -0.26749,-0.11176 -0.88186,-1.02803 -0.95757,-1.64538 -0.0757,-0.61732 -0.25688,-0.713 0.0139,-0.90597 0.24028,-0.31941 0.0717,-0.7385 -0.11811,-0.9948 -0.24601,-0.23028 -0.21442,-0.57502 -0.35809,-0.86499 -0.16264,-0.24822 -0.24076,-0.54028 -0.17358,-0.64894 0.0671,-0.10874 0.0333,-0.30471 -0.0754,-0.43561 -0.10861,-0.13084 -0.19962,-0.43387 -0.20223,-0.67334 -0.003,-0.23943 -0.0126,-0.63975 -0.0221,-0.88955 -0.01,-0.2498 0.0335,-0.63814 0.0958,-0.86298 0.0622,-0.2248 0.15093,-0.58061 0.19711,-0.79065 0.0462,-0.21006 0.17883,-0.4962 0.29477,-0.63588 0.0299,-0.26114 -0.0542,-0.51794 -0.19727,-0.88986 -0.11714,-0.14114 -0.16022,-0.34192 -0.0958,-0.44625 -0.0412,-0.31799 -0.22578,-0.61139 -0.24413,-0.96175 -0.0195,-0.42468 -0.0646,-1.16045 -0.10014,-1.63509 -0.0356,-0.47463 0.0524,-0.78607 0.0968,-0.86297 0.15291,-0.26484 0.21018,-0.67519 -8e-5,-0.80515 -0.0889,-0.0549 -0.20419,-0.36634 -0.25623,-0.692 -0.0521,-0.32567 -0.13154,-0.75566 -0.17665,-0.9555 -0.0451,-0.19984 -0.0187,-0.53365 0.0585,-0.74183 0.36076,-0.97148 0.35724,-1.70786 -0.01,-2.07504 -0.40975,-0.40977 -0.48139,-1.30939 -0.12764,-1.60299 0.21687,-0.17999 0.24082,-1.2674 0.0987,-4.48237 -0.0132,-0.29976 0.003,-0.87206 0.0374,-1.27174 0.0338,-0.39968 -0.006,-1.80263 -0.0886,-3.11767 0,0 -0.26906,-1.77379 -0.15016,-2.39097 0.1189,-0.6172 0.59007,-1.24259 0.59007,-1.24259 0.73289,-1.5433 2.44535,-5.59119 2.99361,-7.07627 0.22541,-0.61053 0.4631,-1.19627 0.52823,-1.30165 0.0652,-0.10541 0.15961,-0.75041 0.20997,-1.43341 0.0503,-0.68303 0.12864,-1.48712 0.17395,-1.78689 0.0453,-0.29976 0.20401,-1.32171 0.35265,-2.27097 0.14863,-0.94927 0.39595,-2.70699 0.54959,-3.90607 0.15365,-1.19907 0.47463,-2.99768 0.7133,-3.99691 0.53904,-2.2568 0.75331,-2.92288 0.48386,-3.17936 -0.11485,-0.25261 -0.34207,-0.46508 -0.59582,-0.66808 -0.28291,-0.22917 -0.30659,-0.27049 -0.35129,-0.83074 -0.0447,-0.56025 -0.12985,-1.04278 0.38883,-1.58968 0.081,0 0.18834,-0.15739 0.23865,-0.34976 -0.25746,-0.8324 -0.0234,-0.88541 0.78957,-1.72712 1.1844,-1.21989 1.20065,-1.25008 1.10932,-2.06038 -0.1033,-0.91652 0.5033498,-2.60231 1.3259998,-3.68474 0.70406,-0.92641 2.34897,-2.63123 2.72139,-2.74487 0.37242,-0.11365 1.21203,-0.65504 1.77896,-0.97854 0.13722,-0.19987 2.87524,-1.57799 3.2715,-1.64664 0.48523,-0.0841 1.50564,-1.02408 1.85496,-1.70881 0.19893,-0.38992 0.36273,-1.05966 0.36401,-1.48831 0.002,-0.75524 0.65775,-3.12101 1.17239,-4.23126 0.13895,-0.29976 0.27311,-0.62678 0.29812,-0.72671 0.025,-0.0999 0.1535,-0.2897 0.28555,-0.42175 0.35373,-0.72342 0.2331,-0.62835 0.36068,-1.21593 0.19386,-0.73464 0.5643,-1.50189 0.58594,-2.13213 0.0255,-0.95645 0.0727,-1.22632 0.21438,-1.22632 0.20117,0 0.48217,-0.93729 0.43573,-1.45343 -0.0225,-0.2498 0.0762,-0.58811 0.2194,-0.7518 0.23802,-0.44534 0.32836,-0.88554 0.6041,-1.05181 0,-0.10447 0.45174,-0.72247 1.00387,-1.3733 0.64063,-0.63627 0.99842,-1.44524 1.44046,-2.02704 0.35431,-0.46401 0.65352,-0.97499 0.66491,-1.13548 0.38091,-0.52547 0.0807,-0.58027 0.42364,-1.00784 0.1554,-0.19397 0.28879,-0.43923 0.29643,-0.54504 0.0211,-0.2919 0.11349,-0.654 0.40837,-1.60038 0.14789,-0.47463 -0.0277,-0.34506 0.10499,-0.86296 0.13271,-0.51791 -0.16338,-1.54858 -0.73479,-1.96713 -0.22136,-0.40547 -0.28413,-1.02016 -0.50665,-1.30307 -0.12152,0 -0.15185,-0.88905 -0.0883,-2.58891 0.093,-2.48849 0.11961,-2.63119 0.68629,-3.67898 0.39001,-0.72113 0.78024,-1.1823 1.15299,-1.36258 0.67393,-0.32595 1.0029,-0.80223 1.06537,-1.54243 0.0254,-0.30078 0.14829,-0.79213 0.2731,-1.0919 0.17453,-0.94677 0.86244,-0.949 0.96527,-1.70037 0.0707,-0.5331 0.25992,-1.01207 0.4776,-1.20907 0.36794,-0.8434 1.05308,-1.32448 1.51679,-2.04147 0.23865,-0.37461 0.97899,-1.23998 1.64521,-1.92305 0.59671,-1.17129 1.49486,-1.87814 1.91748,-2.30076 0.42263,-0.42263 0.31257,-0.37698 0.77529,-0.72672 0.46273,-0.34973 0.85752,-0.71762 0.87731,-0.81754 0.10497,-0.52995 3.306,-1.89217 4.25657,-1.98392 0.95057,-0.0918 0.76301,0.0106 1.90762,-0.21751 1.14461,-0.22812 2.59818,-0.0877 3.86065,0.11126 1.26247,0.19893 1.67347,0.37763 2.21971,0.48231 0.54626,0.10469 1.83364,0.54219 2.2061,0.94669 0.37246,0.4045 0.77393,0.5156 1.21755,0.62278 0.44362,0.10718 0.87191,0.3755 1.1371,0.48761 0.2652,0.11211 0.11129,0.16653 0.54227,0.2323 0.43097,0.0658 1.52631,0.87171 2.56714,2.28634 0.56355,0.76594 1.07762,1.4335 1.14236,1.48346 0.0647,0.05 0.43476,0.62225 0.82224,1.27175 0.38749,0.6495 0.7889,1.23778 0.89203,1.30729 0.50784,1.05617 -0.0747,2.58273 0.38125,3.41633 0.22231,0.35028 0.62799,1.37686 0.0944,2.09244 -0.53357,0.71559 0.0416,1.542 -0.1954,2.08615 -0.23702,0.54415 0.014,2.34554 0.0114,2.36182 0,0 -0.0271,0.28282 -0.008,0.51747 0.0435,0.52335 -0.54392,2.75273 -0.7253,2.75273 -0.33066,0.54777 -0.43669,1.18529 -0.84231,1.6351 -0.36376,0 -0.65504,0.83406 -0.72056,2.06335 -0.0312,0.58526 -0.1269,1.15755 -0.21266,1.27174 -0.0858,0.11419 -0.26124,0.57552 -0.38991,1.02517 -0.29883,1.04433 -1.05487,2.5435 -1.28269,2.5435 -0.0963,0 -0.22699,0.20653 -0.29035,0.45898 -0.15243,0.46832 -0.58387,0.69764 -0.80011,1.06341 0,0.13083 -0.19973,0.47031 -0.44385,0.75441 -0.43245,0.33693 -0.31524,0.55065 -0.40318,1.03881 -0.078,0.1249 -0.16487,0.37582 -0.19318,0.55759 -0.0676,0.43442 -0.0727,0.56258 -0.58765,1.07751 -0.51493,0.51493 -0.56602,0.83036 -1.36351,0.91461 -0.92193,0.0951 -1.10434,0.19049 -1.87636,0.98069 -0.47033,0.48141 -1.02347,0.99792 -1.22922,1.1478 -1.27342,0.92769 -1.55874,1.09007 -1.91539,1.09007 -0.39163,0 -0.39497,0.0253 -0.26825,2.028 0.11467,1.81215 0.34291,3.55297 0.56822,4.33386 0.0667,0.23132 0.58384,0.28001 3.21464,0.30275 3.78122,0.0327 7.50924,0.46788 7.93319,0.92611 0.20104,0.2173 0.5928,0.31731 1.28814,0.32886 1.54722,0.0257 5.81501,1.48693 6.21015,2.12625 0.0744,0.12043 0.19961,0.22239 0.27821,0.22658 0.67216,0.0358 2.23217,1.49238 2.23217,2.08414 0,0.13237 0.24527,0.67526 0.54504,1.20642 0.29976,0.53116 0.54503,1.16109 0.54503,1.39985 0,0.23876 0.12493,0.78821 0.27763,1.22099 0.1527,0.43279 0.23802,0.8901 0.18961,1.01625 -0.0484,0.12615 -0.004,0.28113 0.0981,0.34441 0.10238,0.0632 0.14325,0.22677 0.0908,0.36335 -0.0524,0.13658 -0.0236,0.29268 0.0642,0.34689 0.0877,0.0542 0.21221,0.64956 0.27665,1.32298 0.0645,0.67343 0.31058,2.04197 0.54699,3.04119 0.23639,0.99923 0.44009,1.9803 0.45265,2.18014 0.0639,1.01598 0.12401,1.48643 0.23236,1.81677 0.15704,0.47878 0.37802,2.84168 0.37724,4.03384 -3.3e-4,0.51992 0.0467,0.91609 0.10455,0.88037 0.0578,-0.0357 0.11414,0.92873 0.12508,2.14321 0.0109,1.21449 0.12197,2.57605 0.2467,3.02571 0.12472,0.44965 0.25812,1.18544 0.29644,1.6351 0.16218,1.9033 0.28676,3.0073 0.53639,4.75367 0.0762,0.53305 0.15,1.09324 0.16401,1.24488 0.014,0.15165 0.0697,0.35602 0.12373,0.4542 0.054,0.0982 0.11564,0.5405 0.13692,0.98296 0.0213,0.44246 0.079,0.86976 0.12836,0.94955 0.099,0.16018 0.21503,0.86242 0.3706,2.24289 0.0563,0.49962 0.17607,0.99861 0.26615,1.10888 0.0901,0.11024 0.16172,0.39642 0.15921,0.63587 -0.006,0.59036 0.0866,1.12693 0.23696,1.37023 0.0686,0.111 0.11817,0.55918 0.1102,0.99604 -0.008,0.43686 0.046,1.08042 0.11995,1.43014 0.27688,1.30939 0.091,5.03862 -0.262,5.2568 -0.11853,0.0732 -0.18211,1.19174 -0.17143,3.0164 0.0163,2.78558 0.0335,2.91537 0.43674,3.28969 0.19318,0.19869 0.34256,0.50606 0.39074,0.60954 0.18908,1.07143 0.41441,3.37777 -0.0197,3.81523 -0.62974,0.73944 -0.0782,1.50431 -0.22354,1.95604 -0.15083,0.4777 0.39264,1.56988 0.41281,2.18377 0.0202,0.61385 -0.13487,0.4058 0.0552,0.85117 0.19008,0.44537 0.20515,2.13324 0.18362,2.65141 -0.0215,0.51817 0.0814,0.47309 0.0396,0.58394 -0.0418,0.11089 -0.21188,0.70018 -0.23502,1.27174 -0.0231,0.57157 -0.1012,1.03924 -0.1735,1.03924 -0.0723,0 -0.0715,0.26568 0.001,0.59043 0.0732,0.32476 0.14639,0.65177 0.16254,0.72673 0.0161,0.0749 0.0395,0.15667 0.0519,0.18167 0.0259,0.0524 0.13149,1.1437 0.16253,1.68054 0.0116,0.19984 -0.0328,0.6086 -0.0986,0.90836 -0.0658,0.29979 -0.10559,1.1582 -0.0884,1.90763 0.0481,1.4956 -0.009,3.62861 -0.0758,4.26322 -0.0846,0.49902 -0.19119,0.85382 -0.013,1.25478 -0.12959,0.52712 -0.31035,0.50741 -0.60663,0.88831 -0.24298,0.51252 -0.62337,0.83025 -0.62771,1.22128 -0.1882,0.40886 -0.0936,0.52739 -0.54538,0.92737 -0.87932,0.42612 -1.32047,1.30427 -2.21305,1.64222 -0.46997,0.23493 -0.70095,0.46091 -1.1514,0.4925 -0.36825,0.0239 -0.99657,0.13144 -1.39626,0.23907 -1.08085,0.29101 -1.14428,0.16085 -1.58968,0.12357 -0.44675,-0.0582 -0.76559,0.20885 -1.23705,0.21171 -0.71377,0.008 -0.73195,0.19564 -1.13579,0.0454 -0.0761,-0.29125 -0.22085,3.50426 -0.16974,4.45108 -0.0467,0.34996 -0.34301,0.27439 -0.24874,0.69281 0.0943,0.41842 -1.16592,2.56256 -1.59675,2.31263 -0.10962,-0.0636 -0.0661,0.0416 0.0967,0.23355 0.57723,0.80844 0.8978,1.74294 1.08012,2.43848 0.18122,0.5905 0.65492,0.76918 0.89621,0.99832 1.22531,0.44783 1.33941,2.16524 1.37297,2.92315 0.0369,0.87415 0.1508,1.58627 0.24058,1.7629 0.0898,0.17662 0.0622,0.51645 0.17682,0.6743 0.1146,0.15789 0.0816,0.43242 0.19738,0.63007 0.11581,0.19762 0.0927,0.3439 0.18021,0.54411 0.0875,0.20021 0.0524,0.45647 0.15613,0.64262 0.10373,0.18611 -0.0119,0.52752 0.18564,0.72672 0.19765,0.1992 0.22084,0.74388 0.30531,1.09004 0.0845,0.34618 0.11091,1.09632 0.24325,1.27174 0.13234,0.17545 0.1534,0.18786 0.16936,0.9091 0.0159,0.72127 0.37783,2.07642 0.42631,2.72448 0.0485,0.64807 0.22043,0.94201 0.26526,1.27174 0.0448,0.32971 0.0846,0.69944 0.13198,0.99924 0.0474,0.29976 0.14242,0.9531 0.21117,1.45186 0.0687,0.4988 0.21423,0.82322 0.31281,1.1332 0.0986,0.30999 0.2483,0.92714 0.238,1.321 -0.0103,0.39386 0.19916,0.58162 0.18167,0.90839 -0.0175,0.32678 0.17034,0.42811 0.15765,0.81464 -0.0127,0.38656 0.21326,1.04549 0.23616,1.42912 0.0229,0.38363 0.2281,0.81887 0.35611,1.02366 0.12802,0.20475 0.298,0.74486 0.38123,0.95657 0.0832,0.21172 0.22902,1.08553 0.49582,2.13472 0.26679,1.04919 0.49603,2.01172 0.55068,2.18014 0.0546,0.16838 -0.0112,-0.0523 0.1197,0.576 0.13086,0.62822 0.82366,2.36232 1.00344,3.14839 0.17978,0.78607 0.5998,2.09424 0.87519,2.72515 0.2045,0.46848 0.65255,1.61618 1.39653,3.57717 0.27051,0.90634 0.25237,1.20728 0.5879,2.17263 0.26588,0.22535 0.39243,0.54573 0.60714,0.82937 0.0871,0.0952 0.0184,0.13034 -0.0716,0.34717 0.2503,0.82351 0.34713,1.87751 0.47596,2.57695 0.12884,0.69941 0.0981,0.59703 0.11762,1.07201 0.0196,0.47497 -0.20196,0.99482 -0.15643,1.36903 0.0455,0.37425 0.0231,0.82389 -0.0499,0.99924 -0.073,0.17534 -0.016,0.0632 -0.15776,0.98668 -0.14179,0.92344 -0.88429,3.20117 -1.01695,4.23509 -0.13266,1.03395 -0.28879,1.44521 -0.23627,1.90184 0.0525,0.45661 -0.11441,0.38246 -0.23315,0.7165 -0.11872,0.33407 -0.14268,2.11958 -0.24609,2.29869 -0.10341,0.17909 0.0682,-0.20091 -0.0486,0.48029 -0.11678,0.68117 -0.4999,2.69962 -0.64166,3.5512 -0.14175,0.8516 -0.39554,0.59174 -0.23766,0.77362 0.15788,0.18184 0.0704,-0.0462 0,0.46602 -0.0704,0.51215 -0.45706,1.28483 -0.42738,1.95921 0.0297,0.67434 -0.13381,1.24233 -0.27764,1.49146 -0.14384,0.24913 0.0131,-0.14894 -0.0502,0.54717 -0.0633,0.69611 -0.39495,2.26479 -0.6771,3.23885 -0.56255,1.80637 -1.25008,8.0047 -1.53361,13.82613 0.18903,1.23796 -0.38552,1.7782 -0.33533,2.60622 0.0304,0.46512 0.0425,0.40473 -0.0908,0.63555 -0.1323,0.22905 -0.18653,0.3832 -0.22722,3.84362 -0.0129,1.09916 -0.11417,2.81603 -0.22501,3.81526 -0.11083,0.99923 -0.2122,2.20019 -0.22527,2.66884 -0.0182,0.65237 -0.12489,0.93978 -0.4553,1.22632 -0.23733,0.20586 -0.52121,0.38108 -0.63082,0.38939 -0.67478,0.0512 -1.03009,0.11926 -1.12628,0.21541 -0.0603,0.0603 -0.30559,0.0351 -0.54512,-0.0559 l -0.43551,-0.16549 v 2.00466 c 0,1.29368 0.11306,1.77245 0.18215,1.89212 0.12096,0.20953 0.14687,0.31116 0.0812,1.09983 -0.0799,0.95946 -0.0402,1.27947 0.19009,1.53395 0.23996,0.26518 0.36862,0.2855 0.73309,0.11587 0.63167,-0.3152 0.56376,-0.79916 0.81191,-0.93249 0.56338,-0.55948 1.23045,-0.99217 1.87539,-1.21549 0.51745,-0.13602 0.42652,-0.30918 1.43218,0.4817 0.12351,0.21394 0.0948,0.21697 0.0948,0.59798 0,0.381 0.0574,0.89443 0.12752,1.141 -0.0607,0.58283 -0.14455,0.41176 -0.14653,1.12953 0.0838,0.8652 0.0295,1.02272 -0.088,1.22633 -0.45437,0.96178 0.17814,1.81235 0.12952,2.43532 -0.0486,0.62296 0.21551,0.92905 0.17721,1.26427 -0.0383,0.33525 0.0567,0.54132 0.0887,0.66068 0.032,0.1194 0.13044,0.24095 0.0872,0.53543 -0.0432,0.29451 -0.016,0.304 0.0702,0.44348 0.0862,0.13949 -0.0195,0.64407 0.17786,1.07554 0.19736,0.43144 0.27588,0.59144 0.37481,0.73651 0.0989,0.14511 0.2005,0.48359 0.36353,0.7016 0.16303,0.218 0.15244,0.27701 0.21038,0.53902 0.058,0.26202 1.12578,0.98353 1.2,1.64579 10e-4,0.0749 0.14543,0.28311 0.32029,0.46259 0.17487,0.17949 0.80428,0.85396 1.39868,1.49883 0.59441,0.64487 0.76405,0.81238 0.91578,0.89999 0.30317,0.17504 1.80303,1.37126 2.17314,1.86948 0.45162,0.32105 1.14115,0.7932 1.70939,1.39544 0.45473,0.37802 0.39834,0.1514 0.85634,0.64117 0.61916,0.58623 0.86384,0.70658 1.73011,0.87765 0.87706,0.34784 1.62691,0.45035 2.35574,0.38044 0.80451,-0.0793 1.43137,-0.0539 1.68051,0.068 2.96047,0.81019 4.66394,0.48325 6.07904,2.75689 0.49205,0.785 0.79503,2.2091 0.68916,3.2395 -0.0528,0.5132 -0.004,0.8114 0.1416,0.8673 0.12207,0.047 0.24079,0.308 0.26379,0.5804 0.0576,0.6818 -0.30681,2.4101 -0.60821,2.8845 -0.13653,0.2149 -1.0004,0.8212 -1.91969,1.3472 -1.64926,0.9438 -1.70179,0.9596 -3.95909,1.1893 -3.46681,0.3527 -10.00783,0.2909 -12.46163,-0.1178 z M 66.402787,829.77788 c 0.0266,-0.15567 0.1336,-0.52827 0.24891,-0.83667 0.1153,-0.30844 0.16585,-0.69382 0.17473,-1.09915 0.009,-0.40537 0.0137,-0.26831 -0.28147,-0.60763 -0.29513,-0.33933 -0.0459,-0.82792 -0.0732,-1.04465 -0.0273,-0.21676 0.0334,-0.2244 -0.0911,-0.68127 -0.12451,-0.45688 -0.38315,-0.85175 -0.42782,-1.45345 -0.0447,-0.60171 -0.1199,-1.37927 -0.23912,-1.72592 -0.11922,-0.34666 -0.29195,-0.78153 -0.44175,-1.30081 -0.14979,-0.51925 -0.0224,-0.24109 -0.18338,-0.40211 -0.0482,-0.34753 -0.31731,-0.55669 -0.3625,-0.63094 -0.19823,0.0393 -0.34062,0.2858 -0.37389,0.60793 -0.0333,0.32213 -0.096,0.80966 -0.14457,1.13313 -0.0485,0.32345 -0.0797,0.4019 0.10794,0.70933 0.18759,0.30747 0.41581,0.38936 0.42084,0.8755 0.005,0.48614 0.20211,1.08647 0.2813,1.36974 0.0792,0.28328 0.16467,0.45449 0.16467,1.00997 0,0.55548 0.13294,0.54737 -0.13626,0.9272 -0.26919,0.3798 0.0529,1.48416 0.22048,2.00721 0.16756,0.52302 -0.4639,0.77134 -0.29612,0.96095 0.16778,0.18958 0.548,0.75481 0.74405,0.8255 0.46229,0.21878 0.54329,-0.2101 0.68819,-0.64386 z m -51.36345,-6.75627 c 0,-0.29411 0.0937,-0.7098 0.2082,-0.92377 0.11451,-0.21397 0.22556,-0.67481 0.24676,-1.02413 0.0212,-0.34928 0.0978,-0.43272 0.23579,-0.70082 0.13797,-0.26807 0.21634,-0.87243 0.42354,-1.13512 0.11122,-0.18941 0.0907,-0.33121 0.13596,-0.4968 0.22118,-0.91731 0.51914,-1.40036 0.55577,-2.299 0.0143,-0.39013 0.18602,-0.93417 0.3817,-1.20896 0.15848,-0.54563 0.54496,-0.84246 0.78381,-1.2157 0.37931,-0.41169 0.77629,-1.14278 0.90911,-1.37287 0.10103,-0.58663 0.22518,-0.90184 0.47309,-1.3977 0.09,-0.0984 0.0753,-0.18517 -0.0958,-0.44621 -0.1608,-0.24542 -0.092,-0.32694 -0.17514,-0.63585 -0.0832,-0.30895 -0.27906,-0.64632 -0.0752,-0.91641 0.16658,-0.26467 0.39709,-0.51867 0.57799,-0.82146 0.115,-0.1992 0.16392,-0.25996 0.45593,-0.60181 0.30463,-0.31392 0.49124,-0.70896 0.72672,-0.92397 0.23907,-0.19476 0.38294,-0.62118 0.66713,-0.95566 0.70593,-0.8247 0.78584,-1.16553 0.39772,-1.69632 -0.15779,-0.25303 -0.17999,-0.64326 -0.22788,-0.81467 -0.0856,-1.3e-4 -0.15251,-0.30672 -0.1486,-0.6813 0.008,-0.78691 0.45067,-2.77036 0.61801,-2.77036 0.12136,0 0.61532,-1.5433 0.55872,-1.74561 -0.0187,-0.0667 0.0415,-0.1714 0.13378,-0.23254 0.28068,-0.18597 0.59001,-1.74822 0.59001,-2.97981 0,-0.90272 -0.0814,-1.25738 -0.36336,-1.58244 -0.19984,-0.23042 -0.36336,-0.60082 -0.36336,-0.8231 0,-0.22229 -0.11178,-0.49693 -0.24841,-0.61032 -0.46514,-0.38603 -0.63652,0.19979 -0.64477,2.20386 -0.008,1.96479 -0.30607,3.75474 -0.93034,5.58828 -0.18711,0.54958 -0.38064,1.23113 -0.43007,1.5146 -0.0494,0.28345 -0.17505,0.61799 -0.27914,0.74341 -0.29163,0.42727 -0.1764,0.67606 -0.36322,0.91462 -0.0972,0.0602 -0.0446,0.14016 -0.0744,0.3759 -0.0298,0.23574 -0.32839,0.5147 -0.4535,0.76632 -0.12511,0.25158 -0.53885,1.18736 -0.76793,1.49883 -0.22909,0.3115 -0.46922,1.00808 -0.82069,1.42324 -0.75785,0.88538 -1.01033,1.92653 -0.54897,2.26391 0.16617,0.12155 0.33024,0.53401 0.36458,0.91667 0.0499,0.55652 -0.0328,0.79209 -0.41348,1.17717 -0.26175,0.26477 -0.53565,0.48264 -0.60867,0.48416 -1.04005,0.88155 -0.28293,1.46209 -0.0596,2.08318 0.43743,0.36301 0.019,1.46226 -0.55659,1.46226 -0.13764,0 -0.25026,0.15768 -0.25026,0.35039 0,0.19271 -0.11065,0.46105 -0.24588,0.59626 -0.1493,0.14931 -0.21867,0.51127 -0.17659,0.92138 -0.008,0.68703 -0.26343,0.99526 -0.68637,1.43484 -0.22302,0.61688 -0.45162,0.84828 -0.37979,1.38045 0.0524,0.37192 0.0811,0.92145 0.0637,1.22124 -0.0774,1.33963 0.005,2.36127 0.20097,2.48218 0.3309,0.20452 0.67891,-0.20068 0.67891,-0.79044 z"
       id="path479"
       sodipodi:nodetypes="csccscssscsssccssscssccsssssssscsssccccccccscccccczzsccccssscscccsssccccccccccccczccccccszzscszccsscsccczczccccscsccccszcssssscczsccscssssssscssssssssscscssssscccssccscssccsscsccssscsscsssscccccsccczzzzcccsccsccccccssssscssscczssccsssscczcccsszcsscsscccssccccccsszccssssccccczsszzzzzzzzssscczzscccssssccccszcssssssssscssssscsccssscscssssssssscccssccccczzzzzzcccccccccccccscccczscccczzzzzzzzzzzzzzzzzzzzzzzzscccczzzzzzzzzzzzzzzzccccsssscsscssssccccsccczzzzzzzzzcssscccccccsscsssccczzzzzzzzcczzzzzzzzzcccsszcccccccszccccccccsscsssscsscczzzcscsccsssccccccc" />
  </g>
</svg>
