<?xml version="1.0" encoding="UTF-8" standalone="no"?>
<svg
   xmlns:dc="http://purl.org/dc/elements/1.1/"
   xmlns:cc="http://creativecommons.org/ns#"
   xmlns:rdf="http://www.w3.org/1999/02/22-rdf-syntax-ns#"
   xmlns:svg="http://www.w3.org/2000/svg"
   xmlns="http://www.w3.org/2000/svg"
   xmlns:sodipodi="http://sodipodi.sourceforge.net/DTD/sodipodi-0.dtd"
   xmlns:inkscape="http://www.inkscape.org/namespaces/inkscape"
   width="250"
   height="400"
   viewBox="0 0 66.145832 105.83334"
   version="1.1"
   id="svg8"
   inkscape:version="1.0 (4035a4fb49, 2020-05-01)"
   sodipodi:docname="amateur.svg">
  <defs
     id="defs2" />
  <sodipodi:namedview
     inkscape:snap-global="false"
     id="base"
     pagecolor="#ffffff"
     bordercolor="#666666"
     borderopacity="1.0"
     inkscape:pageopacity="0.0"
     inkscape:pageshadow="2"
     inkscape:zoom="1.979899"
     inkscape:cx="296.0277"
     inkscape:cy="138.97048"
     inkscape:document-units="mm"
     inkscape:current-layer="layer1"
     inkscape:document-rotation="0"
     showgrid="false"
     units="px"
     inkscape:snap-page="true" />
  <metadata
     id="metadata5">
    <rdf:RDF>
      <cc:Work
         rdf:about="">
        <dc:format>image/svg+xml</dc:format>
        <dc:type
           rdf:resource="http://purl.org/dc/dcmitype/StillImage" />
        <dc:title />
      </cc:Work>
    </rdf:RDF>
  </metadata>
  <g
     inkscape:label="Layer 1"
     inkscape:groupmode="layer"
     id="layer1">
    <g
       transform="matrix(1.0235439,0,0,1.0235439,-0.64807046,-72.225114)"
       aria-label="Amateur"
       id="text27"
       style="font-size:16.1066px;line-height:1.25;font-family:'Archivo Narrow';-inkscape-font-specification:'Archivo Narrow';font-variation-settings:normal;letter-spacing:0px;word-spacing:0px;opacity:1;vector-effect:none;fill:#000000;fill-opacity:1;stroke-width:0.258499;stroke-linecap:butt;stroke-linejoin:miter;stroke-miterlimit:4;stroke-dasharray:none;stroke-dashoffset:0;stroke-opacity:1;stop-color:#000000;stop-opacity:1">
      <path
         d="M 9.9385915,85.561401 H 11.468718 L 7.9574797,74.512274 H 6.137434 L 2.6261952,85.561401 H 4.043576 l 0.7570102,-2.464309 h 4.3809951 z m -3.2374266,-8.66535 c 0.1127462,-0.354346 0.2577056,-1.224102 0.2577056,-1.224102 h 0.064426 c 0,0 0.1449594,0.85365 0.2577056,1.224102 l 1.4979138,4.912513 H 5.1871446 Z"
         style="font-variation-settings:normal;vector-effect:none;fill:#000000;fill-opacity:1;stroke-width:0.258499;stroke-linecap:butt;stroke-linejoin:miter;stroke-miterlimit:4;stroke-dasharray:none;stroke-dashoffset:0;stroke-opacity:1;stop-color:#000000;stop-opacity:1"
         id="path96" />
      <path
         d="m 19.487792,76.896051 c -0.80533,0 -1.61066,0.418771 -2.061645,1.224101 -0.306025,-0.869756 -0.966396,-1.224101 -1.803939,-1.224101 -0.80533,0 -1.481807,0.338238 -1.932792,1.175781 h -0.09664 L 13.415604,77.08933 h -0.998609 v 8.472071 h 1.320741 v -5.170218 c 0,-1.465701 0.676477,-2.319351 1.465701,-2.319351 0.628157,0 1.095248,0.306026 1.095248,1.481808 v 6.007761 h 1.320742 v -5.170218 c 0,-1.465701 0.66037,-2.319351 1.449594,-2.319351 0.628157,0 1.095248,0.306026 1.095248,1.481808 v 6.007761 h 1.320742 V 79.457 c 0,-1.884472 -0.80533,-2.560949 -1.997219,-2.560949 z"
         style="font-variation-settings:normal;vector-effect:none;fill:#000000;fill-opacity:1;stroke-width:0.258499;stroke-linecap:butt;stroke-linejoin:miter;stroke-miterlimit:4;stroke-dasharray:none;stroke-dashoffset:0;stroke-opacity:1;stop-color:#000000;stop-opacity:1"
         id="path98" />
      <path
         d="m 26.052742,76.896051 c -1.594553,0 -2.722015,0.80533 -2.722015,2.351563 0,0.14496 0,0.257706 0.01611,0.354345 h 1.304635 V 79.40868 c 0,-0.644264 0.306025,-1.336848 1.304634,-1.336848 1.079143,0 1.336848,0.563731 1.336848,1.369061 v 1.095249 c -2.46431,0 -4.284355,0.499305 -4.284355,2.834762 0,2.045538 1.385167,2.383777 2.22271,2.383777 0.885863,0 1.626767,-0.418772 2.061645,-1.111356 h 0.08053 c 0.161066,0.628158 0.644264,1.046929 1.336848,1.046929 0.418771,0 0.724797,-0.112746 0.869756,-0.193279 v -0.918076 h -0.515411 c -0.225492,0 -0.450985,-0.161066 -0.450985,-0.563731 v -4.751447 c 0,-1.497914 -0.853649,-2.36767 -2.560949,-2.36767 z m 1.240208,5.58899 c 0,1.401274 -0.918076,2.093858 -1.755619,2.093858 -0.740904,0 -1.143569,-0.322132 -1.143569,-1.288528 0,-1.320741 1.175782,-1.578447 2.899188,-1.578447 z"
         style="font-variation-settings:normal;vector-effect:none;fill:#000000;fill-opacity:1;stroke-width:0.258499;stroke-linecap:butt;stroke-linejoin:miter;stroke-miterlimit:4;stroke-dasharray:none;stroke-dashoffset:0;stroke-opacity:1;stop-color:#000000;stop-opacity:1"
         id="path100" />
      <path
         d="M 32.061762,74.737766 H 31.03094 l -0.289919,2.351564 h -0.724797 v 1.175782 h 0.724797 v 5.508457 c 0,0.966396 0.354345,1.948898 1.51402,1.948898 0.322132,0 0.724797,-0.09664 0.95029,-0.225492 v -0.918076 h -0.386559 c -0.499304,0 -0.75701,-0.273812 -0.75701,-0.773117 v -5.54067 h 1.143569 V 77.08933 h -1.143569 z"
         style="font-variation-settings:normal;vector-effect:none;fill:#000000;fill-opacity:1;stroke-width:0.258499;stroke-linecap:butt;stroke-linejoin:miter;stroke-miterlimit:4;stroke-dasharray:none;stroke-dashoffset:0;stroke-opacity:1;stop-color:#000000;stop-opacity:1"
         id="path102" />
      <path
         d="m 37.336924,76.896051 c -2.126071,0 -3.189106,1.385167 -3.189106,4.429315 0,3.140787 1.095248,4.429315 3.205213,4.429315 1.642873,0 2.770335,-1.175782 2.770335,-3.076361 h -1.304634 c 0,1.175782 -0.595945,1.900579 -1.433488,1.900579 -1.256315,0 -1.836152,-0.885863 -1.852259,-2.866975 h 4.590381 v -0.837543 c 0,-2.834762 -0.934183,-3.97833 -2.786442,-3.97833 z m 0,1.175781 c 0.918077,0 1.401275,0.85365 1.401275,2.46431 h -3.189107 c 0.112746,-1.626766 0.612051,-2.46431 1.787832,-2.46431 z"
         style="font-variation-settings:normal;vector-effect:none;fill:#000000;fill-opacity:1;stroke-width:0.258499;stroke-linecap:butt;stroke-linejoin:miter;stroke-miterlimit:4;stroke-dasharray:none;stroke-dashoffset:0;stroke-opacity:1;stop-color:#000000;stop-opacity:1"
         id="path104" />
      <path
         d="m 47.179314,77.08933 h -1.320742 v 5.170218 c 0,1.465701 -0.740903,2.319351 -1.578446,2.319351 -0.708691,0 -1.191889,-0.306026 -1.191889,-1.481807 V 77.08933 h -1.320741 v 6.104401 c 0,1.884472 0.821437,2.56095 2.093858,2.56095 0.837543,0 1.578447,-0.338239 2.045538,-1.175782 h 0.09664 l 0.177172,0.982502 h 0.99861 z"
         style="font-variation-settings:normal;vector-effect:none;fill:#000000;fill-opacity:1;stroke-width:0.258499;stroke-linecap:butt;stroke-linejoin:miter;stroke-miterlimit:4;stroke-dasharray:none;stroke-dashoffset:0;stroke-opacity:1;stop-color:#000000;stop-opacity:1"
         id="path106" />
      <path
         d="m 51.803166,76.896051 c -0.80533,0 -1.224101,0.66037 -1.433487,1.304634 h -0.09664 L 50.095867,77.08933 h -0.998609 v 8.472071 h 1.320741 v -5.170218 c 0,-1.497914 0.740903,-1.997219 1.578446,-1.997219 h 0.434879 v -1.369061 c 0,0 -0.273813,-0.128852 -0.628158,-0.128852 z"
         style="font-variation-settings:normal;vector-effect:none;fill:#000000;fill-opacity:1;stroke-width:0.258499;stroke-linecap:butt;stroke-linejoin:miter;stroke-miterlimit:4;stroke-dasharray:none;stroke-dashoffset:0;stroke-opacity:1;stop-color:#000000;stop-opacity:1"
         id="path108" />
    </g>
    <path
       id="rect43"
       style="fill:#000000;stroke-width:0.0436618;stroke-linecap:round;stroke-linejoin:round;stroke-dasharray:0.0436618, 0.0873239;paint-order:markers fill stroke;stop-color:#000000"
       d="m 0,18.566365 v 46.705014 0.404628 11.078908 L 27.576095,87.147047 55.051447,76.754915 c 0.006,-19.360099 0.0062,-38.740958 0.0062,-58.18855 z"
       sodipodi:nodetypes="cccccccc" />
    <path
       d="m 27.528826,81.135307 25.024502,-9.43075 V 61.283711 L 27.528826,70.714327 2.5043189,61.283711 v 10.420846 z"
       style="fill:#ffffff;stroke-width:0.0436619;stroke-linecap:round;stroke-linejoin:round;stroke-dasharray:0.0436619, 0.087324;paint-order:markers fill stroke;stop-color:#000000"
       id="path29" />
  </g>
</svg>
