<?xml version="1.0" encoding="UTF-8" standalone="no"?>
<svg
   xmlns:dc="http://purl.org/dc/elements/1.1/"
   xmlns:cc="http://creativecommons.org/ns#"
   xmlns:rdf="http://www.w3.org/1999/02/22-rdf-syntax-ns#"
   xmlns:svg="http://www.w3.org/2000/svg"
   xmlns="http://www.w3.org/2000/svg"
   xmlns:sodipodi="http://sodipodi.sourceforge.net/DTD/sodipodi-0.dtd"
   xmlns:inkscape="http://www.inkscape.org/namespaces/inkscape"
   width="300"
   height="300"
   viewBox="0 0 79.375005 79.375005"
   version="1.1"
   id="svg13240"
   inkscape:version="1.0 (4035a4fb49, 2020-05-01)"
   sodipodi:docname="events_logo.svg"
   inkscape:export-filename="C:\code\timber-wolf\rules\noise event tracker.png"
   inkscape:export-xdpi="199.8732"
   inkscape:export-ydpi="199.8732">
  <defs
     id="defs13234" />
  <sodipodi:namedview
     units="px"
     id="base"
     pagecolor="#ffffff"
     bordercolor="#666666"
     borderopacity="1.0"
     inkscape:pageopacity="0.0"
     inkscape:pageshadow="2"
     inkscape:zoom="2"
     inkscape:cx="191.48792"
     inkscape:cy="90.80259"
     inkscape:document-units="mm"
     inkscape:current-layer="layer1"
     inkscape:document-rotation="0"
     showgrid="false"
     fit-margin-top="2"
     fit-margin-left="2"
     fit-margin-right="2"
     fit-margin-bottom="2"
     lock-margins="true" />
  <metadata
     id="metadata13237">
    <rdf:RDF>
      <cc:Work
         rdf:about="">
        <dc:format>image/svg+xml</dc:format>
        <dc:type
           rdf:resource="http://purl.org/dc/dcmitype/StillImage" />
        <dc:title></dc:title>
      </cc:Work>
    </rdf:RDF>
  </metadata>
  <g
     inkscape:label="Layer 1"
     inkscape:groupmode="layer"
     id="layer1"
     transform="translate(-92.592977,-94.16975)">
    <g
       style="stroke-width:0.93868"
       transform="matrix(1.0651296,0,0,1.0655209,-7.0744484,4.9495329)"
       id="g853">
      <path
         style="stroke:#000000;stroke-width:0.662292;stroke-miterlimit:4;stroke-dasharray:none;stroke-opacity:1"
         id="path957"
         fill-opacity="1"
         fill="#ffffff"
         d="m 128.74325,99.823919 c -0.9065,-0.004 -2.03875,0.243071 -3.28037,1.087421 -9.76105,6.84162 -19.69098,13.40563 -29.769239,19.77284 -1.79053,1.16034 -1.711534,2.90916 0.178526,3.90284 l 22.601133,11.87517 c 0.94512,0.49683 3.93461,0.36031 5.72515,-0.79985 l 29.81312,-19.31824 c 1.79036,-1.16051 1.71154,-2.90881 -0.178,-3.90248 -7.84132,-4.12015 -15.05805,-7.90661 -22.92201,-12.06865 0,0 -0.84314,-0.543101 -2.16831,-0.549051 z"
         sodipodi:nodetypes="cccccccccc" />
      <path
         sodipodi:nodetypes="cccccccccc"
         d="m 128.74325,97.808639 c -0.9065,-0.004 -2.03875,0.24307 -3.28037,1.08743 -9.76105,6.841611 -19.69098,13.405631 -29.769239,19.772841 -1.79053,1.16033 -1.711534,2.90916 0.178526,3.90283 l 22.601133,11.87517 c 0.94512,0.49684 3.93461,0.36031 5.72515,-0.79985 l 29.81312,-19.31824 c 1.79036,-1.16051 1.71154,-2.90881 -0.178,-3.90248 -7.84132,-4.12014 -15.05805,-7.90661 -22.92201,-12.068641 0,0 -0.84314,-0.54311 -2.16831,-0.54906 z"
         fill="#ffffff"
         fill-opacity="1"
         id="path955"
         style="stroke:#000000;stroke-width:0.662292;stroke-miterlimit:4;stroke-dasharray:none;stroke-opacity:1" />
      <path
         style="stroke:#000000;stroke-width:0.662292;stroke-miterlimit:4;stroke-dasharray:none;stroke-opacity:1"
         id="path953"
         fill-opacity="1"
         fill="#ffffff"
         d="m 128.74325,95.793359 c -0.9065,-0.004 -2.03875,0.24308 -3.28037,1.08743 -9.76105,6.841621 -19.69098,13.405631 -29.769239,19.772841 -1.79053,1.16034 -1.711534,2.90916 0.178526,3.90283 l 22.601133,11.87518 c 0.94512,0.49683 3.93461,0.36031 5.72515,-0.79985 l 29.81312,-19.31824 c 1.79036,-1.16051 1.71154,-2.90882 -0.178,-3.90248 -7.84132,-4.12015 -15.05805,-7.90662 -22.92201,-12.068651 0,0 -0.84314,-0.5431 -2.16831,-0.54906 z"
         sodipodi:nodetypes="cccccccccc" />
      <path
         sodipodi:nodetypes="cccccccccc"
         d="m 128.74325,93.778087 c -0.9065,-0.004 -2.03875,0.243073 -3.28037,1.087427 -9.76105,6.841616 -19.69098,13.405636 -29.769239,19.772846 -1.79053,1.16033 -1.711534,2.90916 0.178526,3.90283 l 22.601133,11.87517 c 0.94512,0.49684 3.93461,0.36031 5.72515,-0.79985 l 29.81312,-19.31824 c 1.79036,-1.16051 1.71154,-2.90881 -0.178,-3.90248 -7.84132,-4.12015 -15.05805,-7.906611 -22.92201,-12.068647 0,0 -0.84314,-0.5431 -2.16831,-0.549056 z"
         fill="#ffffff"
         fill-opacity="1"
         id="path947"
         style="stroke:#000000;stroke-width:0.662292;stroke-miterlimit:4;stroke-dasharray:none;stroke-opacity:1" />
      <path
         style="stroke:#000000;stroke-width:0.662292;stroke-miterlimit:4;stroke-dasharray:none;stroke-opacity:1"
         id="path945"
         fill-opacity="1"
         fill="#ffffff"
         d="m 128.74325,91.762811 c -0.9065,-0.004 -2.03875,0.243073 -3.28037,1.087427 -9.76105,6.841621 -19.69098,13.405632 -29.769239,19.772842 -1.79053,1.16033 -1.711534,2.90916 0.178526,3.90283 l 22.601133,11.87517 c 0.94512,0.49684 3.93461,0.36031 5.72515,-0.79985 L 154.01157,108.283 c 1.79036,-1.16052 1.71154,-2.90882 -0.178,-3.90249 -7.84132,-4.12014 -15.05805,-7.906611 -22.92201,-12.068642 0,0 -0.84314,-0.543102 -2.16831,-0.549057 z"
         sodipodi:nodetypes="cccccccccc" />
      <path
         sodipodi:nodetypes="cccccccccc"
         d="m 130.91156,100.37297 c 0.90078,-0.1019 2.05308,0.0209 3.37871,0.72578 10.44369,5.74434 21.02524,11.19441 31.73293,16.43277 1.90551,0.9596 2.01612,2.70671 0.24464,3.89924 l -21.18398,14.25308 c -0.88583,0.59627 -3.87253,0.7843 -5.77803,-0.17513 l -31.7274,-15.97606 c -1.90536,-0.95981 -2.01609,-2.70637 -0.24513,-3.89884 7.34965,-4.94514 14.11446,-9.49093 21.48208,-14.48018 0,0 0.77945,-0.63123 2.09618,-0.78066 z"
         fill="#ffffff"
         fill-opacity="1"
         id="path943"
         style="stroke:#000000;stroke-width:0.662292;stroke-miterlimit:4;stroke-dasharray:none;stroke-opacity:1"
         inkscape:transform-center-x="-4.5099075"
         inkscape:transform-center-y="14.317232" />
      <path
         id="path10608"
         d="m 157.07201,120.57113 c -0.20385,-0.11961 -0.54813,-0.15119 -0.97694,0.005 -0.84645,0.30948 -2.03231,0.5846 -3.39262,0.81488 0.0427,0.29069 0.0225,0.5903 -0.0603,0.88796 1.37718,0.0161 2.58384,0.12264 3.45947,0.34466 1.33548,0.33874 1.82228,-1.0326 -0.003,-1.07936 1.22231,-0.11563 1.39078,-0.72892 0.97338,-0.97388 z m -7.63374,-4.57723 c -0.42228,-0.24172 -1.3751,-0.0942 -1.47686,0.6348 -0.0648,-1.0599 -1.83175,-0.69142 -1.37019,0.11385 0.34209,0.59671 0.60449,1.44965 0.78239,2.43079 0.46027,-0.10505 0.93335,-0.16003 1.40005,-0.16449 0.19726,-0.97134 0.47238,-1.84569 0.81196,-2.515 0.11495,-0.22648 0.031,-0.39784 -0.14728,-0.49988 z m 1.57056,3.98103 c -1.50137,-0.90005 -3.92151,-0.69921 -5.41661,0.44982 -0.99571,0.76485 -1.3252,1.75428 -0.99175,2.59579 l -1.2571,0.96569 0.41907,0.25082 1.05775,-0.81274 c 0.0729,0.10314 0.15745,0.2027 0.2535,0.29775 l -0.95081,0.73116 0.41845,0.25047 0.89174,-0.68556 c 0.0544,0.0382 0.11206,0.0746 0.17096,0.11069 0.0589,0.0354 0.1192,0.0692 0.18083,0.10107 l -0.89175,0.68555 0.41836,0.25043 0.95079,-0.73114 c 0.15079,0.053 0.30679,0.0975 0.46653,0.13418 l -1.05773,0.81273 0.4177,0.251 1.25569,-0.9646 c 1.27209,0.12182 2.67909,-0.22253 3.67542,-0.98825 1.49488,-1.14923 1.49032,-2.80457 -0.011,-3.70484 z m -3.46153,0.61344 c 0.44443,0.26692 0.44616,0.759 0.003,1.09942 -0.44323,0.34025 -1.16269,0.40018 -1.60742,0.13362 -0.44444,-0.26693 -0.44616,-0.75901 -0.003,-1.09942 0.44323,-0.34025 1.16269,-0.4002 1.60741,-0.13362 z m 2.98781,1.79184 c 0.44439,0.26691 0.44616,0.75902 0.003,1.09943 -0.44323,0.34025 -1.16275,0.40017 -1.60742,0.13363 -0.44444,-0.26693 -0.44616,-0.75903 -0.003,-1.09944 0.44322,-0.34025 1.16271,-0.40018 1.60742,-0.13362 z m -2.65878,10e-4 -0.40395,1.2268 -1.33925,-0.80336 1.74338,-0.42351 z m -3.97204,-0.23095 c -1.62419,0.0158 -3.05849,-0.0534 -4.05719,-0.22489 -1.23394,-0.21159 -1.55383,1.0237 0.003,0.93665 -1.49753,0.22541 -1.06498,1.46636 0.003,1.11142 1.05799,-0.35178 2.50859,-0.68139 4.12703,-0.95461 -0.0867,-0.28084 -0.11247,-0.5736 -0.0758,-0.86857 z m 4.72999,2.8891 c -0.39221,0.0519 -0.78723,0.068 -1.17442,0.0485 -0.16524,1.10175 -0.44148,2.07847 -0.83555,2.76752 -0.5372,0.93944 1.38897,1.12939 1.41628,-0.11755 0.29359,1.22406 2.23798,0.72683 1.5781,-0.13115 -0.47565,-0.61836 -0.79625,-1.52321 -0.98445,-2.56724 z"
         inkscape:connector-curvature="0"
         style="opacity:0.8;fill:#da0000;fill-opacity:1;stroke-width:0.906982" />
      <path
         sodipodi:nodetypes="cccccccccc"
         d="m 128.74325,91.762811 c -0.9065,-0.004 -2.03875,0.243073 -3.28037,1.087427 -9.76105,6.841621 -19.69098,13.405632 -29.769239,19.772842 -1.79053,1.16033 -1.711534,2.90916 0.178526,3.90283 l 22.601133,11.87517 c 0.94512,0.49684 3.93461,0.36031 5.72515,-0.79985 L 154.01157,108.283 c 1.79036,-1.16052 1.71154,-2.90882 -0.178,-3.90249 -7.84132,-4.12014 -15.05805,-7.906611 -22.92201,-12.068642 0,0 -0.84314,-0.543102 -2.16831,-0.549057 z"
         fill="#ffffff"
         fill-opacity="1"
         id="path13472"
         style="stroke:#000000;stroke-width:0.662292;stroke-miterlimit:4;stroke-dasharray:none;stroke-opacity:1" />
      <path
         inkscape:connector-curvature="0"
         id="path1479"
         style="font-style:normal;font-variant:normal;font-weight:normal;font-stretch:normal;font-size:medium;line-height:1.25;font-family:'Archivo Narrow';-inkscape-font-specification:'Archivo Narrow';font-variation-settings:normal;letter-spacing:0px;word-spacing:0px;display:inline;opacity:1;vector-effect:none;fill:#000000;fill-opacity:1;stroke:none;stroke-width:0.248359;stroke-linecap:butt;stroke-linejoin:miter;stroke-miterlimit:4;stroke-dasharray:none;stroke-dashoffset:0;stroke-opacity:1;stop-color:#000000;stop-opacity:1"
         d="m 110.56827,120.32024 -12.438932,-5.76191 q -0.13004,-0.0602 -0.17618,-0.17451 -0.0386,-0.11066 -0.0144,-0.22961 0.0241,-0.11885 0.12158,-0.2223 0.0915,-0.0971 0.25017,-0.17211 l 15.002272,-6.44902 q 0.14651,-0.0621 0.29629,-0.0579 0.1497,0.004 0.27216,0.061 0.12236,0.0567 0.18682,0.15157 0.0644,0.0949 0.0403,0.21378 l -2.56333,12.21094 q -0.0362,0.13186 -0.12762,0.22888 -0.0975,0.10343 -0.24414,0.16552 -0.14662,0.0621 -0.31455,0.0772 -0.16039,0.0186 -0.29046,-0.0416 z m -10.863032,-6.22124 10.832412,5.01775 2.22822,-10.61942 z m 8.346632,0.48416 -1.4229,-0.65912 3.38325,-3.58955 1.42291,0.65912 z m -0.89529,1.27634 q -0.15839,0.16804 -0.36912,0.27498 -0.20298,0.11047 -0.43662,0.1601 -0.21988,0.0468 -0.44929,0.0336 -0.22303,-0.0199 -0.41429,-0.10847 -0.19123,-0.0886 -0.30482,-0.22463 -0.10734,-0.14263 -0.1321,-0.3029 -0.0188,-0.16658 0.0465,-0.34082 0.0653,-0.17423 0.22376,-0.34232 0.15242,-0.16171 0.36144,-0.27857 0.20895,-0.1168 0.42899,-0.16363 0.22594,-0.0532 0.4552,-0.0399 0.22921,0.0134 0.42044,0.10195 0.19126,0.0886 0.29867,0.23115 0.10741,0.14255 0.12618,0.30921 0.0327,0.16361 -0.0388,0.34436 -0.0636,0.1841 -0.21608,0.3459 z" />
    </g>
  </g>
</svg>
