<?xml version="1.0" encoding="UTF-8" standalone="no"?>
<svg
   xmlns:dc="http://purl.org/dc/elements/1.1/"
   xmlns:cc="http://creativecommons.org/ns#"
   xmlns:rdf="http://www.w3.org/1999/02/22-rdf-syntax-ns#"
   xmlns:svg="http://www.w3.org/2000/svg"
   xmlns="http://www.w3.org/2000/svg"
   xmlns:sodipodi="http://sodipodi.sourceforge.net/DTD/sodipodi-0.dtd"
   xmlns:inkscape="http://www.inkscape.org/namespaces/inkscape"
   width="0.75in"
   height="0.75in"
   viewBox="0 0 67.500001 67.500002"
   id="svg2"
   version="1.1"
   inkscape:version="1.0 (4035a4fb49, 2020-05-01)"
   sodipodi:docname="guard-dog.svg">
  <defs
     id="defs4" />
  <sodipodi:namedview
     id="base"
     pagecolor="#ffffff"
     bordercolor="#666666"
     borderopacity="1.0"
     inkscape:pageopacity="0.0"
     inkscape:pageshadow="2"
     inkscape:zoom="5.6"
     inkscape:cx="48.378239"
     inkscape:cy="50.502281"
     inkscape:document-units="px"
     inkscape:current-layer="layer1"
     showgrid="false"
     units="in"
     inkscape:window-width="1920"
     inkscape:window-height="1017"
     inkscape:window-x="-8"
     inkscape:window-y="-8"
     inkscape:window-maximized="1"
     inkscape:document-rotation="0" />
  <metadata
     id="metadata7">
    <rdf:RDF>
      <cc:Work
         rdf:about="">
        <dc:format>image/svg+xml</dc:format>
        <dc:type
           rdf:resource="http://purl.org/dc/dcmitype/StillImage" />
        <dc:title />
      </cc:Work>
    </rdf:RDF>
  </metadata>
  <g
     inkscape:label="Layer 1"
     inkscape:groupmode="layer"
     id="layer1"
     transform="translate(0,-984.86215)">
    <path
       id="path25834"
       style="font-variation-settings:normal;display:inline;opacity:1;vector-effect:none;fill:#000000;fill-opacity:1;stroke:none;stroke-width:1;stroke-linecap:butt;stroke-linejoin:miter;stroke-miterlimit:4;stroke-dasharray:none;stroke-dashoffset:0;stroke-opacity:1;stop-color:#000000;stop-opacity:1"
       d="m 57.513094,1017.1777 c 0.29339,3.0316 0.50748,6.0571 0.38796,9.1413 l -6.70833,6.7084 c 1.94244,-6.9959 2.57085,-14.8972 -1.06795,-23.1754 l 0.0563,-0.01 z m -8.49476,-5.2816 c 3.31583,8.5969 1.899,16.6983 -0.56441,23.8701 l -4.64818,4.6482 c -0.86418,-0.7355 -1.75199,-1.3657 -2.67456,-1.8929 0.86733,-0.1761 1.70259,-0.4234 2.40151,-0.7884 0.97764,-0.5106 1.81549,-1.4397 2.51366,-2.2586 0.6981,-0.8189 1.20763,-1.5394 1.20763,-1.5394 l -1.48978,-1.0538 c 0,0 -0.46804,0.659 -1.10778,1.4094 -0.64007,0.7504 -1.50105,1.5808 -1.96852,1.8248 -0.8634,0.451 -2.69926,0.7919 -4.24389,0.9436 -0.21048,0.021 -0.42144,0.038 -0.63231,0.055 -0.8315,-0.2402 -1.69356,-0.4136 -2.59547,-0.5214 -4.35086,-0.5193 -9.53258,0.3968 -16.50705,2.2573 -1.66008,-0.7277 -3.64507,-2.2329 -5.36546,-3.8738 0.17221,-0.032 0.34264,-0.077 0.50819,-0.1343 1.00573,-0.35 1.8895,-1.2751 1.98471,-2.516 0.0904,-1.1749 0.0471,-2.6243 -0.44965,-3.9413 -0.2172,-0.5762 -0.553,-1.1333 -1.00619,-1.5956 l -0.0142,-0.014 5.79465,-3.1792 c 0.93288,-0.3602 1.62294,-1.0168 2.09388,-1.7597 0.48388,-0.7635 0.77308,-1.6133 1.02179,-2.4606 0.49624,-1.6923 0.86509,-3.3795 1.68264,-4.4004 1.72499,-2.0908 4.3234,-2.4897 7.04189,-3.5676 l 0.2576,-0.1021 0.15519,-0.2275 c 2.39004,-3.4576 2.96646,-7.7618 3.49484,-12.15381 3.90692,3.19751 6.86725,9.06921 9.21781,13.44961 l 0.38299,0.7102 0.75062,-0.2913 c 0.95371,-0.3679 1.87324,-0.6644 2.75995,-0.894 z m -28.85941,11.6969 c -0.0283,0.01 -0.0517,0.021 -0.0797,0.028 l 0.12792,-0.058 z m 12.81624,-24.23921 c 0.31677,0.3157 0.62267,0.6427 0.91095,0.98511 -0.48983,3.6089 -1.15016,6.8941 -2.83507,9.4633 -0.18284,0.069 -0.36929,0.1354 -0.55797,0.2006 0.60924,-4.1751 0.88512,-8.5745 -0.63227,-13.19289 1.23045,0.84005 2.25805,1.69068 3.11447,2.54378 z m -19.98903,28.39041 c -3.0808003,2.1922 -1.84365,3.7351 -0.6036,5.4471 -0.81425,-0.4656 -3.1468403,-2.2561 -2.7781303,-3.7735 0.29693,-1.2223 2.3644203,-1.5518 3.3817303,-1.6736 z m 17.04412,-10.3423 c -1.39343,0.5546 -2.53307,1.5389 -3.67047,2.5491 0.90181,1.1079 1.7994,1.1744 2.91224,0.972 1.27782,-0.9538 1.96745,-2.3658 1.99381,-3.8758 -0.43529,0.079 -0.84578,0.1995 -1.23576,0.3548 z"
       inkscape:connector-curvature="0" />
  </g>
</svg>
