<?xml version="1.0" encoding="UTF-8" standalone="no"?>
<svg
   xmlns:dc="http://purl.org/dc/elements/1.1/"
   xmlns:cc="http://creativecommons.org/ns#"
   xmlns:rdf="http://www.w3.org/1999/02/22-rdf-syntax-ns#"
   xmlns:svg="http://www.w3.org/2000/svg"
   xmlns="http://www.w3.org/2000/svg"
   xmlns:sodipodi="http://sodipodi.sourceforge.net/DTD/sodipodi-0.dtd"
   xmlns:inkscape="http://www.inkscape.org/namespaces/inkscape"
   width="0.75in"
   height="0.75in"
   viewBox="0 0 67.500001 67.500002"
   id="svg2"
   version="1.1"
   inkscape:version="1.0 (4035a4fb49, 2020-05-01)"
   sodipodi:docname="guard.svg">
  <defs
     id="defs4" />
  <sodipodi:namedview
     id="base"
     pagecolor="#ffffff"
     bordercolor="#666666"
     borderopacity="1.0"
     inkscape:pageopacity="0.0"
     inkscape:pageshadow="2"
     inkscape:zoom="7.9195959"
     inkscape:cx="52.723616"
     inkscape:cy="55.690007"
     inkscape:document-units="px"
     inkscape:current-layer="layer1"
     showgrid="false"
     units="in"
     inkscape:window-width="1920"
     inkscape:window-height="1017"
     inkscape:window-x="-8"
     inkscape:window-y="-8"
     inkscape:window-maximized="1"
     inkscape:document-rotation="0" />
  <metadata
     id="metadata7">
    <rdf:RDF>
      <cc:Work
         rdf:about="">
        <dc:format>image/svg+xml</dc:format>
        <dc:type
           rdf:resource="http://purl.org/dc/dcmitype/StillImage" />
        <dc:title />
      </cc:Work>
    </rdf:RDF>
  </metadata>
  <g
     inkscape:label="Layer 1"
     inkscape:groupmode="layer"
     id="layer1"
     transform="translate(0,-984.86215)">
    <path
       inkscape:connector-curvature="0"
       style="fill:#000000;stroke-width:1"
       d="m 33.750073,985.81993 c 2.971424,0 4.943319,1.48316 7.588453,2.95249 2.506893,1.39282 5.658442,2.58721 10.102846,1.67964 2.109146,2.1082 4.25197,4.21686 6.537136,5.64519 1.870016,1.16879 3.971381,1.86482 6.067367,1.53593 -0.601362,4.73152 -3.474586,9.35992 -6.478272,11.78262 -7.92097,-2.625 -15.861752,-3.9381 -23.802531,-3.9381 -7.94814,0 -15.896136,1.3156 -23.8243216,3.9453 -3.0068022,-2.4206 -5.8848369,-7.0536 -6.4866235,-11.78982 2.0955642,0.32919 4.197351,-0.36714 6.067368,-1.53577 2.2851651,-1.42833 4.4277061,-3.53684 6.5371331,-5.64504 4.44398,0.90741 7.595955,-0.28713 10.102848,-1.67968 2.645417,-1.47001 4.61717,-2.95276 7.588597,-2.95276 z m 0.01494,2.76468 c -2.803751,0 -7.523366,3.78896 -7.523366,3.78896 0,0 3.002553,11.36723 7.523366,11.36723 4.521093,0 7.523648,-11.36723 7.523648,-11.36723 0,0 -4.719896,-3.78896 -7.523648,-3.78896 z m 0,19.43029 c 7.469597,0 14.93976,1.2212 22.427752,3.6414 0.308461,1.906 -0.21366,3.3223 -1.336858,4.632 -1.253659,1.462 -3.357996,2.7031 -5.852294,3.6378 -4.989164,1.8704 -11.458807,2.5323 -15.238742,2.5323 -3.779794,0 -10.249154,-0.6619 -15.238176,-2.5322 -2.494583,-0.9347 -4.598635,-2.1756 -5.852294,-3.6379 -1.123482,-1.3097 -1.645887,-2.7257 -1.337141,-4.6318 7.487991,-2.4204 14.958013,-3.6416 22.427611,-3.6416 z m 24.511003,8.0861 c 1.389496,0.337 3.810782,1.1001 4.245743,2.4047 1.188854,3.5651 -2.394119,9.0267 -5.103776,12.4728 0.746535,-3.1136 1.148951,-6.4255 1.148951,-9.8596 0,-1.706 -0.0999,-3.3817 -0.290918,-5.0179 z m -49.0214423,0 a 43.280932,43.280932 0 0 0 -0.2909177,5.0178 c 0,3.4341 0.4022761,6.746 1.148952,9.8596 -2.7096563,-3.4462 -6.2927708,-8.9077 -5.1037766,-12.4729 0.434819,-1.3046 2.856247,-2.0677 4.2456005,-2.4046 z m 46.6980713,2.7127 c 0.04316,0.7609 0.06721,1.529 0.06721,2.3049 0,8.4013 -2.565331,15.9832 -6.636607,21.4093 -4.071136,5.4258 -9.579735,8.6756 -15.618378,8.6756 -6.038218,0 -11.546959,-3.2498 -15.617953,-8.6756 -4.071136,-5.4261 -6.636185,-13.0079 -6.636185,-21.4091 0,-0.7762 0.02405,-1.5443 0.06707,-2.3053 1.160269,1.0834 2.577497,1.9622 4.136648,2.6927 -0.604191,2.5753 0.03763,5.7785 1.711824,7.4521 3.080943,3.0794 9.990355,3.0794 13.071441,0 0.954252,-0.9542 1.363601,-2.4745 1.30955,-3.9999 0.698144,0.031 1.358366,0.046 1.957887,0.046 0.599662,0 1.260025,-0.017 1.958311,-0.046 -0.05419,1.5253 0.355155,3.0457 1.30969,3.9999 3.081087,3.0794 9.990215,3.0794 13.071159,0 1.674186,-1.6736 2.316012,-4.8763 1.711823,-7.4515 1.559292,-0.7305 2.976802,-1.6099 4.13679,-2.6931 z m -22.187632,16.6775 c -3.267719,5.2263 -9.803158,5.8795 -13.070875,5.8795 3.267576,2.6134 13.070733,2.6134 13.070733,0 0,2.6134 9.80358,2.6134 13.071441,0 -3.267861,0 -9.803581,-0.6532 -13.071441,-5.8795 z"
       id="path3353" />
  </g>
</svg>
