<?xml version="1.0" encoding="UTF-8" standalone="no"?>
<svg
   xmlns:dc="http://purl.org/dc/elements/1.1/"
   xmlns:cc="http://creativecommons.org/ns#"
   xmlns:rdf="http://www.w3.org/1999/02/22-rdf-syntax-ns#"
   xmlns:svg="http://www.w3.org/2000/svg"
   xmlns="http://www.w3.org/2000/svg"
   xmlns:sodipodi="http://sodipodi.sourceforge.net/DTD/sodipodi-0.dtd"
   xmlns:inkscape="http://www.inkscape.org/namespaces/inkscape"
   sodipodi:docname="jewel.svg"
   inkscape:version="1.0 (4035a4fb49, 2020-05-01)"
   version="1.1"
   id="svg2"
   viewBox="0 0 67.500001 67.500002"
   height="0.75in"
   width="0.75in">
  <defs
     id="defs4" />
  <sodipodi:namedview
     inkscape:document-rotation="0"
     inkscape:window-maximized="1"
     inkscape:window-y="-8"
     inkscape:window-x="-8"
     inkscape:window-height="1017"
     inkscape:window-width="1920"
     units="in"
     showgrid="false"
     inkscape:current-layer="layer1"
     inkscape:document-units="px"
     inkscape:cy="15.579081"
     inkscape:cx="37.395849"
     inkscape:zoom="5.6"
     inkscape:pageshadow="2"
     inkscape:pageopacity="0.0"
     borderopacity="1.0"
     bordercolor="#666666"
     pagecolor="#ffffff"
     id="base" />
  <metadata
     id="metadata7">
    <rdf:RDF>
      <cc:Work
         rdf:about="">
        <dc:format>image/svg+xml</dc:format>
        <dc:type
           rdf:resource="http://purl.org/dc/dcmitype/StillImage" />
        <dc:title />
      </cc:Work>
    </rdf:RDF>
  </metadata>
  <g
     transform="translate(0,-984.86215)"
     id="layer1"
     inkscape:groupmode="layer"
     inkscape:label="Layer 1">
    <path
       id="path4924"
       d="m 32.485341,986.16285 -19.665146,14.74435 9.133172,4.565 10.531974,-7.89644 v -11.41273 z m 2.529324,0 v 11.41291 l 10.531869,7.89644 9.13378,-4.5652 z m 1.303613,3.13454 5.147256,3.71481 c -3.530597,-0.59112 -4.179019,1.29278 -5.248104,4.04693 l 0.101051,-7.76174 z m -5.31015,0.5516 -0.03839,4.6879 c -3.098721,0.16614 -7.979717,2.02678 -15.161058,6.18161 l 15.199658,-10.86934 z m 2.741925,9.93946 -10.398389,7.79625 v 22.0545 l 10.398389,7.796 10.398392,-7.796 v -22.0542 l -10.398392,-7.7962 z m 0.59224,2.48325 c -5.269828,4.7551 -8.521334,23.1621 -8.944015,27.9765 l -0.04951,-21.2321 8.993226,-6.7446 z m -22.653729,0.8974 v 30.8859 l 9.133782,-4.5652 v -21.7558 z m 44.122874,0 -9.133677,4.5649 v 21.756 l 9.133677,4.5652 v -30.886 z m -42.345551,3.2755 5.687152,2.9269 c -6.503107,5.446 -4.326547,17.2409 -5.884293,22.8445 l 0.197232,-25.7714 z m 8.487281,25.3076 -9.132973,4.5648 19.665146,14.7445 v -11.413 l -10.531872,-7.8963 z m 23.59357,0 -10.532073,7.8963 v 11.4129 L 54.67991,1036.317 Z m -23.805973,2.413 c -2.753342,2.2879 -2.352991,3.4236 0.62912,7.6456 l -6.217446,-5.342 5.588428,-2.3036 z"
       inkscape:connector-curvature="0"
       style="fill:#000000;stroke-width:0.999999" />
  </g>
</svg>
