<?xml version="1.0" encoding="UTF-8" standalone="no"?>
<svg
   xmlns:dc="http://purl.org/dc/elements/1.1/"
   xmlns:cc="http://creativecommons.org/ns#"
   xmlns:rdf="http://www.w3.org/1999/02/22-rdf-syntax-ns#"
   xmlns:svg="http://www.w3.org/2000/svg"
   xmlns="http://www.w3.org/2000/svg"
   xmlns:sodipodi="http://sodipodi.sourceforge.net/DTD/sodipodi-0.dtd"
   xmlns:inkscape="http://www.inkscape.org/namespaces/inkscape"
   sodipodi:docname="pro.svg"
   inkscape:version="1.0 (4035a4fb49, 2020-05-01)"
   id="svg8"
   version="1.1"
   viewBox="0 0 66.145832 105.83334"
   height="400"
   width="250">
  <defs
     id="defs2" />
  <sodipodi:namedview
     inkscape:snap-global="false"
     inkscape:snap-page="true"
     units="px"
     showgrid="false"
     inkscape:document-rotation="0"
     inkscape:current-layer="layer1"
     inkscape:document-units="mm"
     inkscape:cy="139.87991"
     inkscape:cx="203.20651"
     inkscape:zoom="2.8"
     inkscape:pageshadow="2"
     inkscape:pageopacity="0.0"
     borderopacity="1.0"
     bordercolor="#666666"
     pagecolor="#ffffff"
     id="base" />
  <metadata
     id="metadata5">
    <rdf:RDF>
      <cc:Work
         rdf:about="">
        <dc:format>image/svg+xml</dc:format>
        <dc:type
           rdf:resource="http://purl.org/dc/dcmitype/StillImage" />
        <dc:title />
      </cc:Work>
    </rdf:RDF>
  </metadata>
  <g
     id="layer1"
     inkscape:groupmode="layer"
     inkscape:label="Layer 1">
    <g
       transform="translate(0,1.0394345)"
       id="g106">
      <path
         id="rect43"
         style="fill:#000000;stroke-width:0.0436618;stroke-linecap:round;stroke-linejoin:round;stroke-dasharray:0.0436618, 0.0873239;paint-order:markers fill stroke;stop-color:#000000"
         d="m 0.26726953,17.703983 v 46.705014 0.404628 11.078908 L 27.843364,86.284665 55.318716,75.892533 c 0.006,-19.360099 0.0062,-38.740958 0.0062,-58.18855 z"
         sodipodi:nodetypes="cccccccc" />
      <path
         id="rect10"
         style="fill:#ffffff;stroke-width:0.0436619;stroke-linecap:round;stroke-linejoin:round;stroke-dasharray:0.0436619, 0.087324;paint-order:markers fill stroke;stop-color:#000000"
         d="M 27.843108,66.406293 52.86761,56.975543 V 46.554698 l -25.024502,9.43062 -25.0245065,-9.43062 v 10.420845 z" />
      <path
         d="M 27.843108,80.272925 52.86761,70.842175 V 60.421329 L 27.843108,69.851945 2.8186015,60.421329 v 10.420846 z"
         style="fill:#ffffff;stroke-width:0.0436619;stroke-linecap:round;stroke-linejoin:round;stroke-dasharray:0.0436619, 0.087324;paint-order:markers fill stroke;stop-color:#000000"
         id="path29" />
      <path
         id="path41"
         style="fill:#ffffff;stroke-width:0.0436618;stroke-linecap:round;stroke-linejoin:round;stroke-dasharray:0.0436618, 0.087324;paint-order:markers fill stroke;stop-color:#000000"
         inkscape:transform-center-x="-1.1345926"
         inkscape:transform-center-y="-1.3924272"
         d="m 36.345919,49.606135 -8.674851,-4.72018 -8.806277,4.470195 1.808481,-9.70889 -6.972696,-6.993901 9.792554,-1.280244 4.496913,-8.792663 4.24365,8.917655 9.751942,1.559736 -7.169834,6.791659 z" />
    </g>
    <g
       aria-label="Pro"
       id="text19"
       style="font-size:14.8275px;line-height:1.25;font-family:'Archivo Narrow';-inkscape-font-specification:'Archivo Narrow';letter-spacing:0px;word-spacing:0px;fill:#000000;stroke-width:0.171095"
       transform="matrix(1.5464137,0,0,1.5464137,121.55662,-117.06835)">
      <path
         d="m -65.817832,82.54644 c 1.883092,0 3.039637,-1.215855 3.039637,-3.009983 0,-1.764472 -1.037925,-2.9655 -3.039637,-2.9655 h -3.632738 v 10.171665 h 1.30482 V 82.54644 Z m -0.04448,-4.789283 c 1.112063,0 1.71999,0.682065 1.71999,1.7793 0,1.097235 -0.682065,1.823783 -1.71999,1.823783 h -2.283435 v -3.603083 z"
         style="fill:#000000;stroke-width:0.171095"
         id="path88" />
      <path
         d="m -58.999035,78.765427 c -0.741375,0 -1.12689,0.607928 -1.319648,1.201028 h -0.08897 l -0.163102,-1.023098 h -0.919305 v 7.799265 h 1.215855 v -4.759627 c 0,-1.378958 0.682065,-1.83861 1.453095,-1.83861 h 0.400342 v -1.260338 c 0,0 -0.252067,-0.11862 -0.578272,-0.11862 z"
         style="fill:#000000;stroke-width:0.171095"
         id="path90" />
      <path
         d="m -54.944641,78.765427 c -1.823782,0 -2.78757,1.275165 -2.78757,4.077563 0,2.802397 0.963788,4.077562 2.78757,4.077562 1.823783,0 2.78757,-1.275165 2.78757,-4.077562 0,-2.802398 -0.963787,-4.077563 -2.78757,-4.077563 z m 0,1.082408 c 1.00827,0 1.512405,0.919305 1.512405,2.713432 v 0.563445 c 0,1.794128 -0.504135,2.713433 -1.512405,2.713433 -1.00827,0 -1.512405,-0.919305 -1.512405,-2.713433 v -0.563445 c 0,-1.794127 0.504135,-2.713432 1.512405,-2.713432 z"
         style="fill:#000000;stroke-width:0.171095"
         id="path92" />
    </g>
  </g>
</svg>
