<?xml version="1.0" encoding="UTF-8" standalone="no"?>
<svg
   xmlns:dc="http://purl.org/dc/elements/1.1/"
   xmlns:cc="http://creativecommons.org/ns#"
   xmlns:rdf="http://www.w3.org/1999/02/22-rdf-syntax-ns#"
   xmlns:svg="http://www.w3.org/2000/svg"
   xmlns="http://www.w3.org/2000/svg"
   xmlns:sodipodi="http://sodipodi.sourceforge.net/DTD/sodipodi-0.dtd"
   xmlns:inkscape="http://www.inkscape.org/namespaces/inkscape"
   width="250"
   height="400"
   viewBox="0 0 66.145832 105.83334"
   version="1.1"
   id="svg8"
   inkscape:version="1.0 (4035a4fb49, 2020-05-01)"
   sodipodi:docname="semi-pro.svg">
  <defs
     id="defs2" />
  <sodipodi:namedview
     id="base"
     pagecolor="#ffffff"
     bordercolor="#666666"
     borderopacity="1.0"
     inkscape:pageopacity="0.0"
     inkscape:pageshadow="2"
     inkscape:zoom="1.4"
     inkscape:cx="269.74807"
     inkscape:cy="162.92126"
     inkscape:document-units="mm"
     inkscape:current-layer="layer1"
     inkscape:document-rotation="0"
     showgrid="false"
     units="px"
     inkscape:snap-page="true" />
  <metadata
     id="metadata5">
    <rdf:RDF>
      <cc:Work
         rdf:about="">
        <dc:format>image/svg+xml</dc:format>
        <dc:type
           rdf:resource="http://purl.org/dc/dcmitype/StillImage" />
        <dc:title />
      </cc:Work>
    </rdf:RDF>
  </metadata>
  <g
     inkscape:label="Layer 1"
     inkscape:groupmode="layer"
     id="layer1">
    <g
       id="g48">
      <g
         aria-label="Pro"
         id="text19"
         style="font-size:14.8275px;line-height:1.25;font-family:'Archivo Narrow';-inkscape-font-specification:'Archivo Narrow';letter-spacing:0px;word-spacing:0px;fill:#000000;stroke-width:0.171095"
         transform="matrix(1.5464137,0,0,1.5464137,203.37362,-49.898434)">
        <path
           d="m -65.817832,82.54644 c 1.883092,0 3.039637,-1.215855 3.039637,-3.009983 0,-1.764472 -1.037925,-2.9655 -3.039637,-2.9655 h -3.632738 v 10.171665 h 1.30482 V 82.54644 Z m -0.04448,-4.789283 c 1.112063,0 1.71999,0.682065 1.71999,1.7793 0,1.097235 -0.682065,1.823783 -1.71999,1.823783 h -2.283435 v -3.603083 z"
           style="fill:#000000;stroke-width:0.171095"
           id="path88" />
        <path
           d="m -58.999035,78.765427 c -0.741375,0 -1.12689,0.607928 -1.319648,1.201028 h -0.08897 l -0.163102,-1.023098 h -0.919305 v 7.799265 h 1.215855 v -4.759627 c 0,-1.378958 0.682065,-1.83861 1.453095,-1.83861 h 0.400342 v -1.260338 c 0,0 -0.252067,-0.11862 -0.578272,-0.11862 z"
           style="fill:#000000;stroke-width:0.171095"
           id="path90" />
        <path
           d="m -54.944641,78.765427 c -1.823782,0 -2.78757,1.275165 -2.78757,4.077563 0,2.802397 0.963788,4.077562 2.78757,4.077562 1.823783,0 2.78757,-1.275165 2.78757,-4.077562 0,-2.802398 -0.963787,-4.077563 -2.78757,-4.077563 z m 0,1.082408 c 1.00827,0 1.512405,0.919305 1.512405,2.713432 v 0.563445 c 0,1.794128 -0.504135,2.713433 -1.512405,2.713433 -1.00827,0 -1.512405,-0.919305 -1.512405,-2.713433 v -0.563445 c 0,-1.794127 0.504135,-2.713432 1.512405,-2.713432 z"
           style="fill:#000000;stroke-width:0.171095"
           id="path92" />
      </g>
      <path
         sodipodi:nodetypes="cccccccc"
         d="m 82.084272,85.913328 v 46.705012 0.40463 11.07891 l 27.576098,10.39213 27.47535,-10.39213 c 0.006,-19.3601 0.006,-38.74096 0.006,-58.188552 z"
         style="fill:#000000;stroke-width:0.0436618;stroke-linecap:round;stroke-linejoin:round;stroke-dasharray:0.0436618, 0.0873239;paint-order:markers fill stroke;stop-color:#000000"
         id="rect43" />
      <path
         d="m 109.66011,134.61564 25.0245,-9.43075 v -10.42085 l -25.0245,9.43062 -25.024506,-9.43062 v 10.42085 z"
         style="fill:#ffffff;stroke-width:0.0436618;stroke-linecap:round;stroke-linejoin:round;stroke-dasharray:0.0436618, 0.0873239;paint-order:markers fill stroke;stop-color:#000000"
         id="rect10" />
      <path
         id="path29"
         style="fill:#ffffff;stroke-width:0.0436618;stroke-linecap:round;stroke-linejoin:round;stroke-dasharray:0.0436618, 0.0873239;paint-order:markers fill stroke;stop-color:#000000"
         d="m 109.66011,148.48227 25.0245,-9.43075 v -10.42085 l -25.0245,9.43062 -25.024506,-9.43062 v 10.42085 z" />
      <path
         d="m 118.16292,117.81548 -8.67485,-4.72018 -8.80628,4.47019 1.80848,-9.70889 -6.972691,-6.9939 9.792551,-1.280241 4.49692,-8.792662 4.24365,8.917654 9.75194,1.559739 -7.16984,6.79166 z"
         inkscape:transform-center-y="-1.3924272"
         inkscape:transform-center-x="-1.1345926"
         style="fill:#ffffff;stroke-width:0.0436618;stroke-linecap:round;stroke-linejoin:round;stroke-dasharray:0.0436618, 0.0873239;paint-order:markers fill stroke;stop-color:#000000"
         id="path41" />
    </g>
  </g>
</svg>
