<?xml version="1.0" encoding="UTF-8" standalone="no"?>
<!-- Created with Inkscape (http://www.inkscape.org/) -->

<svg
   xmlns:dc="http://purl.org/dc/elements/1.1/"
   xmlns:cc="http://creativecommons.org/ns#"
   xmlns:rdf="http://www.w3.org/1999/02/22-rdf-syntax-ns#"
   xmlns:svg="http://www.w3.org/2000/svg"
   xmlns="http://www.w3.org/2000/svg"
   xmlns:sodipodi="http://sodipodi.sourceforge.net/DTD/sodipodi-0.dtd"
   xmlns:inkscape="http://www.inkscape.org/namespaces/inkscape"
   width="755"
   height="70"
   viewBox="0 0 199.76042 18.520834"
   version="1.1"
   id="svg825"
   inkscape:version="0.92.4 (5da689c313, 2019-01-14)"
   sodipodi:docname="logopage.svg">
  <defs
     id="defs819" />
  <sodipodi:namedview
     id="base"
     pagecolor="#ffffff"
     bordercolor="#666666"
     borderopacity="1.0"
     inkscape:pageopacity="0.0"
     inkscape:pageshadow="2"
     inkscape:zoom="1.4"
     inkscape:cx="-362.56283"
     inkscape:cy="259.50724"
     inkscape:document-units="mm"
     inkscape:current-layer="text1375"
     showgrid="false"
     units="px"
     inkscape:window-width="3840"
     inkscape:window-height="2066"
     inkscape:window-x="2869"
     inkscape:window-y="-11"
     inkscape:window-maximized="1" />
  <metadata
     id="metadata822">
    <rdf:RDF>
      <cc:Work
         rdf:about="">
        <dc:format>image/svg+xml</dc:format>
        <dc:type
           rdf:resource="http://purl.org/dc/dcmitype/StillImage" />
        <dc:title />
      </cc:Work>
    </rdf:RDF>
  </metadata>
  <g
     inkscape:label="Layer 1"
     inkscape:groupmode="layer"
     id="layer1"
     transform="translate(0,-278.47915)">
    <g
       aria-label="Your Last Heist"
       style="font-style:normal;font-variant:normal;font-weight:normal;font-stretch:normal;font-size:16.98246574px;line-height:11.37218761px;font-family:Acknowledgement;-inkscape-font-specification:Acknowledgement;text-align:center;letter-spacing:0px;word-spacing:0px;writing-mode:lr-tb;text-anchor:middle;fill:#333333;fill-opacity:1;stroke:none;stroke-width:0.27086151px;stroke-linecap:butt;stroke-linejoin:miter;stroke-opacity:1"
       id="text1375"
       transform="matrix(0.96169346,0,0,0.9921875,-27.343827,2.2924102)">
      <path
         d="m 133.75393,295.4171 h 10.27764 v -3.04158 h -2.64914 v -3.33595 h 8.4625 v 3.33595 h -2.55101 v 3.04158 h 10.27764 v -3.04158 h -2.64914 v -9.32101 h 2.64914 v -2.82083 h -10.27764 v 2.82083 h 2.55101 v 3.16424 h -8.4625 v -3.16424 h 2.64914 v -2.82083 h -10.27764 v 2.82083 h 2.551 v 9.32101 h -2.551 z"
         style="font-style:normal;font-variant:normal;font-weight:normal;font-stretch:normal;font-family:Acknowledgement;-inkscape-font-specification:Acknowledgement;fill:#333333;fill-opacity:1;stroke-width:0.39122438px"
         id="path1399"
         inkscape:connector-curvature="0" />
      <path
         d="m 159.52852,295.4171 h 19.15714 v -5.91147 h -3.385 v 2.86989 h -8.14362 v -3.33595 h 5.5926 v -2.82082 h -5.5926 v -3.16424 h 8.14362 v 3.06612 h 3.385 v -5.88695 h -19.15714 v 2.82083 h 2.55102 v 9.32101 h -2.55102 z"
         style="font-style:normal;font-variant:normal;font-weight:normal;font-stretch:normal;font-family:Acknowledgement;-inkscape-font-specification:Acknowledgement;fill:#333333;fill-opacity:1;stroke-width:0.39122438px"
         id="path1401"
         inkscape:connector-curvature="0" />
      <path
         d="m 180.65601,295.4171 h 10.27763 v -3.04158 h -2.64912 v -9.32101 h 2.64912 v -2.82083 h -10.27763 v 2.82083 h 2.55102 v 9.32101 h -2.55102 z"
         style="font-style:normal;font-variant:normal;font-weight:normal;font-stretch:normal;font-family:Acknowledgement;-inkscape-font-specification:Acknowledgement;fill:#333333;fill-opacity:1;stroke-width:0.39122438px"
         id="path1403"
         inkscape:connector-curvature="0" />
      <path
         d="m 201.94831,282.71111 c 2.25667,0 5.56808,0.68681 5.56808,2.28119 v 0.88303 h 3.385 v -5.91147 h -3.385 v 1.20191 c -1.20192,-0.83398 -3.9001,-1.64343 -6.15677,-1.64343 -3.33594,0 -8.04551,1.05474 -8.04551,5.20014 0,3.80199 5.05297,4.73408 6.86813,4.97938 3.75292,0.49058 5.81336,0.17171 5.81336,1.64343 0,1.05475 -2.08497,1.42269 -3.53218,1.42269 -2.60007,0 -6.20583,-0.49058 -6.20583,-2.52649 v -0.88304 h -3.38499 v 6.15677 h 3.38499 v -0.66227 c 1.27551,0.66227 3.385,1.1038 5.78884,1.1038 6.1813,0 9.02667,-1.9378 9.02667,-4.95486 0,-5.8379 -6.81907,-5.17561 -10.86634,-5.91147 -1.00568,-0.17171 -1.8642,-0.31889 -1.8642,-0.88305 0,-1.25098 0.93209,-1.49626 3.60575,-1.49626 z"
         style="font-style:normal;font-variant:normal;font-weight:normal;font-stretch:normal;font-family:Acknowledgement;-inkscape-font-specification:Acknowledgement;fill:#333333;fill-opacity:1;stroke-width:0.39122438px"
         id="path1405"
         inkscape:connector-curvature="0" />
      <path
         d="m 213.04193,286.12063 h 3.385 v -3.06612 h 4.90579 v 9.32101 h -3.16424 v 3.04158 h 11.45503 v -3.04158 h -3.23782 v -9.32101 h 4.90579 v 3.06612 h 3.385 v -5.88695 h -21.63455 z"
         style="font-style:normal;font-variant:normal;font-weight:normal;font-stretch:normal;font-family:Acknowledgement;-inkscape-font-specification:Acknowledgement;fill:#333333;fill-opacity:1;stroke-width:0.39122438px"
         id="path1407"
         inkscape:connector-curvature="0" />
      <g
         aria-label="Masters"
         transform="scale(1.0157306,0.98451301)"
         style="font-style:normal;font-variant:normal;font-weight:500;font-stretch:normal;font-size:15.15807343px;line-height:1.25;font-family:Acknowledgement;-inkscape-font-specification:'Acknowledgement, Medium';font-variant-ligatures:normal;font-variant-caps:normal;font-variant-numeric:normal;font-feature-settings:normal;text-align:center;letter-spacing:0px;word-spacing:0px;writing-mode:lr-tb;text-anchor:middle;opacity:1;vector-effect:none;fill:#333333;fill-opacity:1;stroke:none;stroke-width:0.54734689px;stroke-linecap:butt;stroke-linejoin:miter;stroke-miterlimit:4;stroke-dasharray:none;stroke-dashoffset:0;stroke-opacity:1"
         id="text857">
        <path
           d="m 29.890673,294.82858 h 6.169336 v -1.8796 h -2.182763 v -3.07709 l 4.138154,4.94153 h 0.651798 l 4.062363,-4.92637 v 3.06193 h -1.637072 v 1.8796 h 6.351233 v -1.8796 h -1.57644 v -5.76007 h 1.57644 v -1.65223 h -4.426157 l -4.426158,5.13859 -4.456473,-5.22953 h -4.244261 v 1.74317 h 1.57644 v 5.76007 h -1.57644 z"
           style="vector-effect:none;fill:#333333;fill-opacity:1;stroke:none;stroke-width:0.54734689px;stroke-linecap:butt;stroke-linejoin:miter;stroke-miterlimit:4;stroke-dasharray:none;stroke-dashoffset:0;stroke-opacity:1"
           id="path827" />
        <path
           d="m 55.087655,290.56916 1.136855,-1.89476 0.970117,1.89476 z m -6.123862,4.25942 h 5.623645 v -1.8796 h -0.909484 l 0.378952,-0.6518 h 4.032047 l 0.333478,0.6518 h -0.727588 v 1.8796 h 5.623646 v -1.8796 h -1.197488 l -4.289735,-7.59419 h -2.258553 l -4.699003,7.59419 h -1.909917 z"
           style="vector-effect:none;fill:#333333;fill-opacity:1;stroke:none;stroke-width:0.54734689px;stroke-linecap:butt;stroke-linejoin:miter;stroke-miterlimit:4;stroke-dasharray:none;stroke-dashoffset:0;stroke-opacity:1"
           id="path829" />
        <path
           d="m 69.84167,286.9767 c 1.394543,0 3.440883,0.42443 3.440883,1.4097 v 0.54569 h 2.091814 V 285.279 h -2.091814 v 0.74274 c -0.742745,-0.51537 -2.410134,-1.01559 -3.804676,-1.01559 -2.061498,0 -4.971848,0.6518 -4.971848,3.21351 0,2.3495 3.122563,2.92551 4.24426,3.07709 2.319185,0.30316 3.592464,0.10611 3.592464,1.01559 0,0.6518 -1.288437,0.87917 -2.182763,0.87917 -1.606756,0 -3.834993,-0.30316 -3.834993,-1.56128 v -0.54569 h -2.091814 v 3.80468 h 2.091814 v -0.40927 c 0.78822,0.40927 2.091815,0.68211 3.577306,0.68211 3.819834,0 5.578171,-1.19749 5.578171,-3.06193 0,-3.60762 -4.213945,-3.19835 -6.715027,-3.6531 -0.621481,-0.1061 -1.152013,-0.19705 -1.152013,-0.54569 0,-0.77306 0.576006,-0.92464 2.228236,-0.92464 z"
           style="vector-effect:none;fill:#333333;fill-opacity:1;stroke:none;stroke-width:0.54734689px;stroke-linecap:butt;stroke-linejoin:miter;stroke-miterlimit:4;stroke-dasharray:none;stroke-dashoffset:0;stroke-opacity:1"
           id="path831" />
        <path
           d="m 76.697146,289.08367 h 2.091814 v -1.89476 h 3.031615 v 5.76007 h -1.955392 v 1.8796 h 7.078821 v -1.8796 h -2.000866 v -5.76007 h 3.031615 v 1.89476 h 2.091814 v -3.63793 H 76.697146 Z"
           style="vector-effect:none;fill:#333333;fill-opacity:1;stroke:none;stroke-width:0.54734689px;stroke-linecap:butt;stroke-linejoin:miter;stroke-miterlimit:4;stroke-dasharray:none;stroke-dashoffset:0;stroke-opacity:1"
           id="path833" />
        <path
           d="m 91.292712,294.82858 h 11.838458 v -3.65309 h -2.09182 v 1.77349 h -5.032477 v -2.0615 h 3.45604 v -1.74317 h -3.45604 v -1.9554 h 5.032477 v 1.89476 h 2.09182 v -3.63793 H 91.292712 v 1.74317 h 1.576439 v 5.76007 h -1.576439 z"
           style="vector-effect:none;fill:#333333;fill-opacity:1;stroke:none;stroke-width:0.54734689px;stroke-linecap:butt;stroke-linejoin:miter;stroke-miterlimit:4;stroke-dasharray:none;stroke-dashoffset:0;stroke-opacity:1"
           id="path835" />
        <path
           d="m 111.65498,285.43058 c -2.42529,0 -4.86574,0.0152 -7.30619,0.0152 v 1.74317 h 1.57644 v 5.76007 h -1.51581 v 1.8796 h 6.35123 v -1.8796 h -1.6977 v -2.12213 h 0.74274 c 1.15202,0 1.84929,0.30316 1.84929,1.92508 0,2.12213 1.42486,2.37981 3.21351,2.37981 0.89433,0 2.54656,-0.31832 2.54656,-1.48549 v -1.00043 h -1.01559 c 0,0.0455 0,0.12126 0,0.16674 0,0.56085 -0.12127,0.86401 -0.60633,0.86401 -0.77306,0 -0.80337,-0.74275 -0.80337,-1.39454 0,-1.24297 -1.3036,-1.42486 -1.72803,-1.62192 1.56129,-0.27284 2.91035,-0.9398 2.91035,-2.69813 0,-2.01603 -1.71286,-2.5314 -4.5171,-2.5314 z m -2.59203,3.80467 v -2.04634 c 0,0 0.72759,0 1.47033,0 0.3638,0 0.72759,0 1.01559,0 0.78822,0.0303 1.4097,0.0606 1.4097,1.01559 0,0.81854 -0.27284,1.03075 -2.48592,1.03075 z"
           style="vector-effect:none;fill:#333333;fill-opacity:1;stroke:none;stroke-width:0.54734689px;stroke-linecap:butt;stroke-linejoin:miter;stroke-miterlimit:4;stroke-dasharray:none;stroke-dashoffset:0;stroke-opacity:1"
           id="path837" />
        <path
           d="m 123.96073,286.9767 c 1.39454,0 3.44088,0.42443 3.44088,1.4097 v 0.54569 h 2.09182 V 285.279 h -2.09182 v 0.74274 c -0.74274,-0.51537 -2.41013,-1.01559 -3.80467,-1.01559 -2.0615,0 -4.97185,0.6518 -4.97185,3.21351 0,2.3495 3.12256,2.92551 4.24426,3.07709 2.31918,0.30316 3.59246,0.10611 3.59246,1.01559 0,0.6518 -1.28843,0.87917 -2.18276,0.87917 -1.60676,0 -3.83499,-0.30316 -3.83499,-1.56128 v -0.54569 h -2.09182 v 3.80468 h 2.09182 v -0.40927 c 0.78822,0.40927 2.09181,0.68211 3.5773,0.68211 3.81984,0 5.57817,-1.19749 5.57817,-3.06193 0,-3.60762 -4.21394,-3.19835 -6.71502,-3.6531 -0.62148,-0.1061 -1.15202,-0.19705 -1.15202,-0.54569 0,-0.77306 0.57601,-0.92464 2.22824,-0.92464 z"
           style="vector-effect:none;fill:#333333;fill-opacity:1;stroke:none;stroke-width:0.54734689px;stroke-linecap:butt;stroke-linejoin:miter;stroke-miterlimit:4;stroke-dasharray:none;stroke-dashoffset:0;stroke-opacity:1"
           id="path839" />
      </g>
      <g
         id="g906"
         transform="translate(10.074437)">
        <g
           aria-label="of"
           transform="scale(1.0157306,0.98451301)"
           style="font-style:normal;font-variant:normal;font-weight:500;font-stretch:normal;font-size:6.52754307px;line-height:1.25;font-family:Acknowledgement;-inkscape-font-specification:'Acknowledgement, Medium';font-variant-ligatures:normal;font-variant-caps:normal;font-variant-numeric:normal;font-feature-settings:normal;text-align:center;letter-spacing:0px;word-spacing:0px;writing-mode:lr-tb;text-anchor:middle;opacity:1;vector-effect:none;fill:#333333;fill-opacity:1;stroke:none;stroke-width:0.23570478px;stroke-linecap:butt;stroke-linejoin:miter;stroke-miterlimit:4;stroke-dasharray:none;stroke-dashoffset:0;stroke-opacity:1"
           id="text861">
          <path
             d="m 88.475565,297.75635 c 0,-0.88775 0.678865,-1.2794 1.671051,-1.2794 0.979132,0 1.671051,0.43734 1.671051,1.2794 0,0.92038 -0.665809,1.33162 -1.677578,1.33162 -0.900801,0 -1.664524,-0.40471 -1.664524,-1.33162 z m -1.59272,0 c 0,1.5405 1.266343,2.11492 3.263771,2.11492 1.997429,0 3.257244,-0.57442 3.257244,-2.11492 0,-1.41648 -1.442587,-2.12145 -3.263771,-2.12145 -1.821185,0 -3.257244,0.70497 -3.257244,2.12145 z"
             style="vector-effect:none;fill:#333333;fill-opacity:1;stroke:none;stroke-width:0.23570478px;stroke-linecap:butt;stroke-linejoin:miter;stroke-miterlimit:4;stroke-dasharray:none;stroke-dashoffset:0;stroke-opacity:1"
             id="path842" />
          <path
             d="m 93.795921,299.79947 h 2.73504 v -0.80942 h -0.704974 v -0.88774 h 1.488279 v -0.75067 h -1.488279 v -0.84205 h 2.167144 v 0.81594 h 0.900801 v -1.56661 h -5.098011 v 0.75067 h 0.678864 v 2.48046 h -0.678864 z"
             style="vector-effect:none;fill:#333333;fill-opacity:1;stroke:none;stroke-width:0.23570478px;stroke-linecap:butt;stroke-linejoin:miter;stroke-miterlimit:4;stroke-dasharray:none;stroke-dashoffset:0;stroke-opacity:1"
             id="path844" />
        </g>
        <g
           aria-label="the"
           transform="scale(1.0157306,0.98451301)"
           style="font-style:normal;font-variant:normal;font-weight:500;font-stretch:normal;font-size:6.84360313px;line-height:1.25;font-family:Acknowledgement;-inkscape-font-specification:'Acknowledgement, Medium';font-variant-ligatures:normal;font-variant-caps:normal;font-variant-numeric:normal;font-feature-settings:normal;text-align:center;letter-spacing:0px;word-spacing:0px;writing-mode:lr-tb;text-anchor:middle;opacity:1;vector-effect:none;fill:#333333;fill-opacity:1;stroke:none;stroke-width:0.24711747px;stroke-linecap:butt;stroke-linejoin:miter;stroke-miterlimit:4;stroke-dasharray:none;stroke-dashoffset:0;stroke-opacity:1"
           id="text865">
          <path
             d="m 100.47746,297.36367 h 0.94442 v -0.85545 h 1.36872 v 2.60057 h -0.88283 v 0.84861 h 3.19597 v -0.84861 h -0.90336 v -2.60057 h 1.36872 v 0.85545 h 0.94442 v -1.64246 h -6.03606 z"
             style="vector-effect:none;fill:#333333;fill-opacity:1;stroke:none;stroke-width:0.24711747px;stroke-linecap:butt;stroke-linejoin:miter;stroke-miterlimit:4;stroke-dasharray:none;stroke-dashoffset:0;stroke-opacity:1"
             id="path847" />
          <path
             d="m 107.0671,299.9574 h 2.86747 v -0.84861 h -0.73911 v -0.93073 h 2.36105 v 0.93073 h -0.71174 v 0.84861 h 2.86747 v -0.84861 h -0.73911 v -2.60057 h 0.73911 v -0.78701 h -2.86747 v 0.78701 h 0.71174 v 0.88283 h -2.36105 v -0.88283 h 0.73911 v -0.78701 h -2.86747 v 0.78701 h 0.71174 v 2.60057 h -0.71174 z"
             style="vector-effect:none;fill:#333333;fill-opacity:1;stroke:none;stroke-width:0.24711747px;stroke-linecap:butt;stroke-linejoin:miter;stroke-miterlimit:4;stroke-dasharray:none;stroke-dashoffset:0;stroke-opacity:1"
             id="path849" />
          <path
             d="m 114.25823,299.9574 h 5.34486 v -1.64931 h -0.94442 v 0.8007 h -2.27208 v -0.93073 h 1.56035 v -0.78701 h -1.56035 v -0.88283 h 2.27208 v 0.85545 h 0.94442 v -1.64246 h -5.34486 v 0.78701 h 0.71174 v 2.60057 h -0.71174 z"
             style="vector-effect:none;fill:#333333;fill-opacity:1;stroke:none;stroke-width:0.24711747px;stroke-linecap:butt;stroke-linejoin:miter;stroke-miterlimit:4;stroke-dasharray:none;stroke-dashoffset:0;stroke-opacity:1"
             id="path851" />
        </g>
      </g>
    </g>
    <text
       xml:space="preserve"
       style="font-style:normal;font-weight:normal;font-size:10.58333302px;line-height:1.25;font-family:sans-serif;letter-spacing:0px;word-spacing:0px;fill:#000000;fill-opacity:1;stroke:none;stroke-width:0.26458332"
       x="74.461304"
       y="221.78273"
       id="text837"><tspan
         sodipodi:role="line"
         id="tspan835"
         x="74.461304"
         y="231.43823"
         style="stroke-width:0.26458332" /></text>
  </g>
</svg>
